<svg width="51" height="51" viewBox="0 0 51 51" fill="none" xmlns="http://www.w3.org/2000/svg">
<g clip-path="url(#clip0_184_2370)">
<path d="M22.3614 24.6086C23.5326 25.0776 24.7851 25.3101 26.0466 25.2927C27.3081 25.2752 28.5537 25.0082 29.7114 24.5069C30.016 24.3759 30.256 24.1292 30.3787 23.8212C30.5014 23.5131 30.4967 23.169 30.3656 22.8644C30.2345 22.5599 29.9879 22.3198 29.6798 22.1972C29.3718 22.0745 29.0277 22.0792 28.7231 22.2103C27.3193 22.8148 25.7579 22.9504 24.2709 22.5971C22.7838 22.2439 21.4503 21.4204 20.4683 20.2491C19.4864 19.0778 18.9083 17.6211 18.82 16.0952C18.7316 14.5693 19.1377 13.0556 19.9779 11.7788C20.8182 10.502 22.0477 9.5302 23.4841 9.00766C24.9204 8.48511 26.487 8.4397 27.9512 8.87815C29.4155 9.3166 30.6993 10.2155 31.612 11.4415C32.5248 12.6675 33.0179 14.1551 33.0181 15.6836V16.5736V16.6103C33.0173 16.6241 33.0173 16.638 33.0181 16.6519C33.0469 17.0695 32.9131 17.482 32.6447 17.8032C32.3763 18.1244 31.9941 18.3294 31.5781 18.3753C31.3991 18.3716 31.2226 18.3326 31.0587 18.2607C30.8948 18.1887 30.7467 18.0852 30.6229 17.9559C30.499 17.8266 30.4019 17.6742 30.337 17.5074C30.2721 17.3406 30.2408 17.1626 30.2448 16.9836V12.9586C30.2448 12.6271 30.1131 12.3091 29.8787 12.0747C29.6442 11.8403 29.3263 11.7086 28.9948 11.7086C28.6982 11.7125 28.413 11.8232 28.1914 12.0203C27.527 11.6045 26.762 11.3772 25.9783 11.3629C25.1946 11.3485 24.4217 11.5475 23.7425 11.9386C23.0632 12.3298 22.5031 12.8983 22.1221 13.5833C21.7412 14.2683 21.5537 15.044 21.5797 15.8274C21.6058 16.6108 21.8444 17.3724 22.27 18.0306C22.6957 18.6888 23.2923 19.2188 23.996 19.5639C24.6998 19.9091 25.4842 20.0563 26.2652 19.9899C27.0462 19.9235 27.7944 19.6459 28.4298 19.1869C28.7915 19.7041 29.2722 20.1268 29.8314 20.4195C30.3906 20.7121 31.012 20.8662 31.6431 20.8686C32.7179 20.8015 33.7239 20.3175 34.4471 19.5196C35.1703 18.7218 35.5534 17.6731 35.5148 16.5969C35.5148 16.5869 35.5148 16.5786 35.5148 16.5686V15.6836C35.5142 13.9391 35.0384 12.2277 34.1386 10.7332C33.2387 9.23873 31.9488 8.01757 30.4073 7.20088C28.8658 6.38419 27.1309 6.00282 25.389 6.09772C23.6471 6.19262 21.964 6.76021 20.5203 7.73954C19.0766 8.71886 17.927 10.0729 17.1948 11.6563C16.4627 13.2398 16.1757 14.9927 16.3646 16.7269C16.5535 18.4612 17.2113 20.1112 18.2672 21.4998C19.3232 22.8884 20.7374 23.9631 22.3581 24.6086H22.3614ZM25.9148 17.5069C25.5546 17.505 25.2031 17.3963 24.9045 17.1948C24.606 16.9932 24.3739 16.7078 24.2374 16.3745C24.1009 16.0411 24.0662 15.6748 24.1377 15.3218C24.2092 14.9688 24.3836 14.6448 24.639 14.3908C24.8944 14.1368 25.2193 13.9641 25.5727 13.8946C25.9261 13.8251 26.2922 13.8617 26.6248 14C26.9574 14.1383 27.2416 14.372 27.4415 14.6716C27.6414 14.9713 27.7481 15.3234 27.7481 15.6836C27.7479 15.9238 27.7002 16.1616 27.6079 16.3834C27.5156 16.6052 27.3804 16.8065 27.21 16.9759C27.0397 17.1453 26.8376 17.2794 26.6153 17.3706C26.3931 17.4617 26.155 17.508 25.9148 17.5069Z" fill="#020D19"/>
<path d="M50.2577 17.2636C50.08 16.7166 49.8013 16.2078 49.4361 15.7636L42.7294 7.70692V5.34359C42.7281 4.12842 42.2448 2.9634 41.3855 2.10414C40.5262 1.24489 39.3612 0.761577 38.1461 0.760254H13.6761C12.4609 0.761577 11.2959 1.24489 10.4366 2.10414C9.57736 2.9634 9.09405 4.12842 9.09272 5.34359V7.71692L2.39105 15.7653C1.7069 16.5891 1.33197 17.626 1.33105 18.6969V41.9803C1.3337 44.0791 2.16863 46.0912 3.65272 47.5753C5.13681 49.0593 7.1489 49.8943 9.24772 49.8969H42.5811C44.6359 49.8985 46.6098 49.0964 48.0811 47.6619L48.1027 47.6469C48.8617 46.9112 49.4651 46.0305 49.8771 45.057C50.2891 44.0836 50.5013 43.0373 50.5011 41.9803V18.6969C50.4967 18.2443 50.4248 17.7949 50.2877 17.3636C50.2777 17.3286 50.2677 17.2986 50.2577 17.2636ZM47.0261 45.0603L32.1111 32.1252L47.9977 20.0153V41.9803C47.9978 43.0823 47.6585 44.1577 47.0261 45.0603ZM47.4511 17.2869L42.7294 20.8853V11.6153L47.4511 17.2869ZM13.6761 3.26025H38.1461C38.6983 3.26114 39.2277 3.48091 39.6182 3.87142C40.0087 4.26193 40.2285 4.79132 40.2294 5.34359V22.7919L30.1811 30.4586L28.6544 29.1253C27.8897 28.4719 26.9169 28.1129 25.9111 28.1129C24.9052 28.1129 23.9324 28.4719 23.1677 29.1253L21.6511 30.4419L11.5927 22.7753V5.34359C11.5936 4.79132 11.8134 4.26193 12.2039 3.87142C12.5944 3.48091 13.1238 3.26114 13.6761 3.26025ZM4.80605 45.0653C4.17183 44.1615 3.83139 43.0843 3.83105 41.9803V20.0069L19.7211 32.1203L4.80605 45.0653ZM9.09272 20.8719L4.38272 17.2819L9.09272 11.6153V20.8719ZM25.9144 47.3969H9.24772C8.35594 47.3909 7.47986 47.1617 6.69939 46.7303L24.8027 31.0219C25.1119 30.7591 25.5044 30.6148 25.9102 30.6148C26.316 30.6148 26.7085 30.7591 27.0177 31.0219L45.1344 46.7303C44.3524 47.1624 43.4745 47.3916 42.5811 47.3969H25.9144Z" fill="#020D19"/>
</g>
<defs>
<clipPath id="clip0_184_2370">
<rect width="50" height="50" fill="white" transform="translate(0.914551 0.328613)"/>
</clipPath>
</defs>
</svg>
