<svg width="26" height="26" viewBox="0 0 26 26" fill="none" xmlns="http://www.w3.org/2000/svg">
<path d="M23.3378 3.5957C22.1262 3.5957 21.1405 4.58139 21.1405 5.79296V6.65138C20.9113 6.57008 20.6648 6.52539 20.4081 6.52539C19.1965 6.52539 18.2108 7.51107 18.2108 8.72265V11.046C17.9121 11.1511 17.6317 11.3225 17.3928 11.5603L15.097 13.8073C15.0951 13.8092 15.0931 13.811 15.0914 13.8129C14.2027 14.7015 13.5083 15.7408 13.0274 16.9018C13.0252 16.9072 13.0231 16.9125 13.021 16.918C12.5371 15.7731 11.8291 14.7121 10.9299 13.8129L8.68048 11.5635C8.44465 11.3277 8.16471 11.1523 7.85936 11.0446L7.85936 8.72265C7.85936 7.51107 6.87368 6.52539 5.6621 6.52539C5.40537 6.52539 5.15892 6.57008 4.92968 6.65138V5.79296C4.92968 4.58139 3.944 3.5957 2.73242 3.5957C1.52084 3.5957 0.535156 4.58139 0.535156 5.79296L0.535156 13.7705C0.535156 14.4341 0.715663 15.0855 1.05704 15.6547L3.52674 19.7709C4.46288 21.3311 4.97853 23.1474 4.97853 24.8848C4.97853 25.2892 5.30651 25.6172 5.71095 25.6172H13.0352H20.3594C20.7638 25.6172 21.0918 25.2892 21.0918 24.8848C21.0918 23.1474 21.6073 21.3312 22.5436 19.7709L25.0134 15.6547C25.3548 15.0857 25.5352 14.4341 25.5352 13.7705V5.79296C25.5349 4.58139 24.5492 3.5957 23.3378 3.5957ZM4.92956 8.72265C4.92956 8.31879 5.25813 7.99023 5.66199 7.99023C6.06584 7.99023 6.39441 8.31879 6.39441 8.72265L6.39441 11.0446C6.08906 11.1524 5.80912 11.3278 5.57329 11.5635C5.39174 11.7451 5.24877 11.9505 5.14414 12.1699C5.00579 12.0316 4.92956 11.8477 4.92956 11.652C4.92956 11.3416 4.92956 9.03319 4.92956 8.72265ZM12.3026 24.1522H6.41727C6.29266 22.3832 5.72331 20.5847 4.78278 19.0172L2.31308 14.901C2.10821 14.5596 2 14.1687 2 13.7705L2 5.79296C2 5.38911 2.32856 5.06054 2.73242 5.06054C3.13628 5.06054 3.46484 5.38911 3.46484 5.79296C3.46484 6.04461 3.46484 11.4157 3.46484 11.6521V11.6539C3.46484 11.6545 3.46495 11.6551 3.46495 11.6557C3.46588 12.2413 3.69431 12.7916 4.10845 13.2059L8.07394 17.1714C8.35988 17.4573 8.82368 17.4573 9.10974 17.1714C9.3958 16.8853 9.3958 16.4216 9.10974 16.1355L6.60921 13.635C6.32373 13.3495 6.32373 12.8849 6.60921 12.5994C6.89562 12.313 7.35838 12.313 7.64479 12.5994L9.89425 14.8489C11.4249 16.3796 12.3029 18.456 12.3029 20.5458V24.1522H12.3026ZM19.6757 8.72265C19.6757 8.31879 20.0042 7.99023 20.4081 7.99023C20.812 7.99023 21.1405 8.31879 21.1405 8.72265C21.1405 9.03262 21.1405 11.3416 21.1405 11.6521C21.1405 11.8477 21.0644 12.0317 20.9261 12.1701L20.9259 12.1702C20.8213 11.9507 20.6783 11.7452 20.4968 11.5638C20.2573 11.3242 19.9757 11.1517 19.6757 11.0461V8.72265ZM24.0702 13.7705C24.0702 14.1686 23.9619 14.5595 23.7571 14.901L21.2874 19.0172C20.3469 20.5848 19.7775 22.3833 19.6528 24.1522H13.7676V20.5455C13.7676 18.3947 14.6046 16.3728 16.1247 14.8513L18.4199 12.6048C18.4217 12.6029 18.4237 12.6011 18.4254 12.5992C18.711 12.3136 19.1755 12.3136 19.461 12.5992C19.7474 12.8856 19.7474 13.3484 19.461 13.6348L16.9605 16.1353C16.6744 16.4214 16.6744 16.8851 16.9605 17.1711C17.2464 17.4572 17.7102 17.4572 17.9963 17.1711L21.9617 13.2056C22.3758 12.7916 22.6041 12.2414 22.6052 11.656C22.6052 11.6554 22.6054 11.6548 22.6054 11.6541V11.652C22.6054 11.4187 22.6054 6.04611 22.6054 5.79285C22.6054 5.38899 22.9339 5.06043 23.3378 5.06043C23.7416 5.06043 24.0702 5.38899 24.0702 5.79285V13.7705Z" fill="white"/>
<path d="M15.5702 0.617188C14.5624 0.617188 13.6873 1.07867 13.0349 1.9528C12.3824 1.07867 11.5075 0.617188 10.4996 0.617188C8.60335 0.617188 7.23193 2.19059 7.23193 4.10179C7.23193 6.54561 9.53556 8.07501 12.5552 10.6922C12.6929 10.8115 12.8639 10.8712 13.0349 10.8712C13.206 10.8712 13.377 10.8115 13.5147 10.6922C16.5366 8.07316 18.8379 6.5448 18.8379 4.10179C18.8379 2.18932 17.4654 0.617188 15.5702 0.617188ZM13.0349 9.1726C10.3708 6.8975 8.69677 5.68662 8.69677 4.10167C8.69677 2.95026 9.47181 2.08191 10.4996 2.08191C11.8363 2.08191 12.3104 3.67702 12.33 3.74551C12.4189 4.06102 12.7064 4.28091 13.0345 4.28091C13.3636 4.28091 13.652 4.06287 13.7399 3.74562C13.7594 3.67772 14.2332 2.08203 15.5702 2.08203C16.5981 2.08203 17.3731 2.95026 17.3731 4.10179C17.3731 5.68731 15.6976 6.89866 13.0349 9.1726Z" fill="#020D19"/>
</svg>
