<svg width="94" height="93" viewBox="0 0 94 93" fill="none" xmlns="http://www.w3.org/2000/svg">
<path d="M85.0239 11.562C80.5524 11.562 76.9145 15.1999 76.9145 19.6714V22.8396C76.0684 22.5395 75.1588 22.3746 74.2113 22.3746C69.7398 22.3746 66.1019 26.0125 66.1019 30.484V39.0589C64.9992 39.4468 63.9643 40.0793 63.0829 40.9569L54.6095 49.2501C54.6027 49.2569 54.5954 49.2637 54.589 49.2705C51.3092 52.5504 48.7463 56.386 46.9714 60.6709C46.9633 60.6909 46.9557 60.7105 46.9476 60.7306C45.1617 56.5053 42.5489 52.5891 39.2303 49.2705L30.9282 40.9689C30.0578 40.0985 29.0246 39.4511 27.8977 39.0538V30.484C27.8977 26.0125 24.2598 22.3746 19.7882 22.3746C18.8407 22.3746 17.9312 22.5395 17.0851 22.8396V19.6714C17.0851 15.1999 13.4472 11.562 8.97565 11.562C4.50408 11.562 0.866211 15.1999 0.866211 19.6714V49.1141C0.866211 51.5632 1.53241 53.9676 2.79234 56.068L11.9073 71.2597C15.3623 77.0181 17.2654 83.7214 17.2654 90.1336C17.2654 91.6262 18.4759 92.8367 19.9685 92.8367H47H74.0315C75.5241 92.8367 76.7346 91.6262 76.7346 90.1336C76.7346 83.7214 78.6373 77.0185 82.0927 71.2597L91.2081 56.068C92.468 53.968 93.1338 51.5632 93.1338 49.1141V19.6714C93.1329 15.1999 89.4951 11.562 85.0239 11.562ZM17.0847 30.484C17.0847 28.9935 18.2973 27.7809 19.7878 27.7809C21.2783 27.7809 22.491 28.9935 22.491 30.484V39.0538C21.364 39.4515 20.3308 40.0989 19.4605 40.9689C18.7904 41.6389 18.2628 42.3972 17.8766 43.207C17.366 42.6964 17.0847 42.0178 17.0847 41.2954C17.0847 40.1496 17.0847 31.6302 17.0847 30.484ZM44.2964 87.43H22.5753C22.1154 80.901 20.0141 74.2633 16.5429 68.4781L7.42801 53.2865C6.67188 52.0265 6.27251 50.5837 6.27251 49.1141V19.6714C6.27251 18.1809 7.48513 16.9683 8.97565 16.9683C10.4662 16.9683 11.6788 18.1809 11.6788 19.6714C11.6788 20.6002 11.6788 40.4233 11.6788 41.2958V41.3026C11.6788 41.3047 11.6792 41.3069 11.6792 41.309C11.6826 43.4704 12.5257 45.5014 14.0542 47.0303L28.6896 61.6657C29.745 62.721 31.4567 62.721 32.5125 61.6657C33.5682 60.6099 33.5682 58.8986 32.5125 57.8429L23.2837 48.6141C22.2301 47.5605 22.2301 45.8458 23.2837 44.7921C24.3408 43.7351 26.0487 43.7351 27.1057 44.7921L35.4078 53.0942C41.0571 58.7435 44.2973 66.4071 44.2973 74.1197V87.43H44.2964ZM71.5082 30.484C71.5082 28.9935 72.7208 27.7809 74.2113 27.7809C75.7019 27.7809 76.9145 28.9935 76.9145 30.484C76.9145 31.628 76.9145 40.1496 76.9145 41.2958C76.9145 42.0178 76.6336 42.6968 76.123 43.2074L76.1225 43.2078C75.7364 42.398 75.2087 41.6393 74.5387 40.9697C73.6547 40.0857 72.6155 39.4489 71.5082 39.0594V30.484ZM87.7271 49.1141C87.7271 50.5833 87.3273 52.0261 86.5716 53.2865L77.4566 68.4781C73.9854 74.2638 71.8841 80.9014 71.4238 87.43H49.7031V74.1188C49.7031 66.1807 52.7925 58.7183 58.4025 53.1032L66.8734 44.8117C66.8802 44.8049 66.8874 44.7981 66.8938 44.7913C67.9479 43.7372 69.6622 43.7372 70.7158 44.7913C71.7729 45.8483 71.7729 47.5562 70.7158 48.6133L61.4871 57.842C60.4313 58.8978 60.4313 60.6091 61.4871 61.6649C62.5424 62.7206 64.2542 62.7206 65.31 61.6649L79.9454 47.0294C81.4734 45.5014 82.3161 43.4708 82.3203 41.3103C82.3203 41.3081 82.3208 41.3056 82.3208 41.303V41.2954C82.3208 40.4344 82.3208 20.6057 82.3208 19.671C82.3208 18.1805 83.5334 16.9679 85.0239 16.9679C86.5144 16.9679 87.7271 18.1805 87.7271 19.671V49.1141Z" fill="white"/>
<path d="M56.3552 0.569336C52.6355 0.569336 49.406 2.27255 46.9982 5.49868C44.59 2.27255 41.3609 0.569336 37.6412 0.569336C30.6425 0.569336 25.5811 6.37628 25.5811 13.43C25.5811 22.4494 34.083 28.0939 45.2277 37.7532C45.7357 38.1935 46.367 38.4138 46.9982 38.4138C47.6295 38.4138 48.2607 38.1935 48.7688 37.7532C59.9219 28.0871 68.4154 22.4464 68.4154 13.43C68.4154 6.37159 63.3497 0.569336 56.3552 0.569336ZM46.9982 32.1448C37.1655 23.7481 30.9873 19.2791 30.9873 13.4295C30.9873 9.18002 33.8478 5.9752 37.6412 5.9752C42.5744 5.9752 44.3241 11.8623 44.3965 12.115C44.7247 13.2795 45.7856 14.091 46.9965 14.091C48.2113 14.091 49.2756 13.2863 49.5999 12.1155C49.672 11.8648 51.4208 5.97563 56.3552 5.97563C60.1487 5.97563 63.0091 9.18002 63.0091 13.43C63.0091 19.2817 56.8254 23.7524 46.9982 32.1448Z" fill="#FF6D00"/>
</svg>
