<svg width="55" height="56" viewBox="0 0 55 56" fill="none" xmlns="http://www.w3.org/2000/svg">
<path d="M52.7721 54.2985H2.23152C2.0344 54.2985 1.84536 54.2202 1.70597 54.0808C1.56659 53.9414 1.48828 53.7524 1.48828 53.5553V23.8255C1.48828 23.6284 1.56659 23.4394 1.70597 23.3C1.84536 23.1606 2.0344 23.0823 2.23152 23.0823C2.42864 23.0823 2.61769 23.1606 2.75708 23.3C2.89646 23.4394 2.97477 23.6284 2.97477 23.8255V52.812H52.0288V23.8255C52.0288 23.6284 52.1071 23.4394 52.2465 23.3C52.3859 23.1606 52.5749 23.0823 52.7721 23.0823C52.9692 23.0823 53.1582 23.1606 53.2976 23.3C53.437 23.4394 53.5153 23.6284 53.5153 23.8255V53.5553C53.5153 53.7524 53.437 53.9414 53.2976 54.0808C53.1582 54.2202 52.9692 54.2985 52.7721 54.2985Z" fill="#020D19"/>
<path d="M36.8667 11.4728C36.6942 11.4729 36.5271 11.413 36.394 11.3034L27.5018 3.98093L18.6097 11.3034C18.5343 11.3654 18.4475 11.4121 18.3541 11.4406C18.2607 11.4691 18.1627 11.4789 18.0655 11.4696C17.9683 11.4602 17.874 11.4317 17.7878 11.3859C17.7016 11.34 17.6253 11.2776 17.5632 11.2023C17.5011 11.1269 17.4545 11.0401 17.426 10.9467C17.3975 10.8534 17.3876 10.7553 17.397 10.6581C17.4064 10.5609 17.4348 10.4666 17.4807 10.3804C17.5265 10.2942 17.5889 10.2179 17.6643 10.1558L27.0291 2.44093C27.1622 2.33123 27.3294 2.27124 27.5018 2.27124C27.6743 2.27124 27.8414 2.33123 27.9745 2.44093L37.3394 10.1558C37.4576 10.2531 37.5429 10.3846 37.5836 10.5323C37.6242 10.6799 37.6183 10.8365 37.5665 10.9807C37.5148 11.1248 37.4198 11.2494 37.2945 11.3375C37.1693 11.4256 37.0198 11.4729 36.8667 11.4728Z" fill="#020D19"/>
<path d="M52.7723 24.5688C52.5999 24.5689 52.4328 24.509 52.2996 24.3993L43.8415 17.4337C43.6893 17.3083 43.5932 17.1276 43.5742 16.9314C43.5553 16.7351 43.6151 16.5394 43.7404 16.3872C43.8658 16.235 44.0465 16.1389 44.2428 16.1199C44.439 16.1009 44.6348 16.1607 44.7869 16.2861L53.245 23.2503C53.3638 23.3475 53.4496 23.4791 53.4907 23.627C53.5317 23.7749 53.5259 23.9319 53.4741 24.0764C53.4223 24.2209 53.327 24.3458 53.2013 24.434C53.0757 24.5221 52.9258 24.5692 52.7723 24.5688Z" fill="#020D19"/>
<path d="M2.23181 24.5688C2.07866 24.5689 1.92924 24.5216 1.80397 24.4335C1.67871 24.3454 1.58371 24.2208 1.53198 24.0766C1.48024 23.9325 1.47429 23.7759 1.51495 23.6283C1.5556 23.4806 1.64088 23.3491 1.7591 23.2518L10.2172 16.2876C10.37 16.1697 10.5625 16.1159 10.7543 16.1375C10.946 16.159 11.1218 16.2543 11.2446 16.4031C11.3673 16.5519 11.4274 16.7427 11.4121 16.935C11.3968 17.1273 11.3074 17.3061 11.1626 17.4337L2.70451 24.3979C2.57158 24.508 2.40444 24.5685 2.23181 24.5688Z" fill="#020D19"/>
<path d="M27.5021 41.4403C25.2652 41.4429 23.0898 40.7084 21.3124 39.3503L1.78068 24.4156C1.63149 24.2934 1.53561 24.1181 1.5133 23.9265C1.49098 23.735 1.54397 23.5423 1.66108 23.3891C1.77819 23.2359 1.95025 23.1343 2.14093 23.1056C2.3316 23.0769 2.52597 23.1234 2.68298 23.2353L22.2154 38.1745C23.7345 39.3327 25.5919 39.9599 27.5021 39.9599C29.4123 39.9599 31.2697 39.3327 32.7888 38.1745L52.3212 23.2353C52.3983 23.1722 52.4874 23.1252 52.5831 23.0971C52.6787 23.0691 52.7791 23.0606 52.8781 23.0721C52.9771 23.0837 53.0728 23.115 53.1595 23.1643C53.2461 23.2136 53.322 23.2798 53.3825 23.359C53.4431 23.4382 53.4871 23.5288 53.5119 23.6253C53.5367 23.7219 53.5419 23.8224 53.527 23.921C53.5122 24.0196 53.4777 24.1142 53.4255 24.1991C53.3734 24.2841 53.3047 24.3577 53.2235 24.4156L33.6918 39.3548C31.9138 40.7112 29.7385 41.4442 27.5021 41.4403Z" fill="#020D19"/>
<path d="M52.7724 54.2983H2.23182C2.07651 54.2982 1.92516 54.2494 1.799 54.1588C1.67285 54.0682 1.57824 53.9404 1.52847 53.7933C1.47869 53.6462 1.47625 53.4871 1.52148 53.3386C1.56672 53.19 1.65736 53.0593 1.78067 52.9649L21.2157 38.1001C21.293 38.0381 21.3819 37.9923 21.4771 37.9652C21.5723 37.9381 21.672 37.9303 21.7703 37.9422C21.8686 37.9542 21.9635 37.9856 22.0494 38.0348C22.1354 38.0839 22.2107 38.1497 22.2708 38.2284C22.331 38.307 22.3749 38.3969 22.3998 38.4927C22.4248 38.5885 22.4303 38.6884 22.4162 38.7863C22.402 38.8843 22.3684 38.9785 22.3173 39.0633C22.2663 39.1482 22.1987 39.2219 22.1188 39.2803L4.42736 52.8118H50.5768L32.8876 39.2803C32.8077 39.2219 32.7402 39.1482 32.6891 39.0633C32.638 38.9785 32.6044 38.8843 32.5903 38.7863C32.5761 38.6884 32.5816 38.5885 32.6066 38.4927C32.6315 38.3969 32.6754 38.307 32.7356 38.2284C32.7957 38.1497 32.871 38.0839 32.957 38.0348C33.0429 37.9856 33.1378 37.9542 33.2361 37.9422C33.3344 37.9303 33.4341 37.9381 33.5293 37.9652C33.6246 37.9923 33.7134 38.0381 33.7907 38.1001L53.2257 52.9649C53.3492 53.0594 53.4399 53.1903 53.4851 53.3391C53.5303 53.4879 53.5276 53.6471 53.4776 53.7943C53.4275 53.9415 53.3326 54.0694 53.2061 54.1598C53.0795 54.2502 52.9279 54.2986 52.7724 54.2983Z" fill="#020D19"/>
<path d="M44.3143 31.035C44.1172 31.035 43.9282 30.9567 43.7888 30.8173C43.6494 30.6779 43.5711 30.4889 43.5711 30.2917V11.4728H11.4333V30.2917C11.4333 30.4889 11.355 30.6779 11.2156 30.8173C11.0762 30.9567 10.8871 31.035 10.69 31.035C10.4929 31.035 10.3039 30.9567 10.1645 30.8173C10.0251 30.6779 9.94678 30.4889 9.94678 30.2917V10.7296C9.94678 10.5325 10.0251 10.3434 10.1645 10.204C10.3039 10.0646 10.4929 9.98633 10.69 9.98633H44.3143C44.5115 9.98633 44.7005 10.0646 44.8399 10.204C44.9793 10.3434 45.0576 10.5325 45.0576 10.7296V30.2917C45.0576 30.4889 44.9793 30.6779 44.8399 30.8173C44.7005 30.9567 44.5115 31.035 44.3143 31.035Z" fill="#020D19"/>
<path d="M27.5018 23.6872C26.9834 23.6873 26.4766 23.5337 26.0455 23.2458C25.6145 22.9579 25.2784 22.5486 25.08 22.0697C24.8816 21.5908 24.8296 21.0638 24.9307 20.5554C25.0318 20.047 25.2814 19.5799 25.6479 19.2134C26.0145 18.8468 26.4815 18.5972 26.99 18.4961C27.4984 18.395 28.0254 18.447 28.5043 18.6454C28.9832 18.8439 29.3925 19.1799 29.6804 19.611C29.9683 20.0421 30.1219 20.5488 30.1217 21.0672C30.1217 21.2643 30.0434 21.4534 29.904 21.5928C29.7646 21.7322 29.5756 21.8105 29.3785 21.8105C29.1814 21.8105 28.9923 21.7322 28.8529 21.5928C28.7135 21.4534 28.6352 21.2643 28.6352 21.0672C28.6352 20.843 28.5688 20.6239 28.4442 20.4375C28.3197 20.2511 28.1427 20.1058 27.9355 20.0201C27.7284 19.9343 27.5005 19.9118 27.2807 19.9556C27.0608 19.9993 26.8588 20.1072 26.7003 20.2658C26.5418 20.4243 26.4339 20.6262 26.3901 20.8461C26.3464 21.066 26.3688 21.2939 26.4546 21.501C26.5404 21.7081 26.6857 21.8851 26.8721 22.0096C27.0585 22.1342 27.2776 22.2007 27.5018 22.2007C27.6989 22.2007 27.888 22.279 28.0273 22.4184C28.1667 22.5577 28.245 22.7468 28.245 22.9439C28.245 23.141 28.1667 23.3301 28.0273 23.4695C27.888 23.6088 27.6989 23.6872 27.5018 23.6872Z" fill="#020D19"/>
<path d="M27.5018 27.4413C26.807 27.4405 26.141 27.1641 25.6498 26.6728C25.1586 26.1815 24.8824 25.5154 24.8818 24.8206C24.8818 24.6235 24.9601 24.4344 25.0995 24.2951C25.2389 24.1557 25.428 24.0774 25.6251 24.0774C25.8222 24.0774 26.0112 24.1557 26.1506 24.2951C26.29 24.4344 26.3683 24.6235 26.3683 24.8206C26.3683 25.0448 26.4348 25.2639 26.5593 25.4503C26.6839 25.6367 26.8609 25.782 27.068 25.8678C27.2751 25.9536 27.503 25.976 27.7229 25.9323C27.9428 25.8885 28.1447 25.7806 28.3032 25.6221C28.4618 25.4636 28.5697 25.2616 28.6134 25.0417C28.6572 24.8219 28.6347 24.594 28.5489 24.3869C28.4631 24.1798 28.3179 24.0027 28.1315 23.8782C27.9451 23.7536 27.7259 23.6872 27.5018 23.6872C27.3046 23.6872 27.1156 23.6089 26.9762 23.4695C26.8368 23.3301 26.7585 23.141 26.7585 22.9439C26.7585 22.7468 26.8368 22.5578 26.9762 22.4184C27.1156 22.279 27.3046 22.2007 27.5018 22.2007C28.1891 22.2123 28.8443 22.4934 29.3263 22.9836C29.8082 23.4737 30.0783 24.1336 30.0783 24.821C30.0783 25.5084 29.8082 26.1683 29.3263 26.6584C28.8443 27.1486 28.1891 27.4297 27.5018 27.4413Z" fill="#020D19"/>
<path d="M27.502 28.2462C27.3049 28.2462 27.1159 28.1679 26.9765 28.0285C26.8371 27.8891 26.7588 27.7001 26.7588 27.503V26.7003C26.7588 26.5032 26.8371 26.3141 26.9765 26.1747C27.1159 26.0353 27.3049 25.957 27.502 25.957C27.6992 25.957 27.8882 26.0353 28.0276 26.1747C28.167 26.3141 28.2453 26.5032 28.2453 26.7003V27.503C28.2453 27.7001 28.167 27.8891 28.0276 28.0285C27.8882 28.1679 27.6992 28.2462 27.502 28.2462Z" fill="#020D19"/>
<path d="M27.502 19.9354C27.3049 19.9354 27.1159 19.8571 26.9765 19.7177C26.8371 19.5784 26.7588 19.3893 26.7588 19.1922V18.3895C26.7588 18.1924 26.8371 18.0033 26.9765 17.8639C27.1159 17.7245 27.3049 17.6462 27.502 17.6462C27.6992 17.6462 27.8882 17.7245 28.0276 17.8639C28.167 18.0033 28.2453 18.1924 28.2453 18.3895V19.1922C28.2453 19.3893 28.167 19.5784 28.0276 19.7177C27.8882 19.8571 27.6992 19.9354 27.502 19.9354Z" fill="#020D19"/>
<path d="M27.5018 30.9806C25.9121 30.9806 24.3581 30.5092 23.0364 29.626C21.7146 28.7428 20.6844 27.4875 20.0761 26.0188C19.4678 24.5501 19.3087 22.934 19.6189 21.3749C19.929 19.8158 20.6946 18.3836 21.8187 17.2596C22.9429 16.1356 24.3751 15.3702 25.9342 15.0601C27.4934 14.7501 29.1095 14.9093 30.5781 15.5178C32.0467 16.1262 33.302 17.1565 34.185 18.4784C35.0681 19.8002 35.5394 21.3543 35.5392 22.9439C35.5367 25.0747 34.689 27.1175 33.1822 28.6242C31.6755 30.1308 29.6326 30.9783 27.5018 30.9806ZM27.5018 16.393C26.2061 16.393 24.9396 16.7772 23.8623 17.497C22.785 18.2169 21.9453 19.24 21.4495 20.437C20.9537 21.634 20.8239 22.9512 21.0767 24.222C21.3295 25.4927 21.9534 26.66 22.8696 27.5762C23.7857 28.4923 24.953 29.1162 26.2238 29.369C27.4945 29.6218 28.8117 29.4921 30.0087 28.9962C31.2058 28.5004 32.2289 27.6607 32.9487 26.5835C33.6685 25.5062 34.0527 24.2396 34.0527 22.9439C34.0508 21.2071 33.36 19.542 32.1318 18.3139C30.9037 17.0858 29.2386 16.395 27.5018 16.393Z" fill="#020D19"/>
</svg>
