<svg width="55" height="56" viewBox="0 0 55 56" fill="none" xmlns="http://www.w3.org/2000/svg">
<path d="M52.7726 54.2985H2.23201C2.03489 54.2985 1.84585 54.2202 1.70646 54.0808C1.56708 53.9414 1.48877 53.7524 1.48877 53.5553V23.8255C1.48877 23.6284 1.56708 23.4394 1.70646 23.3C1.84585 23.1606 2.03489 23.0823 2.23201 23.0823C2.42913 23.0823 2.61818 23.1606 2.75757 23.3C2.89695 23.4394 2.97526 23.6284 2.97526 23.8255V52.812H52.0293V23.8255C52.0293 23.6284 52.1076 23.4394 52.247 23.3C52.3864 23.1606 52.5754 23.0823 52.7726 23.0823C52.9697 23.0823 53.1587 23.1606 53.2981 23.3C53.4375 23.4394 53.5158 23.6284 53.5158 23.8255V53.5553C53.5158 53.7524 53.4375 53.9414 53.2981 54.0808C53.1587 54.2202 52.9697 54.2985 52.7726 54.2985Z" fill="#020D19"/>
<path d="M36.8672 11.4728C36.6947 11.4729 36.5276 11.413 36.3945 11.3034L27.5023 3.98093L18.6102 11.3034C18.5348 11.3654 18.448 11.4121 18.3546 11.4406C18.2612 11.4691 18.1632 11.4789 18.066 11.4696C17.9688 11.4602 17.8744 11.4317 17.7883 11.3859C17.7021 11.34 17.6258 11.2776 17.5637 11.2023C17.5016 11.1269 17.455 11.0401 17.4265 10.9467C17.3979 10.8534 17.3881 10.7553 17.3975 10.6581C17.4069 10.5609 17.4353 10.4666 17.4812 10.3804C17.527 10.2942 17.5894 10.2179 17.6648 10.1558L27.0296 2.44093C27.1627 2.33123 27.3298 2.27124 27.5023 2.27124C27.6748 2.27124 27.8419 2.33123 27.975 2.44093L37.3399 10.1558C37.4581 10.2531 37.5434 10.3846 37.584 10.5323C37.6247 10.6799 37.6188 10.8365 37.567 10.9807C37.5153 11.1248 37.4203 11.2494 37.295 11.3375C37.1698 11.4256 37.0203 11.4729 36.8672 11.4728Z" fill="#020D19"/>
<path d="M52.7723 24.5688C52.5999 24.5689 52.4328 24.509 52.2996 24.3993L43.8415 17.4337C43.6893 17.3083 43.5932 17.1276 43.5742 16.9314C43.5553 16.7351 43.6151 16.5394 43.7404 16.3872C43.8658 16.235 44.0465 16.1389 44.2428 16.1199C44.439 16.1009 44.6348 16.1607 44.7869 16.2861L53.245 23.2503C53.3638 23.3475 53.4496 23.4791 53.4907 23.627C53.5317 23.7749 53.5259 23.9319 53.4741 24.0764C53.4223 24.2209 53.327 24.3458 53.2013 24.434C53.0757 24.5221 52.9258 24.5692 52.7723 24.5688Z" fill="#020D19"/>
<path d="M2.23181 24.5688C2.07866 24.5689 1.92924 24.5216 1.80397 24.4335C1.67871 24.3454 1.58371 24.2208 1.53198 24.0766C1.48024 23.9325 1.47429 23.7759 1.51495 23.6283C1.5556 23.4806 1.64088 23.3491 1.7591 23.2518L10.2172 16.2876C10.37 16.1697 10.5625 16.1159 10.7543 16.1375C10.946 16.159 11.1218 16.2543 11.2446 16.4031C11.3673 16.5519 11.4274 16.7427 11.4121 16.935C11.3968 17.1273 11.3074 17.3061 11.1626 17.4337L2.70451 24.3979C2.57158 24.508 2.40444 24.5685 2.23181 24.5688Z" fill="#020D19"/>
<path d="M27.5021 41.4403C25.2652 41.4429 23.0898 40.7084 21.3124 39.3503L1.78068 24.4156C1.63149 24.2934 1.53561 24.1181 1.5133 23.9265C1.49098 23.735 1.54397 23.5423 1.66108 23.3891C1.77819 23.2359 1.95025 23.1343 2.14093 23.1056C2.3316 23.0769 2.52597 23.1234 2.68298 23.2353L22.2154 38.1745C23.7345 39.3327 25.5919 39.9599 27.5021 39.9599C29.4123 39.9599 31.2697 39.3327 32.7888 38.1745L52.3212 23.2353C52.3983 23.1722 52.4874 23.1252 52.5831 23.0971C52.6787 23.0691 52.7791 23.0606 52.8781 23.0721C52.9771 23.0837 53.0728 23.115 53.1595 23.1643C53.2461 23.2136 53.322 23.2798 53.3825 23.359C53.4431 23.4382 53.4871 23.5288 53.5119 23.6253C53.5367 23.7219 53.5419 23.8224 53.527 23.921C53.5122 24.0196 53.4777 24.1142 53.4255 24.1991C53.3734 24.2841 53.3047 24.3577 53.2235 24.4156L33.6918 39.3548C31.9138 40.7112 29.7385 41.4442 27.5021 41.4403Z" fill="#020D19"/>
<path d="M52.7724 54.2983H2.23182C2.07651 54.2982 1.92516 54.2494 1.799 54.1588C1.67285 54.0682 1.57824 53.9404 1.52847 53.7933C1.47869 53.6462 1.47625 53.4871 1.52148 53.3386C1.56672 53.19 1.65736 53.0593 1.78067 52.9649L21.2157 38.1001C21.293 38.0381 21.3819 37.9923 21.4771 37.9652C21.5723 37.9381 21.672 37.9303 21.7703 37.9422C21.8686 37.9542 21.9635 37.9856 22.0494 38.0348C22.1354 38.0839 22.2107 38.1497 22.2708 38.2284C22.331 38.307 22.3749 38.3969 22.3998 38.4927C22.4248 38.5885 22.4303 38.6884 22.4162 38.7863C22.402 38.8843 22.3684 38.9785 22.3173 39.0633C22.2663 39.1482 22.1987 39.2219 22.1188 39.2803L4.42736 52.8118H50.5768L32.8876 39.2803C32.8077 39.2219 32.7402 39.1482 32.6891 39.0633C32.638 38.9785 32.6044 38.8843 32.5903 38.7863C32.5761 38.6884 32.5816 38.5885 32.6066 38.4927C32.6315 38.3969 32.6754 38.307 32.7356 38.2284C32.7957 38.1497 32.871 38.0839 32.957 38.0348C33.0429 37.9856 33.1378 37.9542 33.2361 37.9422C33.3344 37.9303 33.4341 37.9381 33.5293 37.9652C33.6246 37.9923 33.7134 38.0381 33.7907 38.1001L53.2257 52.9649C53.3492 53.0594 53.4399 53.1903 53.4851 53.3391C53.5303 53.4879 53.5276 53.6471 53.4776 53.7943C53.4275 53.9415 53.3326 54.0694 53.2061 54.1598C53.0795 54.2502 52.9279 54.2986 52.7724 54.2983Z" fill="#020D19"/>
<path d="M44.3143 31.035C44.1172 31.035 43.9282 30.9567 43.7888 30.8173C43.6494 30.6779 43.5711 30.4889 43.5711 30.2917V11.4728H11.4333V30.2917C11.4333 30.4889 11.355 30.6779 11.2156 30.8173C11.0762 30.9567 10.8871 31.035 10.69 31.035C10.4929 31.035 10.3039 30.9567 10.1645 30.8173C10.0251 30.6779 9.94678 30.4889 9.94678 30.2917V10.7296C9.94678 10.5325 10.0251 10.3434 10.1645 10.204C10.3039 10.0646 10.4929 9.98633 10.69 9.98633H44.3143C44.5115 9.98633 44.7005 10.0646 44.8399 10.204C44.9793 10.3434 45.0576 10.5325 45.0576 10.7296V30.2917C45.0576 30.4889 44.9793 30.6779 44.8399 30.8173C44.7005 30.9567 44.5115 31.035 44.3143 31.035Z" fill="#020D19"/>
<path d="M27.5023 23.6872C26.9839 23.6873 26.4771 23.5337 26.046 23.2458C25.6149 22.9579 25.2789 22.5486 25.0805 22.0697C24.882 21.5908 24.8301 21.0638 24.9312 20.5554C25.0323 20.047 25.2819 19.5799 25.6484 19.2134C26.015 18.8468 26.482 18.5972 26.9904 18.4961C27.4989 18.395 28.0259 18.447 28.5048 18.6454C28.9837 18.8439 29.393 19.1799 29.6809 19.611C29.9688 20.0421 30.1224 20.5488 30.1222 21.0672C30.1222 21.2643 30.0439 21.4534 29.9045 21.5928C29.7651 21.7322 29.5761 21.8105 29.379 21.8105C29.1818 21.8105 28.9928 21.7322 28.8534 21.5928C28.714 21.4534 28.6357 21.2643 28.6357 21.0672C28.6357 20.843 28.5692 20.6239 28.4447 20.4375C28.3202 20.2511 28.1431 20.1058 27.936 20.0201C27.7289 19.9343 27.501 19.9118 27.2812 19.9556C27.0613 19.9993 26.8593 20.1072 26.7008 20.2658C26.5423 20.4243 26.4343 20.6262 26.3906 20.8461C26.3469 21.066 26.3693 21.2939 26.4551 21.501C26.5409 21.7081 26.6862 21.8851 26.8726 22.0096C27.059 22.1342 27.2781 22.2007 27.5023 22.2007C27.6994 22.2007 27.8884 22.279 28.0278 22.4184C28.1672 22.5577 28.2455 22.7468 28.2455 22.9439C28.2455 23.141 28.1672 23.3301 28.0278 23.4695C27.8884 23.6088 27.6994 23.6872 27.5023 23.6872Z" fill="#020D19"/>
<path d="M27.5023 27.4413C26.8075 27.4405 26.1415 27.1641 25.6503 26.6728C25.1591 26.1815 24.8829 25.5154 24.8823 24.8206C24.8823 24.6235 24.9606 24.4344 25.1 24.2951C25.2394 24.1557 25.4284 24.0774 25.6256 24.0774C25.8227 24.0774 26.0117 24.1557 26.1511 24.2951C26.2905 24.4344 26.3688 24.6235 26.3688 24.8206C26.3688 25.0448 26.4353 25.2639 26.5598 25.4503C26.6844 25.6367 26.8614 25.782 27.0685 25.8678C27.2756 25.9536 27.5035 25.976 27.7234 25.9323C27.9432 25.8885 28.1452 25.7806 28.3037 25.6221C28.4622 25.4636 28.5702 25.2616 28.6139 25.0417C28.6577 24.8219 28.6352 24.594 28.5494 24.3869C28.4636 24.1798 28.3184 24.0027 28.132 23.8782C27.9456 23.7536 27.7264 23.6872 27.5023 23.6872C27.3051 23.6872 27.1161 23.6089 26.9767 23.4695C26.8373 23.3301 26.759 23.141 26.759 22.9439C26.759 22.7468 26.8373 22.5578 26.9767 22.4184C27.1161 22.279 27.3051 22.2007 27.5023 22.2007C28.1896 22.2123 28.8448 22.4934 29.3268 22.9836C29.8087 23.4737 30.0788 24.1336 30.0788 24.821C30.0788 25.5084 29.8087 26.1683 29.3268 26.6584C28.8448 27.1486 28.1896 27.4297 27.5023 27.4413Z" fill="#020D19"/>
<path d="M27.5023 28.2462C27.3052 28.2462 27.1161 28.1679 26.9767 28.0285C26.8373 27.8891 26.759 27.7001 26.759 27.503V26.7003C26.759 26.5032 26.8373 26.3141 26.9767 26.1747C27.1161 26.0353 27.3052 25.957 27.5023 25.957C27.6994 25.957 27.8884 26.0353 28.0278 26.1747C28.1672 26.3141 28.2455 26.5032 28.2455 26.7003V27.503C28.2455 27.7001 28.1672 27.8891 28.0278 28.0285C27.8884 28.1679 27.6994 28.2462 27.5023 28.2462Z" fill="#020D19"/>
<path d="M27.5023 19.9354C27.3052 19.9354 27.1161 19.8571 26.9767 19.7177C26.8373 19.5784 26.759 19.3893 26.759 19.1922V18.3895C26.759 18.1924 26.8373 18.0033 26.9767 17.8639C27.1161 17.7245 27.3052 17.6462 27.5023 17.6462C27.6994 17.6462 27.8884 17.7245 28.0278 17.8639C28.1672 18.0033 28.2455 18.1924 28.2455 18.3895V19.1922C28.2455 19.3893 28.1672 19.5784 28.0278 19.7177C27.8884 19.8571 27.6994 19.9354 27.5023 19.9354Z" fill="#020D19"/>
<path d="M27.5023 30.9806C25.9126 30.9806 24.3586 30.5092 23.0368 29.626C21.7151 28.7428 20.6849 27.4875 20.0766 26.0188C19.4683 24.5501 19.3092 22.934 19.6193 21.3749C19.9295 19.8158 20.6951 18.3836 21.8192 17.2596C22.9433 16.1356 24.3756 15.3702 25.9347 15.0601C27.4939 14.7501 29.11 14.9093 30.5786 15.5178C32.0472 16.1262 33.3024 17.1565 34.1855 18.4784C35.0686 19.8002 35.5399 21.3543 35.5397 22.9439C35.5372 25.0747 34.6895 27.1175 33.1827 28.6242C31.676 30.1308 29.6331 30.9783 27.5023 30.9806ZM27.5023 16.393C26.2066 16.393 24.9401 16.7772 23.8628 17.497C22.7855 18.2169 21.9458 19.24 21.45 20.437C20.9542 21.634 20.8244 22.9512 21.0772 24.222C21.33 25.4927 21.9539 26.66 22.8701 27.5762C23.7862 28.4923 24.9535 29.1162 26.2243 29.369C27.495 29.6218 28.8122 29.4921 30.0092 28.9962C31.2062 28.5004 32.2294 27.6607 32.9492 26.5835C33.669 25.5062 34.0532 24.2396 34.0532 22.9439C34.0513 21.2071 33.3604 19.542 32.1323 18.3139C30.9042 17.0858 29.2391 16.395 27.5023 16.393Z" fill="#020D19"/>
</svg>
