<svg width="51" height="51" viewBox="0 0 51 51" fill="none" xmlns="http://www.w3.org/2000/svg">
<g clip-path="url(#clip0_184_2359)">
<path d="M40.4301 31.7393C39.4065 30.6735 38.1718 30.1036 36.8632 30.1036C35.5652 30.1036 34.32 30.6629 33.2541 31.7288L29.9194 35.0529C29.6451 34.9052 29.3707 34.768 29.1069 34.6308C28.727 34.4408 28.3682 34.2614 28.0621 34.0715C24.9385 32.0876 22.0998 29.5021 19.3772 26.1569C18.0581 24.4895 17.1716 23.086 16.5279 21.6614C17.3932 20.8699 18.1952 20.0468 18.9762 19.2553C19.2716 18.9598 19.5671 18.6538 19.8626 18.3583C22.0787 16.1422 22.0787 13.2718 19.8626 11.0557L16.9817 8.17482C16.6545 7.84768 16.3168 7.50999 16.0002 7.1723C15.3671 6.51802 14.7022 5.84264 14.0163 5.20947C12.9927 4.1964 11.7686 3.6582 10.4811 3.6582C9.19367 3.6582 7.94843 4.1964 6.89315 5.20947C6.88259 5.22002 6.88259 5.22002 6.87204 5.23058L3.28407 8.8502C1.93331 10.201 1.16295 11.8472 0.994107 13.7573C0.740839 16.8387 1.64838 19.7091 2.34487 21.5875C4.05443 26.1991 6.60822 30.473 10.4178 35.0529C15.0399 40.572 20.6013 44.9304 26.9541 48.0012C29.3813 49.1515 32.621 50.5128 36.2406 50.745C36.4622 50.7555 36.6944 50.7661 36.9054 50.7661C39.3431 50.7661 41.3904 49.8902 42.9944 48.149C43.005 48.1279 43.0261 48.1173 43.0366 48.0962C43.5854 47.4314 44.2185 46.8299 44.8834 46.1862C45.3372 45.7535 45.8015 45.2997 46.2552 44.8248C47.3 43.7379 47.8487 42.4716 47.8487 41.1736C47.8487 39.865 47.2894 38.6092 46.2236 37.5539L40.4301 31.7393ZM44.208 42.8515C44.1974 42.8515 44.1974 42.862 44.208 42.8515C43.7964 43.2947 43.3743 43.6957 42.9205 44.1389C42.2346 44.7932 41.5381 45.4791 40.8839 46.2495C39.818 47.3892 38.5622 47.9274 36.916 47.9274C36.7577 47.9274 36.5888 47.9274 36.4305 47.9168C33.2964 47.7163 30.3838 46.4922 28.1993 45.4475C22.2264 42.556 16.9817 38.4509 12.6233 33.2484C9.02482 28.9112 6.61877 24.9011 5.02529 20.5955C4.04388 17.9679 3.68508 15.9206 3.84337 13.9894C3.9489 12.7548 4.42378 11.7311 5.29967 10.8552L8.89819 7.25672C9.41527 6.77129 9.96402 6.50747 10.5022 6.50747C11.167 6.50747 11.7052 6.90848 12.0429 7.24617C12.0535 7.25672 12.064 7.26728 12.0746 7.27783C12.7183 7.87934 13.3304 8.50196 13.9741 9.16679C14.3012 9.50448 14.6389 9.84217 14.9766 10.1904L17.8575 13.0713C18.9762 14.1899 18.9762 15.2241 17.8575 16.3427C17.5515 16.6488 17.256 16.9548 16.95 17.2503C16.0636 18.1578 15.2193 19.002 14.3012 19.8252C14.2801 19.8463 14.259 19.8568 14.2485 19.8779C13.3409 20.7855 13.5098 21.6719 13.6997 22.2734C13.7103 22.3051 13.7208 22.3367 13.7314 22.3684C14.4806 24.1835 15.5359 25.893 17.14 27.9297L17.1505 27.9403C20.0631 31.5283 23.134 34.3248 26.5214 36.467C26.9541 36.7414 27.3973 36.963 27.8194 37.174C28.1993 37.364 28.5581 37.5434 28.8642 37.7333C28.9064 37.7544 28.9486 37.7861 28.9908 37.8072C29.3496 37.9866 29.6873 38.071 30.0355 38.071C30.9114 38.071 31.4602 37.5223 31.6396 37.3429L35.2486 33.7338C35.6074 33.375 36.1773 32.9423 36.8421 32.9423C37.4964 32.9423 38.0346 33.3539 38.3617 33.7127C38.3723 33.7232 38.3723 33.7233 38.3828 33.7338L44.1974 39.5484C45.2844 40.6248 45.2844 41.7329 44.208 42.8515Z" fill="#020D19"/>
<path d="M27.9354 12.6596C30.7002 13.124 33.2118 14.4325 35.2168 16.4375C37.2219 18.4426 38.5198 20.9542 38.9947 23.719C39.1108 24.4155 39.7123 24.9009 40.3983 24.9009C40.4827 24.9009 40.5566 24.8904 40.641 24.8798C41.4219 24.7532 41.939 24.0145 41.8123 23.2336C41.2425 19.8883 39.6596 16.8386 37.243 14.4219C34.8264 12.0053 31.7766 10.4224 28.4313 9.85257C27.6504 9.72593 26.9223 10.243 26.7851 11.0134C26.6479 11.7837 27.1544 12.533 27.9354 12.6596Z" fill="#020D19"/>
<path d="M50.8561 22.8222C49.9169 17.3136 47.3209 12.301 43.3319 8.31201C39.3429 4.32304 34.3303 1.72704 28.8217 0.787833C28.0514 0.650646 27.3232 1.17829 27.1861 1.94865C27.0594 2.72956 27.5765 3.4577 28.3574 3.59489C33.275 4.42856 37.76 6.76074 41.3269 10.317C44.8937 13.8839 47.2153 18.3689 48.049 23.2865C48.1651 23.983 48.7666 24.4684 49.4525 24.4684C49.537 24.4684 49.6108 24.4579 49.6953 24.4473C50.4656 24.3312 50.9933 23.5925 50.8561 22.8222Z" fill="#020D19"/>
</g>
<defs>
<clipPath id="clip0_184_2359">
<rect width="50" height="50" fill="white" transform="translate(0.914551 0.766113)"/>
</clipPath>
</defs>
</svg>
