<svg width="56" height="56" viewBox="0 0 56 56" fill="none" xmlns="http://www.w3.org/2000/svg">
<path fill-rule="evenodd" clip-rule="evenodd" d="M14.0345 27.4316C13.8956 27.4316 13.754 27.3958 13.6248 27.3188C12.203 26.4636 11.3244 25.4021 11.015 24.1646C10.9256 23.8043 10.9133 23.3588 10.8858 22.4788C10.8596 21.5878 10.872 20.9746 10.8789 20.5222C10.8926 19.8196 10.8926 19.6216 10.7826 19.3535C10.6534 19.0661 9.63725 17.7956 8.51938 16.5883C8.22238 16.268 8.24163 15.7661 8.562 15.4691C8.88238 15.1721 9.38425 15.1913 9.68125 15.5117C9.77338 15.6107 11.9225 17.94 12.2525 18.7622C12.4835 19.3397 12.4766 19.7715 12.4601 20.5511C12.4533 20.9828 12.4409 21.581 12.4629 22.4321C12.4821 23.1017 12.4959 23.5843 12.5454 23.7782C12.7503 24.5936 13.3841 25.3265 14.4333 25.959C14.81 26.1831 14.9283 26.6712 14.7041 27.0452C14.5653 27.2927 14.3013 27.4316 14.0345 27.4316Z" fill="#020D19"/>
<path fill-rule="evenodd" clip-rule="evenodd" d="M24.9647 13.5703C24.7832 13.5703 24.6045 13.5111 24.456 13.386C23.169 12.3039 21.9177 12.0729 21.0927 11.9175C20.8122 11.8653 20.5675 11.8213 20.364 11.7498C19.4991 11.45 18.8652 11.1558 16.8591 9.01351C16.5594 8.69313 16.5759 8.19126 16.8949 7.89426C17.2152 7.59451 17.7171 7.61101 18.0141 7.93001C19.8594 9.89351 20.2884 10.0448 20.8851 10.2538C20.9772 10.2868 21.1725 10.3225 21.3801 10.3596C22.311 10.5315 23.8647 10.8189 25.4749 12.1719C25.8076 12.4524 25.8516 12.9543 25.5711 13.287C25.413 13.4754 25.1888 13.5703 24.9647 13.5703Z" fill="#020D19"/>
<path fill-rule="evenodd" clip-rule="evenodd" d="M7.23037 18.5477C7.21662 18.5477 7.20424 18.5477 7.19462 18.5477C6.98287 18.538 6.78899 18.4459 6.64737 18.2905L3.91524 15.2875C3.62099 14.9644 3.64437 14.4625 3.96749 14.1683C4.29062 13.874 4.79249 13.8974 5.08674 14.2205L7.28399 16.6364L18.24 6.66765L16.0427 4.25178C15.7485 3.92865 15.7719 3.42678 16.095 3.13253C16.4181 2.83828 16.92 2.86165 17.2142 3.18478L19.9464 6.18778C20.2406 6.5109 20.2172 7.01278 19.8941 7.30703L7.76387 18.3428C7.61674 18.4748 7.42562 18.5477 7.23037 18.5477Z" fill="#020D19"/>
<path fill-rule="evenodd" clip-rule="evenodd" d="M8.21494 42.8618C8.08569 42.8618 7.95782 42.8316 7.83544 42.7656C7.45319 42.5538 7.31019 42.0753 7.52194 41.6903L13.2172 31.272C13.5046 30.7343 13.8703 30.2462 14.3089 29.8227L21.8426 22.5792C22.1588 22.2753 22.6579 22.285 22.9618 22.6026C23.2657 22.9188 23.2561 23.418 22.9384 23.7218L15.4048 30.9653C15.0844 31.272 14.8177 31.6281 14.6101 32.0186C14.6073 32.0213 14.6073 32.0255 14.6032 32.0282L8.90382 42.4535C8.76632 42.7133 8.49544 42.8618 8.21494 42.8618Z" fill="#020D19"/>
<path fill-rule="evenodd" clip-rule="evenodd" d="M13.7221 48.8113C13.4155 48.8113 13.1213 48.6298 12.9934 48.3301C12.8215 47.9272 13.0099 47.4624 13.4086 47.2906C15.6499 46.3336 17.3824 46.5646 18.91 46.7694C19.6553 46.8684 20.362 46.9647 21.0358 46.8918C23.2303 46.6608 27.171 45.4756 28.117 44.2161C28.2916 43.9851 28.4993 43.4763 28.3618 43.0377C28.2531 42.6912 27.919 42.4244 27.3718 42.2484C26.9565 42.1137 26.7283 41.6682 26.8603 41.2516C26.995 40.8363 27.4405 40.6081 27.8571 40.7401C29.1799 41.1663 29.6818 41.9638 29.8701 42.5578C30.1933 43.5739 29.811 44.6011 29.3848 45.1676C28.744 46.0228 27.4405 46.7914 25.5073 47.4583C24.1048 47.9437 22.4149 48.3397 21.2035 48.4648C20.3428 48.5569 19.5109 48.4456 18.7051 48.3356C17.3164 48.1513 15.8768 47.9588 14.0356 48.7453C13.9325 48.7879 13.828 48.8113 13.7221 48.8113Z" fill="#020D19"/>
<path fill-rule="evenodd" clip-rule="evenodd" d="M19.087 33.3248C18.8863 33.3248 18.6814 33.2491 18.526 33.0938C18.2153 32.783 18.2153 32.2825 18.526 31.9745L27.9118 22.5888C28.2225 22.278 28.723 22.278 29.031 22.5888C29.3418 22.8995 29.3418 23.4 29.031 23.708L19.6453 33.0938C19.4927 33.2491 19.2892 33.3248 19.087 33.3248Z" fill="#020D19"/>
<path fill-rule="evenodd" clip-rule="evenodd" d="M22.8644 36.4007C22.6636 36.4007 22.4588 36.3251 22.3034 36.1697C21.9926 35.8589 21.9926 35.3584 22.3034 35.0504L31.7978 25.5561C32.1085 25.2453 32.609 25.2453 32.917 25.5561C33.2278 25.8668 33.2278 26.3673 32.917 26.6753L23.4226 36.1697C23.27 36.3237 23.0693 36.4007 22.8644 36.4007Z" fill="#020D19"/>
<path fill-rule="evenodd" clip-rule="evenodd" d="M23.5402 41.8222C23.3394 41.8222 23.1345 41.7465 22.9792 41.5912C22.6684 41.2804 22.6684 40.7799 22.9792 40.4719L33.5818 29.8693C33.8925 29.5585 34.393 29.5585 34.701 29.8693C35.0118 30.18 35.0118 30.6805 34.701 30.9885L24.0984 41.5912C23.943 41.7465 23.7409 41.8222 23.5402 41.8222Z" fill="#020D19"/>
<path fill-rule="evenodd" clip-rule="evenodd" d="M12.6335 53.6156C12.419 53.6156 12.2073 53.5303 12.0533 53.3612C11.7563 53.0408 11.7755 52.5389 12.0959 52.2419L14.4953 50.0213L6.58213 41.455L4.1855 43.6729C3.86513 43.9699 3.36325 43.9507 3.06625 43.6303C2.76925 43.3099 2.7885 42.808 3.10888 42.511L6.0885 39.7528C6.24388 39.6112 6.44875 39.5356 6.65638 39.5411C6.86813 39.5479 7.06613 39.64 7.20775 39.7954L16.1934 49.5235C16.4904 49.8439 16.4711 50.3458 16.1508 50.6428L13.1711 53.4011C13.0199 53.5468 12.8274 53.6156 12.6335 53.6156Z" fill="#020D19"/>
<path fill-rule="evenodd" clip-rule="evenodd" d="M28.5633 14.0489C28.4245 14.0489 28.2828 14.0131 28.1536 13.9361C27.7768 13.712 27.6586 13.2239 27.8827 12.8499C28.738 11.4281 29.7995 10.5495 31.037 10.2401C31.3972 10.1507 31.8427 10.1384 32.7227 10.1109C33.6137 10.0847 34.227 10.0971 34.6793 10.104C35.382 10.1177 35.58 10.1177 35.8481 10.0077C36.1355 9.87848 37.406 8.86235 38.6132 7.74448C38.9336 7.44748 39.4355 7.46673 39.7325 7.7871C40.0295 8.10748 40.0102 8.60935 39.6898 8.90635C39.5908 8.99848 37.2616 11.1476 36.4393 11.4776C35.8618 11.7086 35.4301 11.7017 34.6505 11.6852C34.2187 11.6784 33.6206 11.666 32.7695 11.688C32.0998 11.7072 31.6172 11.721 31.4233 11.7705C30.608 11.9754 29.8751 12.6092 29.2426 13.6584C29.0941 13.9141 28.8328 14.0489 28.5633 14.0489Z" fill="#020D19"/>
<path fill-rule="evenodd" clip-rule="evenodd" d="M42.4227 24.9787C42.2412 24.9787 42.0624 24.9196 41.9139 24.7945C41.5812 24.514 41.5372 24.0121 41.8177 23.6794C42.8998 22.3924 43.1308 21.1411 43.2862 20.3161C43.3384 20.0356 43.3824 19.7909 43.4539 19.5874C43.7537 18.7225 44.0479 18.0886 46.1902 16.0825C46.5105 15.7827 47.0124 15.7992 47.3094 16.1182C47.6092 16.4386 47.5927 16.9405 47.2737 17.2375C45.3102 19.0786 45.1589 19.5117 44.9499 20.1085C44.9169 20.2006 44.8812 20.3959 44.844 20.6035C44.6722 21.5344 44.3848 23.0881 43.0318 24.6982C42.8709 24.8839 42.6468 24.9787 42.4227 24.9787Z" fill="#020D19"/>
<path fill-rule="evenodd" clip-rule="evenodd" d="M48.477 19.3728C48.2625 19.3728 48.048 19.2875 47.8899 19.1156L36.8542 6.98814C36.7125 6.83277 36.6397 6.62789 36.6493 6.41752C36.6589 6.20714 36.751 6.01189 36.9064 5.87027L39.9094 3.13814C40.2325 2.84389 40.7344 2.86727 41.0287 3.19039C41.3229 3.51352 41.2995 4.01539 40.9764 4.30964L38.5605 6.50552L48.5293 17.4615L50.9452 15.2643C51.2683 14.97 51.7702 14.9934 52.0644 15.3165C52.3587 15.6396 52.3353 16.1415 52.0122 16.4358L49.0092 19.1679C48.8607 19.3026 48.6695 19.3728 48.477 19.3728Z" fill="#020D19"/>
<path fill-rule="evenodd" clip-rule="evenodd" d="M47.7513 38.9088C47.5533 38.9088 47.3526 38.8331 47.1972 38.6846C47.101 38.5925 44.835 36.3719 44.4651 35.5689C44.2038 35.0051 44.1915 34.572 44.1653 33.7896C44.1516 33.3579 44.1323 32.7639 44.0663 31.9114C44.0141 31.2445 43.9742 30.7633 43.9178 30.568C43.6731 29.7664 43.0007 29.0638 41.9213 28.4863C41.535 28.2814 41.3906 27.8001 41.5941 27.4138C41.7976 27.0274 42.2802 26.883 42.6666 27.0865C44.1323 27.8689 45.0618 28.885 45.4317 30.1033C45.5403 30.4594 45.5733 30.9021 45.6462 31.7794C45.715 32.6676 45.7356 33.2836 45.7521 33.7333C45.7755 34.4359 45.7851 34.6339 45.9075 34.8979C46.0532 35.1784 47.1312 36.3966 48.3068 37.5448C48.6203 37.8514 48.6272 38.3533 48.3206 38.664C48.1611 38.8263 47.9562 38.9088 47.7513 38.9088Z" fill="#020D19"/>
<path fill-rule="evenodd" clip-rule="evenodd" d="M39.8188 46.8974C39.6208 46.8974 39.4228 46.8246 39.2716 46.6761C37.3315 44.8088 36.8928 44.6796 36.2851 44.5008C36.193 44.4747 35.995 44.4486 35.7832 44.4183C34.8455 44.2932 33.278 44.0856 31.6018 42.8151C31.2526 42.5511 31.1866 42.0533 31.4506 41.7068C31.7146 41.3576 32.2123 41.2916 32.5588 41.5556C33.9022 42.5717 35.159 42.7408 35.9908 42.8494C36.2741 42.8852 36.5188 42.9182 36.7265 42.9814C37.6037 43.2386 38.2513 43.4998 40.3661 45.5362C40.6796 45.8401 40.6892 46.3419 40.3853 46.6554C40.2341 46.8149 40.0265 46.8974 39.8188 46.8974Z" fill="#020D19"/>
<path fill-rule="evenodd" clip-rule="evenodd" d="M40.8718 51.6001C40.6711 51.6001 40.469 51.5245 40.3136 51.3691L37.433 48.5077C37.2845 48.3592 37.1992 48.1585 37.1992 47.9495C37.1992 47.7377 37.2817 47.537 37.4302 47.3885L48.983 35.7532C49.2896 35.4425 49.7915 35.4397 50.1022 35.7505L52.9828 38.6119C53.2936 38.9185 53.2963 39.4204 52.9856 39.7311C52.679 40.0419 52.1771 40.0446 51.8663 39.7339L49.5467 37.4307L39.1118 47.9412L41.4315 50.2444C41.7422 50.551 41.745 51.0529 41.4342 51.3636C41.2775 51.5204 41.0726 51.6001 40.8718 51.6001Z" fill="#020D19"/>
</svg>
