<svg width="72" height="72" viewBox="0 0 72 72" fill="none" xmlns="http://www.w3.org/2000/svg">
<path d="M55.6394 67.4416C55.4257 67.4415 55.2179 67.3711 55.0482 67.2411C54.8785 67.1112 54.7563 66.9289 54.7005 66.7226L52.2097 57.5192C52.1643 57.3513 52.1647 57.1743 52.2109 57.0066C52.2571 56.8389 52.3474 56.6867 52.4724 56.5657L62.9971 46.3884C64.3355 45.0917 65.2087 43.3895 65.4811 41.5459L67.9806 24.2903C67.1779 24.2263 66.3773 24.4376 65.7107 24.8895C65.0441 25.3414 64.5513 26.0068 64.3135 26.7762L60.1871 39.9785C60.1316 40.1562 60.0262 40.3142 59.8835 40.4338L50.3221 48.4463C50.2246 48.531 50.1111 48.5954 49.9883 48.6358C49.8656 48.6762 49.736 48.6917 49.6072 48.6815C49.4784 48.6712 49.3529 48.6354 49.2381 48.5762C49.1232 48.5169 49.0214 48.4354 48.9384 48.3363C48.8554 48.2372 48.793 48.1226 48.7548 47.9992C48.7166 47.8757 48.7034 47.7459 48.7159 47.6173C48.7284 47.4887 48.7664 47.3638 48.8277 47.2501C48.889 47.1363 48.9723 47.0359 49.0728 46.9547L58.4134 39.1252L62.4561 26.1953C62.8418 24.9556 63.6538 23.8923 64.7482 23.1937C65.8427 22.4951 67.149 22.2063 68.436 22.3784L69.2144 22.4815C69.342 22.4985 69.465 22.5406 69.5763 22.6054C69.6875 22.6703 69.7848 22.7566 69.8624 22.8593C69.9401 22.962 69.9966 23.0791 70.0286 23.2038C70.0607 23.3286 70.0677 23.4584 70.0492 23.5858L67.4017 41.8223C67.0691 44.0926 65.9961 46.1896 64.3495 47.7876L54.2384 57.565L56.5793 66.2137C56.647 66.4623 56.6133 66.7277 56.4856 66.9515C56.358 67.1753 56.1467 67.3393 55.8982 67.4076C55.8138 67.4301 55.7268 67.4415 55.6394 67.4416Z" fill="#020D19"/>
<path d="M43.233 67.4406C42.975 67.4406 42.7275 67.3381 42.545 67.1556C42.3626 66.9732 42.2601 66.7257 42.2601 66.4676V60.1073C41.111 59.009 40.2464 57.6476 39.741 56.1405C39.0175 53.8794 39.0347 51.4463 39.79 49.1956C40.5453 46.9449 41.9993 44.9941 43.9404 43.6271L51.48 38.196C52.7544 37.2817 54.3174 36.8611 55.8785 37.0124C57.4397 37.1636 58.8929 37.8763 59.9682 39.0181C60.0556 39.1113 60.1239 39.2209 60.169 39.3404C60.2141 39.46 60.2353 39.5873 60.2312 39.7151C60.2271 39.8428 60.198 39.9685 60.1453 40.085C60.0927 40.2015 60.0176 40.3064 59.9244 40.3939C59.8312 40.4814 59.7217 40.5496 59.6021 40.5947C59.4825 40.6399 59.3552 40.661 59.2274 40.657C59.0997 40.6529 58.974 40.6237 58.8575 40.5711C58.741 40.5184 58.6361 40.4433 58.5486 40.3501C57.7972 39.5509 56.781 39.052 55.6892 38.9462C54.5974 38.8404 53.5043 39.135 52.6135 39.7751L45.0778 45.2101C43.4741 46.3313 42.2702 47.9352 41.6415 49.7881C41.0127 51.641 40.9918 53.6463 41.5819 55.512C42.0249 56.8393 42.815 58.0238 43.8703 58.9427C43.9756 59.0339 44.0601 59.1468 44.118 59.2735C44.1759 59.4002 44.2059 59.5379 44.206 59.6773V66.4676C44.206 66.7257 44.1035 66.9732 43.921 67.1556C43.7386 67.3381 43.4911 67.4406 43.233 67.4406Z" fill="#020D19"/>
<path d="M55.4332 38.7585C55.3308 38.7582 55.229 38.7422 55.1315 38.7108C55.0099 38.6712 54.8973 38.608 54.8001 38.5249C54.7029 38.4417 54.623 38.3402 54.5651 38.2262C54.5072 38.1121 54.4723 37.9878 54.4625 37.8602C54.4526 37.7327 54.4681 37.6045 54.5079 37.4829L57.3548 28.7641C57.7745 27.4696 58.6782 26.3874 59.877 25.7436C61.0759 25.0997 62.4771 24.944 63.7881 25.3091C64.0368 25.3778 64.2481 25.5426 64.3754 25.7671C64.5026 25.9916 64.5355 26.2575 64.4667 26.5063C64.398 26.7551 64.2332 26.9663 64.0087 27.0936C63.7841 27.2208 63.5182 27.2537 63.2695 27.1849C62.4413 26.9553 61.5564 27.0542 60.7992 27.461C60.0421 27.8677 59.4712 28.551 59.2054 29.3683L56.3585 38.0881C56.2946 38.2831 56.1708 38.453 56.0046 38.5734C55.8384 38.6938 55.6384 38.7586 55.4332 38.7585Z" fill="#020D19"/>
<path d="M16.3605 67.4415C16.2744 67.441 16.1888 67.4296 16.1056 67.4074C15.8571 67.3392 15.6459 67.1752 15.5182 66.9513C15.3905 66.7275 15.3568 66.4622 15.4245 66.2136L17.7655 57.5648L7.65047 47.7874C6.00363 46.1892 4.93067 44.0918 4.59825 41.8212L1.95565 23.5867C1.93715 23.4592 1.94413 23.3294 1.97618 23.2047C2.00823 23.08 2.06472 22.9628 2.14237 22.8601C2.22003 22.7574 2.3173 22.6711 2.42855 22.6063C2.5398 22.5414 2.66281 22.4993 2.79047 22.4823L3.56884 22.3792C4.85557 22.2059 6.16207 22.4942 7.25644 23.1928C8.35082 23.8914 9.16228 24.9551 9.54679 26.1952L13.5895 39.125L22.93 46.9546C23.0306 47.0358 23.1139 47.1362 23.1752 47.2499C23.2365 47.3637 23.2745 47.4885 23.287 47.6172C23.2995 47.7458 23.2863 47.8756 23.2481 47.999C23.2099 48.1225 23.1475 48.2371 23.0645 48.3362C22.9815 48.4352 22.8797 48.5168 22.7648 48.576C22.65 48.6353 22.5245 48.6711 22.3957 48.6813C22.2669 48.6916 22.1373 48.676 22.0145 48.6357C21.8918 48.5953 21.7783 48.5308 21.6807 48.4461L12.1193 40.4337C11.9767 40.3141 11.8713 40.156 11.8158 39.9783L7.68647 26.7761C7.44805 26.0082 6.95621 25.3439 6.29133 24.8919C5.62645 24.4398 4.82787 24.2266 4.02614 24.2872L6.52376 41.5458C6.79419 43.3898 7.66564 45.093 9.0029 46.3912L19.5275 56.5656C19.6526 56.6865 19.7429 56.8388 19.7891 57.0065C19.8353 57.1742 19.8357 57.3512 19.7903 57.5191L17.2994 66.7225C17.2437 66.9288 17.1215 67.111 16.9518 67.241C16.7821 67.3709 16.5743 67.4414 16.3605 67.4415Z" fill="#020D19"/>
<path d="M28.7668 67.4407C28.5088 67.4407 28.2613 67.3382 28.0788 67.1557C27.8964 66.9733 27.7939 66.7258 27.7939 66.4677V59.6773C27.794 59.538 27.824 59.4003 27.8819 59.2736C27.9398 59.1468 28.0243 59.034 28.1295 58.9428C29.1848 58.0239 29.975 56.8393 30.418 55.5121C31.0081 53.6464 30.9872 51.6411 30.3584 49.7882C29.7296 47.9352 28.5257 46.3314 26.9221 45.2102L19.3825 39.7791C18.4917 39.139 17.3986 38.8444 16.3068 38.9502C15.215 39.056 14.1988 39.5549 13.4474 40.3541C13.2708 40.5423 13.0266 40.6527 12.7686 40.6609C12.5106 40.6691 12.2598 40.5745 12.0716 40.3979C11.8834 40.2213 11.773 39.9771 11.7648 39.7191C11.7566 39.4611 11.8512 39.2103 12.0278 39.0221C13.103 37.8801 14.5562 37.1672 16.1174 37.016C17.6786 36.8648 19.2417 37.2855 20.516 38.1999L28.0556 43.6311C29.9965 44.9973 31.4508 46.9472 32.2068 49.1972C32.9628 51.4471 32.981 53.8796 32.2588 56.1406C31.7529 57.6463 30.8884 59.0063 29.7398 60.1035V66.4638C29.7403 66.5919 29.7155 66.7189 29.6669 66.8374C29.6182 66.9559 29.5466 67.0636 29.4562 67.1543C29.3658 67.2451 29.2584 67.3171 29.1401 67.3663C29.0218 67.4154 28.8949 67.4407 28.7668 67.4407Z" fill="#020D19"/>
<path d="M16.5668 38.7583C16.3616 38.7584 16.1616 38.6936 15.9954 38.5732C15.8292 38.4528 15.7053 38.283 15.6415 38.0879L12.7946 29.3681C12.5286 28.5509 11.9576 27.8678 11.2005 27.4611C10.4435 27.0544 9.5587 26.9554 8.73047 27.1848C8.48172 27.2536 8.21583 27.2207 7.9913 27.0934C7.76677 26.9661 7.602 26.7549 7.53323 26.5061C7.46446 26.2574 7.49733 25.9915 7.6246 25.767C7.75187 25.5424 7.96312 25.3777 8.21188 25.3089C9.5228 24.9446 10.9237 25.1007 12.1224 25.7444C13.3211 26.3882 14.2248 27.4699 14.6452 28.7639L17.4921 37.4827C17.5319 37.6043 17.5473 37.7325 17.5375 37.8601C17.5277 37.9876 17.4928 38.112 17.4349 38.226C17.377 38.3401 17.2971 38.4416 17.1999 38.5247C17.1027 38.6079 16.9901 38.671 16.8684 38.7106C16.7709 38.742 16.6692 38.7581 16.5668 38.7583Z" fill="#020D19"/>
<path d="M36 40.7821C35.8066 40.7822 35.6176 40.7246 35.4571 40.6167C34.7108 40.1147 17.1749 28.1773 17.1749 15.5286C17.1737 13.3465 17.8237 11.2136 19.0417 9.40304C20.2597 7.59246 21.9904 6.18654 24.012 5.36524C26.0337 4.54395 28.2545 4.34463 30.3901 4.79282C32.5258 5.24101 34.4791 6.3163 36 7.88106C37.521 6.3163 39.4743 5.24101 41.6099 4.79282C43.7455 4.34463 45.9663 4.54395 47.988 5.36524C50.0097 6.18654 51.7403 7.59246 52.9583 9.40304C54.1763 11.2136 54.8263 13.3465 54.8251 15.5286C54.8251 28.1773 37.2892 40.1147 36.5429 40.6167C36.3824 40.7246 36.1934 40.7822 36 40.7821ZM28.1452 6.50528C25.7527 6.50759 23.4588 7.45898 21.7669 9.15065C20.0751 10.8423 19.1235 13.1361 19.1209 15.5286C19.1209 25.9784 33.0509 36.5079 36 38.6202C38.9491 36.5059 52.8791 25.9647 52.8791 15.5286C52.8805 13.652 52.2963 11.8217 51.2079 10.2928C50.1196 8.76403 48.5813 7.61291 46.8076 6.99996C45.0338 6.38701 43.1131 6.34278 41.313 6.87344C39.5129 7.4041 37.9233 8.4832 36.7657 9.9603C36.671 10.0707 36.5535 10.1593 36.4214 10.22C36.2892 10.2808 36.1455 10.3122 36 10.3122C35.8545 10.3122 35.7108 10.2808 35.5786 10.22C35.4465 10.1593 35.329 10.0707 35.2343 9.9603C34.3943 8.88204 33.3188 8.01016 32.0901 7.41133C30.8614 6.8125 29.512 6.50258 28.1452 6.50528Z" fill="#020D19"/>
</svg>
