<svg width="34" height="34" viewBox="0 0 34 34" fill="none" xmlns="http://www.w3.org/2000/svg">
<g clip-path="url(#clip0_332_12)">
<path d="M26.8706 21.062C26.1746 20.3372 25.335 19.9497 24.4452 19.9497C23.5625 19.9497 22.7158 20.33 21.991 21.0548L19.7234 23.3152C19.5368 23.2147 19.3503 23.1214 19.1709 23.0282C18.9125 22.899 18.6686 22.777 18.4605 22.6478C16.3364 21.2988 14.406 19.5407 12.5547 17.2659C11.6577 16.1321 11.0549 15.1777 10.6172 14.2089C11.2056 13.6707 11.751 13.111 12.282 12.5728C12.4829 12.3719 12.6838 12.1638 12.8848 11.9629C14.3917 10.4559 14.3917 8.50407 12.8848 6.99713L10.9257 5.0381C10.7033 4.81564 10.4736 4.58601 10.2584 4.35638C9.82781 3.91147 9.37572 3.45221 8.90929 3.02166C8.21322 2.33277 7.38081 1.9668 6.50535 1.9668C5.62989 1.9668 4.78313 2.33277 4.06553 3.02166C4.05836 3.02883 4.05836 3.02883 4.05118 3.03601L1.61136 5.49736C0.692844 6.41588 0.169001 7.53532 0.0541861 8.83416C-0.118036 10.9295 0.499094 12.8814 0.972705 14.1587C2.13521 17.2946 3.87178 20.2008 6.46229 23.3152C9.60535 27.0682 13.3871 30.0319 17.707 32.1201C19.3574 32.9022 21.5605 33.8279 24.0218 33.9858C24.1725 33.993 24.3304 34.0002 24.4739 34.0002C26.1315 34.0002 27.5237 33.4046 28.6144 32.2205C28.6216 32.2062 28.6359 32.199 28.6431 32.1847C29.0162 31.7326 29.4468 31.3235 29.8989 30.8858C30.2075 30.5916 30.5232 30.283 30.8318 29.9601C31.5422 29.221 31.9153 28.3599 31.9153 27.4772C31.9153 26.5874 31.535 25.7335 30.8102 25.0159L26.8706 21.062ZM29.4396 28.6182C29.4325 28.6254 29.4325 28.6182 29.4396 28.6182C29.1598 28.9196 28.8727 29.1923 28.5642 29.4937C28.0977 29.9386 27.6241 30.405 27.1792 30.9289C26.4544 31.7039 25.6005 32.0698 24.4811 32.0698C24.3734 32.0698 24.2586 32.0698 24.151 32.0627C22.0197 31.9263 20.0392 31.0939 18.5537 30.3835C14.4922 28.4173 10.9257 25.6258 7.96206 22.0881C5.51507 19.1388 3.87896 16.4119 2.79539 13.4842C2.12803 11.6974 1.88405 10.3052 1.99169 8.99204C2.06345 8.15245 2.38636 7.45639 2.98197 6.86078L5.42896 4.41379C5.78058 4.0837 6.15373 3.9043 6.5197 3.9043C6.97178 3.9043 7.33776 4.17698 7.56739 4.40661C7.57456 4.41379 7.58174 4.42097 7.58891 4.42814C8.02665 4.83717 8.44285 5.26055 8.88058 5.71263C9.10304 5.94226 9.33267 6.17189 9.5623 6.4087L11.5213 8.36773C12.282 9.12838 12.282 9.83162 11.5213 10.5923C11.3132 10.8004 11.1123 11.0085 10.9042 11.2094C10.3014 11.8265 9.72734 12.4006 9.10304 12.9603C9.08868 12.9747 9.07433 12.9819 9.06716 12.9962C8.45003 13.6133 8.56484 14.2161 8.69401 14.6251C8.70118 14.6467 8.70836 14.6682 8.71554 14.6897C9.22503 15.924 9.94262 17.0865 11.0334 18.4714L11.0405 18.4786C13.0211 20.9184 15.1093 22.8201 17.4128 24.2768C17.707 24.4633 18.0084 24.614 18.2954 24.7576C18.5537 24.8867 18.7977 25.0087 19.0058 25.1379C19.0345 25.1522 19.0632 25.1738 19.0919 25.1881C19.3359 25.3101 19.5655 25.3675 19.8024 25.3675C20.398 25.3675 20.7711 24.9944 20.8931 24.8724L23.3473 22.4182C23.5912 22.1742 23.9787 21.88 24.4308 21.88C24.8757 21.88 25.2417 22.1599 25.4642 22.4039C25.4713 22.411 25.4713 22.411 25.4785 22.4182L29.4325 26.3721C30.1716 27.1041 30.1716 27.8576 29.4396 28.6182Z" fill="white"/>
<path d="M18.3744 8.08778C20.2545 8.40352 21.9624 9.29334 23.3258 10.6568C24.6893 12.0202 25.5719 13.7281 25.8948 15.6082C25.9737 16.0818 26.3828 16.4119 26.8492 16.4119C26.9066 16.4119 26.9568 16.4047 27.0143 16.3975C27.5453 16.3114 27.8969 15.8091 27.8108 15.2781C27.4233 13.0033 26.3469 10.9295 24.7036 9.28616C23.0603 7.64288 20.9865 6.56649 18.7117 6.17899C18.1807 6.09287 17.6855 6.44449 17.5923 6.96834C17.499 7.49218 17.8434 8.00167 18.3744 8.08778Z" fill="white"/>
<path d="M33.9605 14.9981C33.3218 11.2523 31.5566 7.84371 28.8441 5.13121C26.1316 2.41871 22.723 0.653427 18.9772 0.0147691C18.4533 -0.078518 17.9582 0.280279 17.8649 0.804122C17.7788 1.33514 18.1304 1.83028 18.6614 1.92357C22.0054 2.49047 25.0552 4.07635 27.4806 6.49464C29.9061 8.9201 31.4848 11.9699 32.0517 15.3139C32.1306 15.7875 32.5397 16.1176 33.0061 16.1176C33.0635 16.1176 33.1137 16.1104 33.1712 16.1032C33.695 16.0243 34.0538 15.522 33.9605 14.9981Z" fill="white"/>
</g>
<defs>
<clipPath id="clip0_332_12">
<rect width="34" height="34" fill="white"/>
</clipPath>
</defs>
</svg>
