<svg width="30" height="31" viewBox="0 0 30 31" fill="none" xmlns="http://www.w3.org/2000/svg">
<path d="M12.03 27.5934C17.6544 27.5934 22.2139 23.0339 22.2139 17.4095C22.2139 11.7851 17.6544 7.22568 12.03 7.22568C6.40565 7.22568 1.84619 11.7851 1.84619 17.4095C1.84619 23.0339 6.40565 27.5934 12.03 27.5934Z" fill="#FF6D00"/>
<path d="M12.1452 25.2809L12.016 25.0608C10.0429 21.6991 4.79974 14.565 4.74678 14.4933L4.67114 14.3906L6.45747 12.6252L12.112 16.5736C15.6723 11.9536 18.9937 8.78044 21.1603 6.92742C23.5304 4.9004 25.0731 3.96723 25.0887 3.95829L25.1238 3.93729H28.1539L27.8644 4.19506C20.4205 10.8254 12.352 24.9176 12.2716 25.0591L12.1452 25.2809Z" fill="#020D19"/>
</svg>
