<svg width="55" height="56" viewBox="0 0 55 56" fill="none" xmlns="http://www.w3.org/2000/svg">
<path d="M8.65723 50.497H3.23155C2.76983 50.4974 2.32685 50.3145 2.00001 49.9883C1.67317 49.6622 1.48924 49.2196 1.48865 48.7579V29.5175C1.48904 29.0562 1.67248 28.6139 1.9987 28.2876C2.32491 27.9614 2.76724 27.778 3.22858 27.7776H8.65426C9.11547 27.7782 9.5576 27.9617 9.88366 28.2879C10.2097 28.6141 10.3931 29.0563 10.3934 29.5175V48.7579C10.3929 49.2184 10.2098 49.66 9.88445 49.986C9.55906 50.3119 9.11779 50.4957 8.65723 50.497ZM3.22858 29.2641C3.16136 29.2641 3.0969 29.2908 3.04937 29.3383C3.00184 29.3858 2.97513 29.4503 2.97513 29.5175V48.7579C2.97533 48.8249 3.00212 48.8892 3.04963 48.9366C3.09714 48.984 3.16149 49.0106 3.22858 49.0106H8.65426C8.72122 49.0104 8.78538 48.9837 8.83273 48.9363C8.88008 48.889 8.90676 48.8248 8.90696 48.7579V29.5175C8.90696 29.4504 8.88036 29.3861 8.83299 29.3386C8.78562 29.2911 8.72134 29.2643 8.65426 29.2641H3.22858Z" fill="#020D19"/>
<path d="M27.4093 51.6097C25.4576 51.61 23.5213 51.2648 21.69 50.59L17.6416 49.0983C15.1567 48.1813 12.5287 47.7128 9.87991 47.7144H9.65694C9.45982 47.7144 9.27077 47.6361 9.13139 47.4967C8.992 47.3573 8.9137 47.1683 8.9137 46.9711C8.9137 46.774 8.992 46.585 9.13139 46.4456C9.27077 46.3062 9.45982 46.2279 9.65694 46.2279H9.87991C12.7039 46.2263 15.5057 46.7258 18.1552 47.7032L22.2044 49.1949C24.4814 50.0335 26.9271 50.3101 29.3339 50.0012C31.7406 49.6924 34.0373 48.8072 36.0287 47.4208L51.7171 36.4951C50.8917 35.5336 49.7761 34.8664 48.5384 34.5942C47.3008 34.3219 46.0082 34.4593 44.8555 34.9856L33.2757 40.227C33.1868 40.2673 33.0907 40.2897 32.9931 40.2929C32.8955 40.2961 32.7982 40.28 32.7068 40.2456C32.6154 40.2112 32.5316 40.1591 32.4603 40.0923C32.389 40.0256 32.3316 39.9454 32.2913 39.8564C32.251 39.7675 32.2286 39.6714 32.2254 39.5738C32.2222 39.4762 32.2383 39.3789 32.2727 39.2875C32.3071 39.1961 32.3591 39.1123 32.4259 39.0411C32.4927 38.9698 32.5728 38.9123 32.6618 38.872L44.2393 33.6314C45.8268 32.9069 47.6208 32.7727 49.2984 33.253C50.9761 33.7333 52.4273 34.7965 53.3909 36.2513C53.4989 36.4133 53.5391 36.6111 53.5028 36.8023C53.4665 36.9936 53.3567 37.1629 53.1969 37.2741L36.8745 48.6412C34.0968 50.5744 30.7935 51.6103 27.4093 51.6097Z" fill="#020D19"/>
<path d="M31.5781 40.6283H18.9645C18.7674 40.6283 18.5783 40.55 18.439 40.4106C18.2996 40.2712 18.2213 40.0822 18.2213 39.885C18.2213 39.6879 18.2996 39.4989 18.439 39.3595C18.5783 39.2201 18.7674 39.1418 18.9645 39.1418H31.5781C32.1909 39.1418 32.7787 38.8983 33.212 38.465C33.6454 38.0316 33.8888 37.4439 33.8888 36.831C33.8888 36.2182 33.6454 35.6305 33.212 35.1971C32.7787 34.7638 32.1909 34.5203 31.5781 34.5203H24.3746C23.4339 34.5208 22.5009 34.3519 21.6201 34.0216L17.4357 32.4519C16.7228 32.1838 15.9675 32.0466 15.2059 32.0468H9.65316C9.45603 32.0468 9.26699 31.9685 9.1276 31.8291C8.98822 31.6897 8.90991 31.5007 8.90991 31.3035C8.90991 31.1064 8.98822 30.9174 9.1276 30.778C9.26699 30.6386 9.45603 30.5603 9.65316 30.5603H15.203C16.1437 30.5597 17.0768 30.7289 17.9574 31.0598L22.1426 32.6295C22.8555 32.8971 23.6108 33.0341 24.3723 33.0338H31.5759C32.5829 33.0338 33.5488 33.4339 34.2609 34.146C34.973 34.8581 35.3731 35.824 35.3731 36.831C35.3731 37.8381 34.973 38.804 34.2609 39.5161C33.5488 40.2282 32.5829 40.6283 31.5759 40.6283H31.5781Z" fill="#020D19"/>
<path d="M45.7563 34.6399C45.6155 34.64 45.4775 34.6 45.3585 34.5247C45.2394 34.4493 45.1443 34.3417 45.0841 34.2144C45.0238 34.087 45.0011 33.9452 45.0184 33.8054C45.0357 33.6656 45.0924 33.5336 45.1818 33.4247C47.0145 31.195 48.2506 28.5361 48.774 25.6976C49.2974 22.8592 49.091 19.9343 48.1741 17.1975C47.0419 13.7934 44.867 10.832 41.9575 8.73319C39.0481 6.63436 35.5518 5.50458 31.9644 5.50401C28.3769 5.50343 24.8803 6.63209 21.9702 8.72998C19.0601 10.8279 16.8842 13.7886 15.7509 17.1923C14.5736 20.6991 14.5736 24.4945 15.7509 28.0013C16.0954 29.0593 16.5505 30.0779 17.1088 31.0404C17.1605 31.1248 17.1948 31.2187 17.2097 31.3166C17.2246 31.4145 17.2198 31.5143 17.1956 31.6103C17.1714 31.7063 17.1283 31.7965 17.0687 31.8756C17.0092 31.9547 16.9344 32.0211 16.8489 32.0709C16.7633 32.1207 16.6687 32.1529 16.5705 32.1656C16.4723 32.1784 16.3726 32.1713 16.2772 32.145C16.1818 32.1187 16.0925 32.0735 16.0148 32.0122C15.9371 31.951 15.8723 31.8748 15.8245 31.7881C15.2131 30.7383 14.7148 29.6267 14.338 28.4718C13.0581 24.6587 13.0581 20.532 14.338 16.7189C15.5705 13.0201 17.9358 9.80309 21.0987 7.52359C24.2616 5.24409 28.0616 4.01774 31.9603 4.01831C35.859 4.01889 39.6586 5.24636 42.8208 7.52679C45.983 9.80723 48.3474 13.025 49.5788 16.7241C50.5723 19.7002 50.7951 22.8797 50.2265 25.9653C49.6578 29.051 48.3163 31.9421 46.3272 34.3687C46.2578 34.453 46.1707 34.5211 46.072 34.568C45.9734 34.6149 45.8656 34.6394 45.7563 34.6399Z" fill="#020D19"/>
<path d="M35.7144 39.0474C35.5734 39.0472 35.4353 39.007 35.3163 38.9313C35.1973 38.8556 35.1023 38.7476 35.0424 38.62C34.9824 38.4923 34.9601 38.3503 34.9778 38.2104C34.9956 38.0705 35.0528 37.9385 35.1428 37.8299C36.8166 35.8098 38.1307 32.2742 38.7483 28.1314C39.2824 24.4632 39.2824 20.7371 38.7483 17.0689C37.7419 10.2593 34.9511 5.5048 31.9617 5.5048C28.9724 5.5048 26.1815 10.2616 25.1752 17.0667C24.641 20.7351 24.641 24.4615 25.1752 28.1299C25.4319 29.9679 25.8706 31.776 26.4848 33.5273C26.5206 33.6198 26.5375 33.7185 26.5345 33.8176C26.5316 33.9167 26.5088 34.0142 26.4676 34.1044C26.4264 34.1946 26.3675 34.2756 26.2945 34.3427C26.2215 34.4098 26.1359 34.4616 26.0425 34.4951C25.9492 34.5285 25.8501 34.543 25.7511 34.5376C25.6521 34.5322 25.5552 34.507 25.466 34.4636C25.3769 34.4202 25.2974 34.3593 25.2321 34.2847C25.1668 34.2101 25.1172 34.1231 25.086 34.029C24.4382 32.186 23.9753 30.2831 23.7043 28.3484C23.1489 24.5348 23.1489 20.661 23.7043 16.8474C24.8571 9.05527 28.0969 4.01831 31.9617 4.01831C35.8266 4.01831 39.0664 9.05527 40.2184 16.8497C40.5005 18.7532 40.6399 20.6751 40.6354 22.5994C40.6398 24.5247 40.5005 26.4476 40.2184 28.3521C39.5495 32.8197 38.1567 36.5233 36.2874 38.7783C36.2176 38.8626 36.13 38.9304 36.031 38.9769C35.9319 39.0234 35.8238 39.0475 35.7144 39.0474Z" fill="#020D19"/>
<path d="M31.9616 34.5433C31.7645 34.5433 31.5755 34.465 31.4361 34.3256C31.2967 34.1862 31.2184 33.9972 31.2184 33.8001V4.76155C31.2184 4.56443 31.2967 4.37539 31.4361 4.236C31.5755 4.09662 31.7645 4.01831 31.9616 4.01831C32.1587 4.01831 32.3478 4.09662 32.4872 4.236C32.6266 4.37539 32.7049 4.56443 32.7049 4.76155V33.8001C32.7049 33.9972 32.6266 34.1862 32.4872 34.3256C32.3478 34.465 32.1587 34.5433 31.9616 34.5433Z" fill="#020D19"/>
<path d="M48.8802 17.6984H15.0433C14.8462 17.6984 14.6571 17.6201 14.5177 17.4807C14.3784 17.3413 14.3 17.1523 14.3 16.9552C14.3 16.758 14.3784 16.569 14.5177 16.4296C14.6571 16.2902 14.8462 16.2119 15.0433 16.2119H48.8802C49.0773 16.2119 49.2664 16.2902 49.4057 16.4296C49.5451 16.569 49.6234 16.758 49.6234 16.9552C49.6234 17.1523 49.5451 17.3413 49.4057 17.4807C49.2664 17.6201 49.0773 17.6984 48.8802 17.6984Z" fill="#020D19"/>
<path d="M48.8802 28.9875H15.0433C14.8462 28.9875 14.6571 28.9092 14.5177 28.7698C14.3784 28.6304 14.3 28.4413 14.3 28.2442C14.3 28.0471 14.3784 27.8581 14.5177 27.7187C14.6571 27.5793 14.8462 27.501 15.0433 27.501H48.8802C49.0773 27.501 49.2664 27.5793 49.4057 27.7187C49.5451 27.8581 49.6234 28.0471 49.6234 28.2442C49.6234 28.4413 49.5451 28.6304 49.4057 28.7698C49.2664 28.9092 49.0773 28.9875 48.8802 28.9875Z" fill="#020D19"/>
</svg>
