<svg width="55" height="56" viewBox="0 0 55 56" fill="none" xmlns="http://www.w3.org/2000/svg">
<path fill-rule="evenodd" clip-rule="evenodd" d="M48.1251 53.1119H6.61798C6.21923 53.1119 5.88235 52.8149 5.83285 52.4189L2.2001 23.5866C2.16985 23.3624 2.24273 23.1342 2.39123 22.9623C2.53973 22.7904 2.75698 22.6956 2.98523 22.6956H52.0892C52.3175 22.6956 52.5347 22.7946 52.686 22.9664C52.8372 23.1383 52.9032 23.3693 52.8743 23.5934L48.9116 52.4286C48.858 52.8177 48.5225 53.1119 48.1251 53.1119ZM7.3151 51.5279H47.4362L51.1817 24.2837H3.8831L7.3151 51.5279Z" fill="#020D19"/>
<path fill-rule="evenodd" clip-rule="evenodd" d="M52.0894 21.3261H2.98536C2.54673 21.3261 2.19336 20.9727 2.19336 20.5341V18.792C2.19336 17.2341 3.46111 15.9636 5.02173 15.9636H50.053C51.6109 15.9636 52.8814 17.2314 52.8814 18.792V20.5341C52.8814 20.9727 52.528 21.3261 52.0894 21.3261ZM3.77736 19.7421H51.2974V18.792C51.2974 18.1059 50.7391 17.5476 50.053 17.5476H5.02173C4.33561 17.5476 3.77736 18.1059 3.77736 18.792V19.7421Z" fill="#020D19"/>
<path fill-rule="evenodd" clip-rule="evenodd" d="M35.6316 13.4791H19.4424C19.0038 13.4791 18.6504 13.1257 18.6504 12.6871V6.96436C18.6504 6.52574 19.0038 6.17236 19.4424 6.17236H35.6358C36.0744 6.17236 36.4278 6.52574 36.4278 6.96436V12.6871C36.4236 13.123 36.0703 13.4791 35.6316 13.4791ZM20.2344 11.8951H34.8438V7.75636H20.2344V11.8951Z" fill="#020D19"/>
<path fill-rule="evenodd" clip-rule="evenodd" d="M48.3366 17.5476H6.73731C6.29869 17.5476 5.94531 17.1942 5.94531 16.7556V14.7192C5.94531 13.1614 7.21306 11.8909 8.77369 11.8909H46.3043C47.8622 11.8909 49.1327 13.1586 49.1327 14.7192V16.7556C49.1286 17.1942 48.7752 17.5476 48.3366 17.5476ZM7.52931 15.9636H47.5446V14.7192C47.5446 14.0331 46.9863 13.4749 46.3002 13.4749H8.77231C8.08619 13.4749 7.52794 14.0331 7.52794 14.7192L7.52931 15.9636Z" fill="#020D19"/>
<path fill-rule="evenodd" clip-rule="evenodd" d="M27.5378 45.8713C27.3261 45.8713 27.1253 45.7888 26.9768 45.6403L20.1761 38.8396C19.1929 37.8565 18.6484 36.5461 18.6484 35.1532C18.6484 33.7603 19.1902 32.45 20.1761 31.4668C21.1592 30.4837 22.4696 29.9392 23.8624 29.9392C25.2484 29.9392 26.5547 30.4768 27.5392 31.4545C28.5223 30.4782 29.8258 29.9392 31.2159 29.9392C32.6088 29.9392 33.9192 30.481 34.9023 31.4668C36.9346 33.4991 36.9346 36.806 34.9023 38.8396L28.1016 45.6403C27.9503 45.7861 27.7482 45.8713 27.5378 45.8713ZM23.8611 31.5232C22.9302 31.5232 22.0034 31.8766 21.2939 32.5861C19.8777 34.0023 19.8777 36.3013 21.2939 37.7176L27.5337 43.9573L33.7734 37.7176C35.1897 36.3013 35.1897 34.0023 33.7734 32.5861C32.3572 31.1698 30.0582 31.1698 28.6419 32.5861L28.0906 33.1375C27.7798 33.4482 27.2793 33.4482 26.9713 33.1375L26.4199 32.5861C25.7201 31.8766 24.7919 31.5232 23.8611 31.5232Z" fill="#020D19"/>
<path fill-rule="evenodd" clip-rule="evenodd" d="M38.2763 13.479H16.7988C16.3602 13.479 16.0068 13.1257 16.0068 12.687V4.32154C16.0068 3.88292 16.3602 3.52954 16.7988 3.52954H38.275C38.7136 3.52954 39.067 3.88292 39.067 4.32154V12.687C39.067 13.1229 38.7108 13.479 38.2763 13.479ZM17.5908 11.895H37.4843V5.11354H17.5908V11.895Z" fill="#020D19"/>
</svg>
