<svg width="30" height="30" viewBox="0 0 30 30" fill="none" xmlns="http://www.w3.org/2000/svg">
<path d="M12.03 26.8257C17.6544 26.8257 22.2139 22.2662 22.2139 16.6419C22.2139 11.0175 17.6544 6.45801 12.03 6.45801C6.40565 6.45801 1.84619 11.0175 1.84619 16.6419C1.84619 22.2662 6.40565 26.8257 12.03 26.8257Z" fill="#FF6D00"/>
<path d="M12.1452 24.5131L12.016 24.293C10.0429 20.9312 4.79974 13.7971 4.74678 13.7255L4.67114 13.6227L6.45747 11.8573L12.112 15.8057C15.6723 11.1858 18.9937 8.01259 21.1603 6.15957C23.5304 4.13255 25.0731 3.19938 25.0887 3.19043L25.1238 3.16943H28.1539L27.8644 3.4272C20.4205 10.0575 12.352 24.1497 12.2716 24.2913L12.1452 24.5131Z" fill="white"/>
</svg>
