<svg width="50" height="51" viewBox="0 0 50 51" fill="none" xmlns="http://www.w3.org/2000/svg">
<g clip-path="url(#clip0_162_3730)">
<path d="M25.0002 35.3442C21.1597 35.3442 17.6745 33.6479 14.9218 30.4386C12.8957 28.0767 11.9745 25.7157 11.9363 25.6163L11.7339 25.0903L11.9362 24.5644C11.9745 24.4649 12.8956 22.104 14.9217 19.7421C17.6745 16.5327 21.1597 14.8364 25.0002 14.8364C28.8407 14.8364 32.3259 16.5327 35.0786 19.7421C37.1047 22.104 38.0259 24.4649 38.0641 24.5644L38.2664 25.0903L38.0641 25.6163C38.0258 25.7157 37.1047 28.0767 35.0786 30.4386C32.3259 33.6479 28.8407 35.3442 25.0002 35.3442ZM14.9057 25.0904C15.2574 25.8252 16.0097 27.2234 17.2021 28.5969C19.4017 31.1302 22.0253 32.4146 25.0002 32.4146C27.9751 32.4146 30.5987 31.1302 32.7983 28.5969C33.9904 27.2238 34.7424 25.8264 35.0947 25.0903C34.7425 24.3543 33.9904 22.9567 32.7983 21.5838C30.5987 19.0505 27.9751 17.7661 25.0002 17.7661C22.0253 17.7661 19.4017 19.0505 17.2021 21.5838C16.01 22.9567 15.2579 24.3544 14.9057 25.0904Z" fill="#020D19"/>
<path d="M23.5352 0.090332H26.4648V8.87939H23.5352V0.090332Z" fill="#020D19"/>
<path d="M41.2109 23.6255H50V26.5552H41.2109V23.6255Z" fill="#020D19"/>
<path d="M23.5352 41.3013H26.4648V50.0903H23.5352V41.3013Z" fill="#020D19"/>
<path d="M0 23.6255H8.78906V26.5552H0V23.6255Z" fill="#020D19"/>
<path d="M25 29.4849C22.5769 29.4849 20.6055 27.5135 20.6055 25.0903C20.6055 22.6672 22.5769 20.6958 25 20.6958C27.4231 20.6958 29.3945 22.6672 29.3945 25.0903C29.3945 27.5135 27.4231 29.4849 25 29.4849ZM25 23.6255C24.1923 23.6255 23.5352 24.2826 23.5352 25.0903C23.5352 25.898 24.1923 26.5552 25 26.5552C25.8077 26.5552 26.4648 25.898 26.4648 25.0903C26.4648 24.2826 25.8077 23.6255 25 23.6255Z" fill="#020D19"/>
<path d="M43.3557 19.6468C42.4561 16.6083 40.7889 13.8104 38.5343 11.5559C36.2797 9.30127 33.4819 7.63408 30.4434 6.73447L31.275 3.92529C34.7805 4.96309 38.0071 6.88535 40.606 9.48418C43.2048 12.083 45.1271 15.3096 46.1648 18.8151L43.3557 19.6468Z" fill="#020D19"/>
<path d="M31.2755 46.2552L30.4438 43.446C33.4823 42.5464 36.2802 40.8792 38.5347 38.6246C40.7893 36.37 42.4564 33.5723 43.3561 30.5337L46.1652 31.3653C45.1274 34.8708 43.2052 38.0974 40.6063 40.6963C38.0074 43.2952 34.7809 45.2175 31.2755 46.2552Z" fill="#020D19"/>
<path d="M18.7248 46.2553C15.2193 45.2175 11.9928 43.2952 9.39395 40.6964C6.79512 38.0976 4.87285 34.871 3.83496 31.3655L6.64414 30.5337C7.54375 33.5723 9.21094 36.3701 11.4655 38.6247C13.7201 40.8793 16.5179 42.5465 19.5564 43.4461L18.7248 46.2553Z" fill="#020D19"/>
<path d="M6.64414 19.6468L3.83496 18.8151C4.87275 15.3097 6.79502 12.0831 9.39385 9.48428C11.9928 6.88535 15.2193 4.96309 18.7248 3.92529L19.5564 6.73447C16.518 7.63408 13.7201 9.30127 11.4655 11.5559C9.21094 13.8104 7.54375 16.6083 6.64414 19.6468Z" fill="#020D19"/>
</g>
<defs>
<clipPath id="clip0_162_3730">
<rect width="50" height="50" fill="white" transform="translate(0 0.090332)"/>
</clipPath>
</defs>
</svg>
