<svg width="50" height="51" viewBox="0 0 50 51" fill="none" xmlns="http://www.w3.org/2000/svg">
<path d="M44.3609 25.3452L38.9211 16.9449C38.4995 16.2938 37.7847 15.905 37.009 15.905H13.0083C12.2338 15.905 11.5197 16.2928 11.0979 16.9422L5.64124 25.3436C5.08362 26.202 5.16975 27.3354 5.85071 28.0997L23.2982 47.6875C23.73 48.1723 24.3499 48.4504 24.9991 48.4504C24.9991 48.4504 24.9992 48.4504 24.9991 48.4504C25.6483 48.4504 26.2685 48.1724 26.7003 47.6876L44.1497 28.0986C44.8297 27.3352 44.9165 26.203 44.3609 25.3452ZM35.9071 17.8581L31.3323 24.9323L26.7547 17.8581H35.9071ZM29.5374 25.7538H20.4609L24.9991 18.7402L29.5374 25.7538ZM23.2436 17.8583L18.6786 24.913L14.1153 17.8583H23.2436ZM12.3095 18.6625L16.8964 25.7538H7.70374L12.3095 18.6625ZM8.11624 27.7069H17.9448L23.1417 44.5755L8.11624 27.7069ZM24.9991 43.9708L19.9885 27.7069H30.0098L24.9991 43.9708ZM26.8565 44.5761L32.0535 27.707H41.883L26.8565 44.5761ZM33.1271 25.7538L37.7098 18.6673L42.2986 25.7538H33.1271Z" fill="#020D19"/>
<path d="M2.96221 25.7537H0.976562C0.437305 25.7537 0 26.1909 0 26.7302C0 27.2696 0.437305 27.7068 0.976562 27.7068H2.96221C3.50146 27.7068 3.93877 27.2696 3.93877 26.7302C3.93877 26.1909 3.50146 25.7537 2.96221 25.7537Z" fill="#020D19"/>
<path d="M49.0232 25.7537H47.0376C46.4983 25.7537 46.061 26.1909 46.061 26.7302C46.061 27.2696 46.4983 27.7068 47.0376 27.7068H49.0232C49.5625 27.7068 49.9998 27.2696 49.9998 26.7302C49.9998 26.1909 49.5625 25.7537 49.0232 25.7537Z" fill="#020D19"/>
<path d="M42.6898 9.05774C42.3084 8.67639 41.6902 8.67639 41.3087 9.05774L38.0648 12.3016C37.6835 12.6829 37.6835 13.3013 38.0648 13.6826C38.2556 13.8734 38.5055 13.9687 38.7554 13.9687C39.0054 13.9687 39.2552 13.8733 39.446 13.6826L42.6898 10.4388C43.0712 10.0574 43.0712 9.43918 42.6898 9.05774Z" fill="#020D19"/>
<path d="M11.9773 12.2841L8.73357 9.04016C8.35232 8.65881 7.73416 8.65881 7.35242 9.04016C6.97107 9.42151 6.97107 10.0399 7.35242 10.4212L10.5963 13.6651C10.787 13.8558 11.0369 13.9511 11.2868 13.9511C11.5367 13.9511 11.7866 13.8557 11.9773 13.6651C12.3587 13.2838 12.3587 12.6654 11.9773 12.2841Z" fill="#020D19"/>
<path d="M25.0249 1.73022C24.4856 1.73022 24.0483 2.16743 24.0483 2.70679V9.07085C24.0483 9.61021 24.4855 10.0474 25.0249 10.0474C25.5642 10.0474 26.0015 9.61021 26.0015 9.07085V2.70679C26.0015 2.16753 25.5642 1.73022 25.0249 1.73022Z" fill="#020D19"/>
<path d="M25.7147 11.6841C25.5332 11.5024 25.2812 11.3979 25.0244 11.3979C24.7676 11.3979 24.5156 11.5024 24.334 11.6841C24.1523 11.8657 24.0479 12.1177 24.0479 12.3745C24.0479 12.6323 24.1522 12.8833 24.334 13.0649C24.5156 13.2476 24.7676 13.3511 25.0244 13.3511C25.2812 13.3511 25.5332 13.2476 25.7147 13.0649C25.8974 12.8833 26.001 12.6313 26.001 12.3745C26.001 12.1177 25.8974 11.8658 25.7147 11.6841Z" fill="#020D19"/>
</svg>
