<svg width="72" height="73" viewBox="0 0 72 73" fill="none" xmlns="http://www.w3.org/2000/svg">
<path fill-rule="evenodd" clip-rule="evenodd" d="M3.90426 33.7219C3.50286 33.7219 3.13026 33.4879 2.96286 33.1135C2.77746 32.7067 2.87646 32.2279 3.20406 31.9219L15.6763 20.4271C15.8401 20.2759 16.0471 20.1805 16.2685 20.1589L33.3199 18.3319C33.7645 18.2851 34.1875 18.5263 34.3747 18.9367C34.5601 19.3435 34.4611 19.8223 34.1335 20.1283L21.6613 31.6195C21.4975 31.7707 21.2905 31.8661 21.0691 31.8877L4.01766 33.7147C3.97806 33.7219 3.94026 33.7219 3.90426 33.7219ZM16.8265 22.1839L6.91566 31.3207L20.5057 29.8645L30.4165 20.7277L16.8265 22.1839Z" fill="#020D19"/>
<path fill-rule="evenodd" clip-rule="evenodd" d="M15.6115 42.2729C14.7691 42.2729 14.0131 42.1955 13.3903 42.0479C12.2923 41.7887 11.5723 41.3009 11.2429 40.6043L7.84812 33.4367C7.60152 32.9183 7.82292 32.3009 8.34132 32.0543C8.85972 31.8077 9.47712 32.0291 9.72372 32.5475L13.1149 39.7061C13.1401 39.7367 13.3489 39.9347 14.0743 40.0733C14.7691 40.2065 15.6763 40.2335 16.7005 40.1561C19.1071 39.9653 21.8413 39.2273 24.3991 38.0735C26.9443 36.9251 29.2843 35.3771 30.9871 33.7193C31.7125 33.0155 32.2795 32.3243 32.6251 31.7285C32.9833 31.1111 32.9707 30.8339 32.9671 30.7907L29.5759 23.6375C29.3293 23.1191 29.5507 22.5017 30.0691 22.2551C30.5875 22.0085 31.2049 22.2299 31.4515 22.7483L34.8463 29.9159C35.1145 30.4811 35.1055 31.1507 34.8283 31.9121C34.3837 33.1217 33.2209 34.5779 31.5577 36.0071C29.7829 37.5371 27.6013 38.9015 25.2541 39.9635C22.3813 41.2595 19.3105 42.0677 16.6051 42.2405C16.2649 42.2639 15.9319 42.2729 15.6115 42.2729Z" fill="#020D19"/>
<path fill-rule="evenodd" clip-rule="evenodd" d="M6.03011 45.9132C5.45591 45.9132 4.98971 45.447 4.99331 44.8728L5.04011 32.4492C5.04011 31.8786 5.50631 31.416 6.07691 31.416H6.08051C6.65471 31.416 7.11731 31.8822 7.11371 32.4564L7.06691 44.88C7.06691 45.4506 6.60071 45.9132 6.03011 45.9132Z" fill="#020D19"/>
<path fill-rule="evenodd" clip-rule="evenodd" d="M68.1858 55.9024H14.5026C13.9284 55.9024 13.4658 55.4398 13.4658 54.8656V41.236C13.4658 40.6618 13.9284 40.1992 14.5026 40.1992C15.0768 40.1992 15.5394 40.6618 15.5394 41.236V53.8288H67.1508V31.849H34.002C33.4278 31.849 32.9652 31.3864 32.9652 30.8122C32.9652 30.238 33.4278 29.7754 34.002 29.7754H68.1858C68.76 29.7754 69.2226 30.238 69.2226 30.8122V54.8656C69.2226 55.4398 68.7618 55.9024 68.1858 55.9024Z" fill="#020D19"/>
<path fill-rule="evenodd" clip-rule="evenodd" d="M28.0369 46.849H20.1061C19.5319 46.849 19.0693 46.3864 19.0693 45.8122C19.0693 45.238 19.5319 44.7754 20.1061 44.7754H28.0369C28.6111 44.7754 29.0737 45.238 29.0737 45.8122C29.0737 46.3864 28.6075 46.849 28.0369 46.849Z" fill="#020D19"/>
<path fill-rule="evenodd" clip-rule="evenodd" d="M62.5789 40.9037H54.6481C54.0739 40.9037 53.6113 40.4411 53.6113 39.8669C53.6113 39.2927 54.0739 38.8301 54.6481 38.8301H62.5789C63.1531 38.8301 63.6157 39.2927 63.6157 39.8669C63.6157 40.4411 63.1531 40.9037 62.5789 40.9037Z" fill="#020D19"/>
<path fill-rule="evenodd" clip-rule="evenodd" d="M62.5789 46.849H54.6481C54.0739 46.849 53.6113 46.3864 53.6113 45.8122C53.6113 45.238 54.0739 44.7754 54.6481 44.7754H62.5789C63.1531 44.7754 63.6157 45.238 63.6157 45.8122C63.6157 46.3864 63.1531 46.849 62.5789 46.849Z" fill="#020D19"/>
<path fill-rule="evenodd" clip-rule="evenodd" d="M41.3424 49.8284C39.303 49.8284 37.5228 48.5972 37.0098 46.835C36.8496 46.286 37.1646 45.7118 37.7136 45.548C38.2626 45.3878 38.8368 45.7028 39.0006 46.2518C39.2562 47.1194 40.2354 47.7512 41.3424 47.7512C42.669 47.7512 43.7436 46.8836 43.7436 45.8108C43.7436 45.4868 43.7436 44.5112 41.0958 43.8452C39.951 43.5824 39.0186 43.172 38.313 42.632C37.3626 41.9066 36.8622 40.9472 36.8622 39.8636C36.8622 37.6514 38.871 35.8496 41.337 35.8496C43.3584 35.8496 45.135 37.0682 45.6606 38.8124C45.8244 39.3614 45.513 39.9392 44.9658 40.1048C44.4186 40.2704 43.839 39.9572 43.6734 39.41C43.4142 38.5496 42.4332 37.9232 41.337 37.9232C40.0104 37.9232 38.9358 38.7908 38.9358 39.8636C38.9358 40.1354 39.0006 40.5512 39.5748 40.9868C40.0374 41.3414 40.7286 41.6312 41.5746 41.8292C41.5782 41.8292 41.5872 41.8328 41.5926 41.8328C42.8022 42.1352 43.7274 42.542 44.4096 43.0676C45.3294 43.7768 45.8172 44.7272 45.8172 45.8144C45.8226 48.0266 43.8138 49.8284 41.3424 49.8284Z" fill="#020D19"/>
<path fill-rule="evenodd" clip-rule="evenodd" d="M41.3424 51.5945C40.7682 51.5945 40.3056 51.1319 40.3056 50.5577V35.1227C40.3056 34.5485 40.7682 34.0859 41.3424 34.0859C41.9166 34.0859 42.3792 34.5485 42.3792 35.1227V50.5577C42.3792 51.1283 41.9166 51.5945 41.3424 51.5945Z" fill="#020D19"/>
</svg>
