<svg width="55" height="56" viewBox="0 0 55 56" fill="none" xmlns="http://www.w3.org/2000/svg">
<path fill-rule="evenodd" clip-rule="evenodd" d="M13.5365 27.5505C13.3976 27.5505 13.256 27.5147 13.1267 27.4377C11.705 26.5825 10.8263 25.521 10.517 24.2835C10.4276 23.9232 10.4152 23.4777 10.3877 22.5977C10.3616 21.7067 10.374 21.0935 10.3808 20.6411C10.3946 19.9385 10.3946 19.7405 10.2846 19.4724C10.1553 19.185 9.13921 17.9145 8.02133 16.7072C7.72433 16.3869 7.74358 15.885 8.06396 15.588C8.38433 15.291 8.88621 15.3102 9.18321 15.6306C9.27533 15.7296 11.4245 18.0589 11.7545 18.8811C11.9855 19.4586 11.9786 19.8904 11.9621 20.67C11.9552 21.1017 11.9428 21.6999 11.9648 22.551C11.9841 23.2206 11.9978 23.7032 12.0473 23.8971C12.2522 24.7125 12.8861 25.4454 13.9352 26.0779C14.312 26.302 14.4302 26.7901 14.2061 27.1641C14.0672 27.4116 13.8032 27.5505 13.5365 27.5505Z" fill="#020D19"/>
<path fill-rule="evenodd" clip-rule="evenodd" d="M24.4657 13.6892C24.2842 13.6892 24.1055 13.63 23.957 13.5049C22.67 12.4228 21.4187 12.1918 20.5937 12.0364C20.3132 11.9842 20.0685 11.9402 19.865 11.8687C19.0001 11.5689 18.3662 11.2747 16.3601 9.1324C16.0603 8.81203 16.0768 8.31015 16.3958 8.01315C16.7162 7.7134 17.2181 7.7299 17.5151 8.0489C19.3603 10.0124 19.7893 10.1637 20.3861 10.3727C20.4782 10.4057 20.6735 10.4414 20.8811 10.4785C21.812 10.6504 23.3657 10.9378 24.9758 12.2908C25.3086 12.5713 25.3526 13.0732 25.0721 13.4059C24.914 13.5943 24.6898 13.6892 24.4657 13.6892Z" fill="#020D19"/>
<path fill-rule="evenodd" clip-rule="evenodd" d="M6.73134 18.6665C6.71759 18.6665 6.70522 18.6665 6.69559 18.6665C6.48384 18.6569 6.28997 18.5648 6.14834 18.4094L3.41622 15.4064C3.12197 15.0833 3.14534 14.5814 3.46847 14.2872C3.79159 13.9929 4.29347 14.0163 4.58772 14.3394L6.78497 16.7553L17.741 6.78655L15.5437 4.37067C15.2495 4.04755 15.2728 3.54567 15.596 3.25142C15.9191 2.95717 16.421 2.98055 16.7152 3.30367L19.4473 6.30667C19.7416 6.6298 19.7182 7.13167 19.3951 7.42592L7.26484 18.4617C7.11772 18.5937 6.92659 18.6665 6.73134 18.6665Z" fill="#020D19"/>
<path fill-rule="evenodd" clip-rule="evenodd" d="M7.71396 42.9807C7.58471 42.9807 7.45684 42.9505 7.33447 42.8845C6.95222 42.6727 6.80922 42.1942 7.02097 41.8092L12.7162 31.3909C13.0036 30.8532 13.3693 30.3651 13.808 29.9416L21.3416 22.6981C21.6578 22.3942 22.157 22.4039 22.4608 22.7215C22.7647 23.0377 22.7551 23.5369 22.4375 23.8407L14.9038 31.0842C14.5835 31.3909 14.3167 31.747 14.1091 32.1375C14.1063 32.1402 14.1063 32.1444 14.1022 32.1471L8.40284 42.5724C8.26534 42.8322 7.99446 42.9807 7.71396 42.9807Z" fill="#020D19"/>
<path fill-rule="evenodd" clip-rule="evenodd" d="M13.2221 48.9302C12.9155 48.9302 12.6213 48.7487 12.4934 48.4489C12.3215 48.0461 12.5099 47.5813 12.9086 47.4094C15.1499 46.4524 16.8824 46.6834 18.41 46.8883C19.1553 46.9873 19.862 47.0836 20.5358 47.0107C22.7303 46.7797 26.671 45.5945 27.617 44.335C27.7916 44.104 27.9993 43.5952 27.8618 43.1566C27.7531 42.8101 27.419 42.5433 26.8718 42.3673C26.4565 42.2326 26.2283 41.7871 26.3603 41.3705C26.495 40.9552 26.9405 40.727 27.3571 40.859C28.6799 41.2852 29.1818 42.0827 29.3701 42.6767C29.6933 43.6928 29.311 44.7199 28.8848 45.2864C28.244 46.1417 26.9405 46.9103 25.0073 47.5772C23.6048 48.0626 21.9149 48.4586 20.7035 48.5837C19.8428 48.6758 19.0109 48.5644 18.2051 48.4544C16.8164 48.2702 15.3768 48.0777 13.5356 48.8642C13.4325 48.9068 13.328 48.9302 13.2221 48.9302Z" fill="#020D19"/>
<path fill-rule="evenodd" clip-rule="evenodd" d="M18.588 33.4437C18.3873 33.4437 18.1824 33.368 18.027 33.2127C17.7163 32.9019 17.7163 32.4014 18.027 32.0934L27.4128 22.7077C27.7235 22.3969 28.224 22.3969 28.532 22.7077C28.8428 23.0184 28.8428 23.5189 28.532 23.8269L19.1463 33.2127C18.9936 33.368 18.7901 33.4437 18.588 33.4437Z" fill="#020D19"/>
<path fill-rule="evenodd" clip-rule="evenodd" d="M22.3634 36.5196C22.1626 36.5196 21.9578 36.444 21.8024 36.2886C21.4916 35.9778 21.4916 35.4773 21.8024 35.1693L31.2968 25.675C31.6075 25.3642 32.108 25.3642 32.416 25.675C32.7268 25.9857 32.7268 26.4862 32.416 26.7942L22.9216 36.2886C22.769 36.4426 22.5683 36.5196 22.3634 36.5196Z" fill="#020D19"/>
<path fill-rule="evenodd" clip-rule="evenodd" d="M23.0402 41.9411C22.8394 41.9411 22.6345 41.8654 22.4792 41.7101C22.1684 41.3993 22.1684 40.8988 22.4792 40.5908L33.0818 29.9882C33.3925 29.6774 33.893 29.6774 34.201 29.9882C34.5118 30.2989 34.5118 30.7994 34.201 31.1074L23.5984 41.7101C23.443 41.8654 23.2409 41.9411 23.0402 41.9411Z" fill="#020D19"/>
<path fill-rule="evenodd" clip-rule="evenodd" d="M12.1335 53.7344C11.919 53.7344 11.7073 53.6492 11.5533 53.4801C11.2563 53.1597 11.2755 52.6578 11.5959 52.3608L13.9953 50.1402L6.08213 41.5739L3.6855 43.7918C3.36513 44.0888 2.86325 44.0696 2.56625 43.7492C2.26925 43.4288 2.2885 42.9269 2.60888 42.6299L5.5885 39.8717C5.74388 39.7301 5.94875 39.6544 6.15638 39.6599C6.36813 39.6668 6.56613 39.7589 6.70775 39.9143L15.6934 49.6424C15.9904 49.9628 15.9711 50.4647 15.6508 50.7617L12.6711 53.5199C12.5199 53.6657 12.3274 53.7344 12.1335 53.7344Z" fill="#020D19"/>
<path fill-rule="evenodd" clip-rule="evenodd" d="M28.0633 14.1677C27.9245 14.1677 27.7828 14.132 27.6536 14.055C27.2768 13.8309 27.1586 13.3427 27.3827 12.9687C28.238 11.547 29.2995 10.6684 30.537 10.359C30.8972 10.2696 31.3427 10.2572 32.2227 10.2297C33.1137 10.2036 33.727 10.216 34.1793 10.2229C34.882 10.2366 35.08 10.2366 35.3481 10.1266C35.6355 9.99737 36.906 8.98125 38.1132 7.86337C38.4336 7.56637 38.9355 7.58562 39.2325 7.906C39.5295 8.22637 39.5102 8.72825 39.1898 9.02525C39.0908 9.11737 36.7616 11.2665 35.9393 11.5965C35.3618 11.8275 34.9301 11.8206 34.1505 11.8041C33.7187 11.7972 33.1206 11.7849 32.2695 11.8069C31.5998 11.8261 31.1172 11.8399 30.9233 11.8894C30.108 12.0942 29.3751 12.7281 28.7426 13.7772C28.5941 14.033 28.3328 14.1677 28.0633 14.1677Z" fill="#020D19"/>
<path fill-rule="evenodd" clip-rule="evenodd" d="M41.9236 25.0976C41.7421 25.0976 41.5634 25.0385 41.4149 24.9134C41.0821 24.6329 41.0381 24.131 41.3186 23.7983C42.4008 22.5113 42.6318 21.26 42.7871 20.435C42.8394 20.1545 42.8834 19.9098 42.9549 19.7063C43.2546 18.8414 43.5489 18.2075 45.6911 16.2014C46.0115 15.9016 46.5134 15.9181 46.8104 16.2371C47.1101 16.5575 47.0936 17.0594 46.7746 17.3564C44.8111 19.1975 44.6599 19.6306 44.4509 20.2274C44.4179 20.3195 44.3821 20.5148 44.345 20.7224C44.1731 21.6533 43.8858 23.207 42.5328 24.8171C42.3719 25.0028 42.1478 25.0976 41.9236 25.0976Z" fill="#020D19"/>
<path fill-rule="evenodd" clip-rule="evenodd" d="M47.977 19.4917C47.7625 19.4917 47.548 19.4064 47.3899 19.2345L36.3542 7.10704C36.2125 6.95166 36.1397 6.74679 36.1493 6.53641C36.1589 6.32604 36.251 6.13079 36.4064 5.98916L39.4094 3.25704C39.7325 2.96279 40.2344 2.98616 40.5287 3.30929C40.8229 3.63241 40.7995 4.13429 40.4764 4.42854L38.0605 6.62441L48.0293 17.5804L50.4452 15.3832C50.7683 15.0889 51.2702 15.1123 51.5644 15.4354C51.8587 15.7585 51.8353 16.2604 51.5122 16.5547L48.5092 19.2868C48.3607 19.4215 48.1695 19.4917 47.977 19.4917Z" fill="#020D19"/>
<path fill-rule="evenodd" clip-rule="evenodd" d="M47.2513 39.0277C47.0533 39.0277 46.8526 38.952 46.6972 38.8035C46.601 38.7114 44.335 36.4908 43.9651 35.6878C43.7038 35.124 43.6915 34.6909 43.6653 33.9085C43.6516 33.4768 43.6323 32.8828 43.5663 32.0303C43.5141 31.3634 43.4742 30.8822 43.4178 30.6869C43.1731 29.8853 42.5007 29.1827 41.4213 28.6052C41.035 28.4003 40.8906 27.919 41.0941 27.5327C41.2976 27.1463 41.7802 27.0019 42.1666 27.2054C43.6323 27.9878 44.5618 29.0039 44.9317 30.2222C45.0403 30.5783 45.0733 31.021 45.1462 31.8983C45.215 32.7865 45.2356 33.4025 45.2521 33.8522C45.2755 34.5548 45.2851 34.7528 45.4075 35.0168C45.5532 35.2973 46.6312 36.5155 47.8068 37.6637C48.1203 37.9703 48.1272 38.4722 47.8206 38.7829C47.6611 38.9452 47.4562 39.0277 47.2513 39.0277Z" fill="#020D19"/>
<path fill-rule="evenodd" clip-rule="evenodd" d="M39.3188 47.0163C39.1208 47.0163 38.9228 46.9435 38.7716 46.795C36.8315 44.9277 36.3928 44.7985 35.7851 44.6197C35.693 44.5936 35.495 44.5675 35.2832 44.5372C34.3455 44.4121 32.778 44.2045 31.1018 42.934C30.7526 42.67 30.6866 42.1722 30.9506 41.8257C31.2146 41.4765 31.7123 41.4105 32.0588 41.6745C33.4022 42.6906 34.659 42.8597 35.4908 42.9683C35.7741 43.0041 36.0188 43.0371 36.2265 43.1003C37.1037 43.3575 37.7513 43.6187 39.8661 45.6551C40.1796 45.959 40.1892 46.4608 39.8853 46.7743C39.7341 46.9338 39.5265 47.0163 39.3188 47.0163Z" fill="#020D19"/>
<path fill-rule="evenodd" clip-rule="evenodd" d="M40.3718 51.719C40.1711 51.719 39.969 51.6434 39.8136 51.488L36.933 48.6266C36.7845 48.4781 36.6992 48.2774 36.6992 48.0684C36.6992 47.8566 36.7817 47.6559 36.9302 47.5074L48.483 35.8721C48.7896 35.5614 49.2915 35.5586 49.6022 35.8694L52.4828 38.7308C52.7936 39.0374 52.7963 39.5393 52.4856 39.85C52.179 40.1608 51.6771 40.1635 51.3663 39.8528L49.0467 37.5496L38.6118 48.0601L40.9315 50.3633C41.2422 50.6699 41.245 51.1718 40.9342 51.4825C40.7775 51.6393 40.5726 51.719 40.3718 51.719Z" fill="#020D19"/>
</svg>
