<svg width="21" height="21" viewBox="0 0 21 21" fill="none" xmlns="http://www.w3.org/2000/svg">
<path d="M18.6191 3.25537C17.6498 3.25537 16.8612 4.04392 16.8612 5.01318V5.69991C16.6778 5.63487 16.4807 5.59912 16.2753 5.59912C15.306 5.59912 14.5175 6.38766 14.5175 7.35693V9.21563C14.2785 9.2997 14.0542 9.43681 13.8631 9.62704L12.0264 11.4247C12.0249 11.4261 12.0233 11.4276 12.022 11.4291C11.311 12.14 10.7555 12.9715 10.3708 13.9003C10.369 13.9046 10.3673 13.9088 10.3656 13.9132C9.97848 12.9973 9.41213 12.1484 8.69278 11.4291L6.89321 9.62962C6.70455 9.44096 6.4806 9.30062 6.23632 9.21452V7.35693C6.23632 6.38766 5.44777 5.59912 4.47851 5.59912C4.27313 5.59912 4.07597 5.63487 3.89257 5.69991V5.01318C3.89257 4.04392 3.10402 3.25537 2.13476 3.25537C1.1655 3.25537 0.376953 4.04392 0.376953 5.01318V11.3952C0.376953 11.9261 0.521358 12.4472 0.794463 12.9025L2.77022 16.1955C3.51913 17.4437 3.93165 18.8967 3.93165 20.2866C3.93165 20.6102 4.19404 20.8725 4.51759 20.8725H10.377H16.2363C16.5599 20.8725 16.8223 20.6102 16.8223 20.2866C16.8223 18.8967 17.2347 17.4438 17.9837 16.1955L19.9595 12.9025C20.2326 12.4473 20.377 11.9261 20.377 11.3952V5.01318C20.3768 4.04392 19.5882 3.25537 18.6191 3.25537ZM3.89248 7.35693C3.89248 7.03384 4.15533 6.77099 4.47842 6.77099C4.8015 6.77099 5.06435 7.03384 5.06435 7.35693V9.21452C4.82007 9.30072 4.59612 9.44106 4.40746 9.62962C4.26222 9.77486 4.14784 9.93922 4.06414 10.1148C3.95346 10.0041 3.89248 9.857 3.89248 9.7004C3.89248 9.45205 3.89248 7.60536 3.89248 7.35693ZM9.79092 19.7006H5.08265C4.98296 18.2854 4.52747 16.8466 3.77505 15.5926L1.7993 12.2996C1.6354 12.0265 1.54883 11.7138 1.54883 11.3952V5.01318C1.54883 4.69009 1.81168 4.42724 2.13476 4.42724C2.45785 4.42724 2.7207 4.69009 2.7207 5.01318C2.7207 5.2145 2.7207 9.51137 2.7207 9.70049V9.70197C2.7207 9.70243 2.72079 9.70289 2.72079 9.70335C2.72153 10.1719 2.90428 10.6121 3.23559 10.9435L6.40798 14.1159C6.63673 14.3446 7.00777 14.3446 7.23662 14.1159C7.46547 13.887 7.46547 13.5161 7.23662 13.2872L5.2362 11.2868C5.00781 11.0584 5.00781 10.6867 5.2362 10.4584C5.46532 10.2292 5.83553 10.2292 6.06466 10.4584L7.86423 12.2579C9.08876 13.4825 9.79111 15.1436 9.79111 16.8154V19.7006H9.79092ZM15.6894 7.35693C15.6894 7.03384 15.9522 6.77099 16.2753 6.77099C16.5984 6.77099 16.8612 7.03384 16.8612 7.35693C16.8612 7.6049 16.8612 9.45205 16.8612 9.70049C16.8612 9.857 16.8004 10.0042 16.6897 10.1149L16.6896 10.1149C16.6059 9.93941 16.4915 9.77495 16.3463 9.62981C16.1546 9.43819 15.9294 9.30016 15.6894 9.21572V7.35693ZM19.205 11.3952C19.205 11.7137 19.1183 12.0264 18.9545 12.2996L16.9788 15.5926C16.2263 16.8467 15.7709 18.2854 15.6711 19.7006H10.9629V16.8152C10.9629 15.0946 11.6325 13.477 12.8486 12.2599L14.6847 10.4626C14.6862 10.4611 14.6878 10.4597 14.6892 10.4582C14.9176 10.2297 15.2892 10.2297 15.5176 10.4582C15.7467 10.6873 15.7467 11.0575 15.5176 11.2866L13.5172 13.2871C13.2883 13.5159 13.2883 13.8869 13.5172 14.1157C13.7459 14.3446 14.117 14.3446 14.3458 14.1157L17.5182 10.9433C17.8494 10.6121 18.0321 10.172 18.033 9.70363C18.033 9.70317 18.0331 9.70261 18.0331 9.70206V9.7004C18.0331 9.51377 18.0331 5.2157 18.0331 5.01309C18.0331 4.69 18.296 4.42715 18.6191 4.42715C18.9421 4.42715 19.205 4.69 19.205 5.01309V11.3952Z" fill="#FF6D00"/>
<path d="M12.4049 0.872559C11.5986 0.872559 10.8986 1.24175 10.3767 1.94105C9.85465 1.24175 9.15471 0.872559 8.34842 0.872559C6.83138 0.872559 5.73425 2.13128 5.73425 3.66024C5.73425 5.6153 7.57715 6.83882 9.99287 8.93256C10.103 9.028 10.2398 9.07576 10.3767 9.07576C10.5135 9.07576 10.6503 9.028 10.7604 8.93256C13.178 6.83734 15.0191 5.61465 15.0191 3.66024C15.0191 2.13026 13.921 0.872559 12.4049 0.872559ZM10.3767 7.71689C8.24532 5.89681 6.90612 4.9281 6.90612 3.66015C6.90612 2.73902 7.52615 2.04434 8.34842 2.04434C9.41774 2.04434 9.797 3.32043 9.81271 3.37521C9.88385 3.62762 10.1138 3.80353 10.3763 3.80353C10.6396 3.80353 10.8703 3.6291 10.9406 3.37531C10.9562 3.32098 11.3353 2.04443 12.4049 2.04443C13.2272 2.04443 13.8472 2.73902 13.8472 3.66024C13.8472 4.92866 12.5068 5.89773 10.3767 7.71689Z" fill="#020D19"/>
</svg>
