<svg width="56" height="56" viewBox="0 0 56 56" fill="none" xmlns="http://www.w3.org/2000/svg">
<path fill-rule="evenodd" clip-rule="evenodd" d="M48.6231 52.9486H7.11603C6.71728 52.9486 6.3804 52.6516 6.3309 52.2556L2.69815 23.4232C2.6679 23.1991 2.74078 22.9709 2.88928 22.799C3.03778 22.6271 3.25503 22.5322 3.48328 22.5322H52.5873C52.8155 22.5322 53.0328 22.6312 53.184 22.8031C53.3353 22.975 53.4013 23.206 53.3724 23.4301L49.4096 52.2652C49.356 52.6544 49.0205 52.9486 48.6231 52.9486ZM7.81315 51.3646H47.9343L51.6798 24.1204H4.38115L7.81315 51.3646Z" fill="#020D19"/>
<path fill-rule="evenodd" clip-rule="evenodd" d="M52.5874 21.1628H3.48341C3.04478 21.1628 2.69141 20.8094 2.69141 20.3708V18.6287C2.69141 17.0708 3.95916 15.8003 5.51978 15.8003H50.551C52.1089 15.8003 53.3794 17.068 53.3794 18.6287V20.3708C53.3794 20.8094 53.026 21.1628 52.5874 21.1628ZM4.27541 19.5788H51.7954V18.6287C51.7954 17.9425 51.2372 17.3843 50.551 17.3843H5.51978C4.83366 17.3843 4.27541 17.9425 4.27541 18.6287V19.5788Z" fill="#020D19"/>
<path fill-rule="evenodd" clip-rule="evenodd" d="M36.1297 13.3158H19.9404C19.5018 13.3158 19.1484 12.9624 19.1484 12.5238V6.80103C19.1484 6.36241 19.5018 6.00903 19.9404 6.00903H36.1338C36.5724 6.00903 36.9258 6.36241 36.9258 6.80103V12.5238C36.9217 12.9597 36.5683 13.3158 36.1297 13.3158ZM20.7324 11.7318H35.3418V7.59303H20.7324V11.7318Z" fill="#020D19"/>
<path fill-rule="evenodd" clip-rule="evenodd" d="M48.8346 17.3843H7.23536C6.79673 17.3843 6.44336 17.0309 6.44336 16.5923V14.5559C6.44336 12.998 7.71111 11.7275 9.27173 11.7275H46.8024C48.3602 11.7275 49.6307 12.9953 49.6307 14.5559V16.5923C49.6266 17.0309 49.2732 17.3843 48.8346 17.3843ZM8.02736 15.8003H48.0426V14.5559C48.0426 13.8698 47.4844 13.3115 46.7982 13.3115H9.27036C8.58423 13.3115 8.02598 13.8698 8.02598 14.5559L8.02736 15.8003Z" fill="#020D19"/>
<path fill-rule="evenodd" clip-rule="evenodd" d="M28.0359 45.708C27.8241 45.708 27.6234 45.6255 27.4749 45.477L20.6741 38.6763C19.691 37.6931 19.1465 36.3828 19.1465 34.9899C19.1465 33.597 19.6882 32.2866 20.6741 31.3035C21.6572 30.3204 22.9676 29.7759 24.3605 29.7759C25.7465 29.7759 27.0527 30.3135 28.0372 31.2911C29.0204 30.3149 30.3239 29.7759 31.714 29.7759C33.1069 29.7759 34.4172 30.3176 35.4004 31.3035C37.4326 33.3358 37.4326 36.6426 35.4004 38.6763L28.5996 45.477C28.4484 45.6228 28.2462 45.708 28.0359 45.708ZM24.3591 31.3599C23.4282 31.3599 22.5015 31.7133 21.792 32.4228C20.3757 33.839 20.3757 36.138 21.792 37.5543L28.0317 43.794L34.2715 37.5543C35.6877 36.138 35.6877 33.839 34.2715 32.4228C32.8552 31.0065 30.5562 31.0065 29.14 32.4228L28.5886 32.9741C28.2779 33.2849 27.7774 33.2849 27.4694 32.9741L26.918 32.4228C26.2181 31.7133 25.29 31.3599 24.3591 31.3599Z" fill="#020D19"/>
<path fill-rule="evenodd" clip-rule="evenodd" d="M38.7734 13.3157H17.2959C16.8573 13.3157 16.5039 12.9623 16.5039 12.5237V4.15821C16.5039 3.71959 16.8573 3.36621 17.2959 3.36621H38.772C39.2107 3.36621 39.564 3.71959 39.564 4.15821V12.5237C39.564 12.9596 39.2079 13.3157 38.7734 13.3157ZM18.0879 11.7317H37.9814V4.95021H18.0879V11.7317Z" fill="#020D19"/>
</svg>
