<svg width="72" height="73" viewBox="0 0 72 73" fill="none" xmlns="http://www.w3.org/2000/svg">
<path d="M61.4354 68.2904H10.5645C10.3065 68.2904 10.059 68.1879 9.87653 68.0054C9.69406 67.8229 9.59155 67.5755 9.59155 67.3174V34.6148C9.59155 34.3568 9.69406 34.1093 9.87653 33.9268C10.059 33.7444 10.3065 33.6418 10.5645 33.6418H61.4354C61.6935 33.6418 61.941 33.7444 62.1234 33.9268C62.3059 34.1093 62.4084 34.3568 62.4084 34.6148V67.3174C62.4084 67.5755 62.3059 67.8229 62.1234 68.0054C61.941 68.1879 61.6935 68.2904 61.4354 68.2904ZM11.5375 66.3444H60.4625V35.5878H11.5375V66.3444Z" fill="#020D19"/>
<path d="M69.0811 35.5877H2.91898C2.72224 35.5876 2.53015 35.5279 2.36803 35.4165C2.20592 35.305 2.0814 35.147 2.0109 34.9634C1.9404 34.7797 1.92724 34.579 1.97315 34.3877C2.01906 34.1964 2.12189 34.0235 2.26806 33.8918L35.3491 4.08867C35.5278 3.92785 35.7597 3.83887 36.0001 3.83887C36.2404 3.83887 36.4723 3.92785 36.651 4.08867L69.7321 33.8918C69.8782 34.0235 69.9811 34.1964 70.027 34.3877C70.0729 34.579 70.0597 34.7797 69.9892 34.9634C69.9187 35.147 69.7942 35.305 69.6321 35.4165C69.47 35.5279 69.2779 35.5876 69.0811 35.5877ZM5.44871 33.6417H66.5514L36.0001 6.12121L5.44871 33.6417Z" fill="#020D19"/>
<path d="M36.0001 28.5239C34.8214 28.5239 33.6692 28.1744 32.6892 27.5196C31.7092 26.8647 30.9453 25.934 30.4943 24.845C30.0432 23.7561 29.9252 22.5578 30.1552 21.4018C30.3851 20.2458 30.9527 19.1839 31.7861 18.3505C32.6196 17.517 33.6815 16.9494 34.8375 16.7195C35.9935 16.4895 37.1917 16.6076 38.2807 17.0586C39.3696 17.5097 40.3004 18.2735 40.9552 19.2535C41.6101 20.2336 41.9596 21.3858 41.9596 22.5644C41.9578 24.1444 41.3293 25.6592 40.2121 26.7764C39.0949 27.8937 37.5801 28.5221 36.0001 28.5239ZM36.0001 18.5509C35.2063 18.5509 34.4303 18.7863 33.7703 19.2273C33.1103 19.6683 32.5959 20.2952 32.2921 21.0285C31.9883 21.7619 31.9089 22.5689 32.0637 23.3474C32.2186 24.126 32.6008 24.8411 33.1621 25.4024C33.7234 25.9637 34.4386 26.346 35.2171 26.5008C35.9957 26.6557 36.8026 26.5762 37.536 26.2724C38.2694 25.9687 38.8962 25.4543 39.3372 24.7942C39.7782 24.1342 40.0136 23.3582 40.0136 22.5644C40.0123 21.5004 39.5891 20.4803 38.8367 19.7279C38.0843 18.9755 37.0642 18.5522 36.0001 18.5509Z" fill="#020D19"/>
<path d="M38.1027 60.0968C37.9029 60.0968 37.7079 60.0354 37.5442 59.9207C37.5024 59.8915 36.5012 59.1871 35.1565 58.0127C34.9692 57.8412 34.8564 57.6033 34.8421 57.3497C34.8279 57.0961 34.9133 56.8471 35.0802 56.6556C35.2471 56.4642 35.4822 56.3457 35.7354 56.3252C35.9885 56.3048 36.2396 56.3842 36.435 56.5464C37.1161 57.138 37.6999 57.605 38.1027 57.9086C39.9834 56.4686 45.9731 51.4967 45.9731 46.6474C45.9958 45.568 45.5897 44.5235 44.8438 43.743C44.0979 42.9624 43.0729 42.5094 41.9936 42.4831C41.3871 42.4862 40.7897 42.6311 40.2491 42.9061C39.7086 43.1811 39.2397 43.5787 38.8801 44.0671C38.7856 44.1821 38.6668 44.2749 38.5322 44.3385C38.3976 44.4022 38.2506 44.4352 38.1017 44.4352C37.9528 44.4352 37.8058 44.4022 37.6712 44.3385C37.5366 44.2749 37.4178 44.1821 37.3233 44.0671C36.9637 43.5787 36.4949 43.1811 35.9543 42.9061C35.4137 42.6311 34.8163 42.4862 34.2098 42.4831C33.1992 42.5096 32.2347 42.9116 31.5044 43.6106C30.7741 44.3096 30.3303 45.2556 30.2595 46.264C30.253 46.3944 30.2203 46.522 30.1635 46.6395C30.1066 46.7569 30.0267 46.8617 29.9285 46.9476C29.8303 47.0335 29.7158 47.0988 29.5919 47.1396C29.4679 47.1804 29.337 47.1958 29.207 47.185C29.077 47.1741 28.9504 47.1373 28.8349 47.0765C28.7195 47.0158 28.6174 46.9325 28.5347 46.8315C28.4521 46.7305 28.3906 46.6139 28.354 46.4887C28.3173 46.3635 28.3063 46.2321 28.3214 46.1025C28.4356 44.6089 29.1023 43.2114 30.1915 42.1828C31.2806 41.1543 32.714 40.5686 34.2118 40.54C35.6518 40.5386 37.0402 41.0763 38.1037 42.0472C39.1671 41.0763 40.5555 40.5386 41.9955 40.54C43.591 40.5664 45.1108 41.2245 46.2216 42.37C47.3325 43.5155 47.9436 45.0548 47.921 46.6503C47.921 53.3882 39.0397 59.658 38.6612 59.9217C38.4974 60.036 38.3024 60.0971 38.1027 60.0968Z" fill="#020D19"/>
<path d="M32.2054 61.3968C32.006 61.3969 31.8114 61.3358 31.6479 61.2217C31.3394 61.0057 24.0791 55.8771 24.0791 50.3322C24.0606 48.9924 24.5743 47.7001 25.5075 46.7386C26.4407 45.7772 27.7171 45.2251 29.0568 45.2036C30.2104 45.2022 31.3267 45.612 32.2054 46.3595C33.0833 45.6121 34.199 45.2023 35.352 45.2036C36.6918 45.2249 37.9685 45.7768 38.9019 46.7383C39.8353 47.6998 40.3491 48.9923 40.3307 50.3322C40.3307 55.8781 33.0703 61.0057 32.7619 61.2217C32.5987 61.3356 32.4044 61.3967 32.2054 61.3968ZM29.0597 47.1496C28.2361 47.171 27.4546 47.518 26.8863 48.1145C26.3181 48.711 26.0094 49.5085 26.028 50.3322C26.028 54.081 30.5932 57.9554 32.2083 59.2086C33.8224 57.9554 38.3876 54.081 38.3876 50.3322C38.4062 49.5083 38.0974 48.7107 37.5289 48.1142C36.9604 47.5176 36.1787 47.1707 35.3549 47.1496C34.8932 47.152 34.4384 47.2622 34.0268 47.4713C33.6152 47.6804 33.258 47.9827 32.9837 48.3541C32.8894 48.4683 32.7711 48.5602 32.6371 48.6233C32.5031 48.6865 32.3569 48.7192 32.2088 48.7192C32.0607 48.7192 31.9144 48.6865 31.7804 48.6233C31.6465 48.5602 31.5281 48.4683 31.4338 48.3541C31.1592 47.9824 30.8015 47.6799 30.3894 47.4708C29.9772 47.2617 29.5219 47.1517 29.0597 47.1496Z" fill="#020D19"/>
</svg>
