<svg width="56" height="56" viewBox="0 0 56 56" fill="none" xmlns="http://www.w3.org/2000/svg">
<path d="M9.15491 50.497H3.72923C3.26751 50.4974 2.82453 50.3145 2.49769 49.9883C2.17085 49.6622 1.98692 49.2196 1.98633 48.7579V29.5175C1.98672 29.0562 2.17016 28.6139 2.49638 28.2876C2.82259 27.9614 3.26492 27.778 3.72626 27.7776H9.15194C9.61315 27.7782 10.0553 27.9617 10.3813 28.2879C10.7074 28.6141 10.8907 29.0563 10.8911 29.5175V48.7579C10.8905 49.2184 10.7075 49.66 10.3821 49.986C10.0567 50.3119 9.61547 50.4957 9.15491 50.497ZM3.72626 29.2641C3.65904 29.2641 3.59458 29.2908 3.54705 29.3383C3.49952 29.3858 3.47281 29.4503 3.47281 29.5175V48.7579C3.47301 48.8249 3.4998 48.8892 3.54731 48.9366C3.59482 48.984 3.65917 49.0106 3.72626 49.0106H9.15194C9.2189 49.0104 9.28306 48.9837 9.33041 48.9363C9.37776 48.889 9.40444 48.8248 9.40464 48.7579V29.5175C9.40464 29.4504 9.37804 29.3861 9.33067 29.3386C9.2833 29.2911 9.21903 29.2643 9.15194 29.2641H3.72626Z" fill="#020D19"/>
<path d="M27.9067 51.6097C25.9551 51.61 24.0188 51.2648 22.1875 50.59L18.139 49.0983C15.6541 48.1813 13.0261 47.7128 10.3773 47.7144H10.1544C9.95726 47.7144 9.76821 47.6361 9.62882 47.4967C9.48944 47.3573 9.41113 47.1683 9.41113 46.9711C9.41113 46.774 9.48944 46.585 9.62882 46.4456C9.76821 46.3062 9.95726 46.2279 10.1544 46.2279H10.3773C13.2013 46.2263 16.0032 46.7258 18.6526 47.7032L22.7018 49.1949C24.9788 50.0335 27.4245 50.3101 29.8313 50.0012C32.238 49.6924 34.5347 48.8072 36.5261 47.4208L52.2145 36.4951C51.3891 35.5336 50.2735 34.8664 49.0359 34.5942C47.7982 34.3219 46.5056 34.4593 45.3529 34.9856L33.7732 40.227C33.6842 40.2673 33.5882 40.2897 33.4905 40.2929C33.3929 40.2961 33.2956 40.28 33.2042 40.2456C33.1128 40.2112 33.0291 40.1591 32.9578 40.0923C32.8865 40.0256 32.829 39.9454 32.7887 39.8564C32.7484 39.7675 32.726 39.6714 32.7228 39.5738C32.7196 39.4762 32.7357 39.3789 32.7701 39.2875C32.8045 39.1961 32.8566 39.1123 32.9234 39.0411C32.9901 38.9698 33.0703 38.9123 33.1592 38.872L44.7367 33.6314C46.3243 32.9069 48.1182 32.7727 49.7959 33.253C51.4735 33.7333 52.9247 34.7965 53.8883 36.2513C53.9963 36.4133 54.0365 36.6111 54.0002 36.8023C53.964 36.9936 53.8541 37.1629 53.6943 37.2741L37.3719 48.6412C34.5942 50.5744 31.291 51.6103 27.9067 51.6097Z" fill="#020D19"/>
<path d="M32.0764 40.6283H19.4628C19.2657 40.6283 19.0766 40.55 18.9372 40.4106C18.7979 40.2712 18.7196 40.0822 18.7196 39.885C18.7196 39.6879 18.7979 39.4989 18.9372 39.3595C19.0766 39.2201 19.2657 39.1418 19.4628 39.1418H32.0764C32.6892 39.1418 33.277 38.8983 33.7103 38.465C34.1437 38.0316 34.3871 37.4439 34.3871 36.831C34.3871 36.2182 34.1437 35.6305 33.7103 35.1971C33.277 34.7638 32.6892 34.5203 32.0764 34.5203H24.8729C23.9322 34.5208 22.9992 34.3519 22.1184 34.0216L17.9339 32.4519C17.2211 32.1838 16.4658 32.0466 15.7042 32.0468H10.1514C9.95433 32.0468 9.76528 31.9685 9.62589 31.8291C9.48651 31.6897 9.4082 31.5007 9.4082 31.3035C9.4082 31.1064 9.48651 30.9174 9.62589 30.778C9.76528 30.6386 9.95433 30.5603 10.1514 30.5603H15.7012C16.642 30.5597 17.5751 30.7289 18.4557 31.0598L22.6409 32.6295C23.3538 32.8971 24.1091 33.0341 24.8706 33.0338H32.0741C33.0812 33.0338 34.0471 33.4339 34.7592 34.146C35.4713 34.8581 35.8714 35.824 35.8714 36.831C35.8714 37.8381 35.4713 38.804 34.7592 39.5161C34.0471 40.2282 33.0812 40.6283 32.0741 40.6283H32.0764Z" fill="#020D19"/>
<path d="M46.2543 34.6399C46.1134 34.64 45.9754 34.6 45.8564 34.5247C45.7374 34.4493 45.6422 34.3417 45.582 34.2144C45.5218 34.087 45.499 33.9452 45.5163 33.8054C45.5336 33.6656 45.5903 33.5336 45.6797 33.4247C47.5124 31.195 48.7485 28.5361 49.2719 25.6976C49.7953 22.8592 49.5889 19.9343 48.672 17.1975C47.5399 13.7934 45.3649 10.832 42.4554 8.73319C39.546 6.63436 36.0498 5.50458 32.4623 5.50401C28.8748 5.50343 25.3782 6.63209 22.4681 8.72998C19.558 10.8279 17.3821 13.7886 16.2488 17.1923C15.0715 20.6991 15.0715 24.4945 16.2488 28.0013C16.5933 29.0593 17.0485 30.0779 17.6067 31.0404C17.6584 31.1248 17.6927 31.2187 17.7076 31.3166C17.7225 31.4145 17.7177 31.5143 17.6935 31.6103C17.6693 31.7063 17.6262 31.7965 17.5666 31.8756C17.5071 31.9547 17.4324 32.0211 17.3468 32.0709C17.2612 32.1207 17.1666 32.1529 17.0684 32.1656C16.9703 32.1784 16.8705 32.1713 16.7751 32.145C16.6797 32.1187 16.5905 32.0735 16.5127 32.0122C16.435 31.951 16.3703 31.8748 16.3224 31.7881C15.711 30.7383 15.2128 29.6267 14.8359 28.4718C13.556 24.6587 13.556 20.532 14.8359 16.7189C16.0685 13.0201 18.4338 9.80309 21.5966 7.52359C24.7595 5.24409 28.5595 4.01774 32.4582 4.01831C36.3569 4.01889 40.1566 5.24636 43.3187 7.52679C46.4809 9.80723 48.8453 13.025 50.0768 16.7241C51.0702 19.7002 51.293 22.8797 50.7244 25.9653C50.1558 29.051 48.8142 31.9421 46.8251 34.3687C46.7557 34.453 46.6686 34.5211 46.5699 34.568C46.4713 34.6149 46.3635 34.6394 46.2543 34.6399Z" fill="#020D19"/>
<path d="M36.2118 39.0474C36.0708 39.0472 35.9327 39.007 35.8137 38.9313C35.6947 38.8556 35.5997 38.7476 35.5398 38.62C35.4799 38.4923 35.4575 38.3503 35.4753 38.2104C35.4931 38.0705 35.5503 37.9385 35.6403 37.8299C37.314 35.8098 38.6281 32.2742 39.2457 28.1314C39.7799 24.4632 39.7799 20.7371 39.2457 17.0689C38.2394 10.2593 35.4485 5.5048 32.4592 5.5048C29.4699 5.5048 26.679 10.2616 25.6726 17.0667C25.1385 20.7351 25.1385 24.4615 25.6726 28.1299C25.9293 29.9679 26.368 31.776 26.9822 33.5273C27.018 33.6198 27.0349 33.7185 27.032 33.8176C27.029 33.9167 27.0062 34.0142 26.965 34.1044C26.9238 34.1946 26.865 34.2756 26.792 34.3427C26.719 34.4098 26.6333 34.4616 26.54 34.4951C26.4466 34.5285 26.3475 34.543 26.2485 34.5376C26.1495 34.5322 26.0526 34.507 25.9635 34.4636C25.8743 34.4202 25.7948 34.3593 25.7295 34.2847C25.6643 34.2101 25.6146 34.1231 25.5834 34.029C24.9356 32.186 24.4727 30.2831 24.2017 28.3484C23.6463 24.5348 23.6463 20.661 24.2017 16.8474C25.3545 9.05527 28.5943 4.01831 32.4592 4.01831C36.324 4.01831 39.5638 9.05527 40.7159 16.8497C40.998 18.7532 41.1373 20.6751 41.1328 22.5994C41.1373 24.5247 40.9979 26.4476 40.7159 28.3521C40.0469 32.8197 38.6541 36.5233 36.7849 38.7783C36.715 38.8626 36.6275 38.9304 36.5284 38.9769C36.4294 39.0234 36.3212 39.0475 36.2118 39.0474Z" fill="#020D19"/>
<path d="M32.4591 34.5433C32.2619 34.5433 32.0729 34.465 31.9335 34.3256C31.7941 34.1862 31.7158 33.9972 31.7158 33.8001V4.76155C31.7158 4.56443 31.7941 4.37539 31.9335 4.236C32.0729 4.09662 32.2619 4.01831 32.4591 4.01831C32.6562 4.01831 32.8452 4.09662 32.9846 4.236C33.124 4.37539 33.2023 4.56443 33.2023 4.76155V33.8001C33.2023 33.9972 33.124 34.1862 32.9846 34.3256C32.8452 34.465 32.6562 34.5433 32.4591 34.5433Z" fill="#020D19"/>
<path d="M49.378 17.6984H15.5411C15.344 17.6984 15.1549 17.6201 15.0155 17.4807C14.8762 17.3413 14.7979 17.1523 14.7979 16.9552C14.7979 16.758 14.8762 16.569 15.0155 16.4296C15.1549 16.2902 15.344 16.2119 15.5411 16.2119H49.378C49.5751 16.2119 49.7642 16.2902 49.9035 16.4296C50.0429 16.569 50.1212 16.758 50.1212 16.9552C50.1212 17.1523 50.0429 17.3413 49.9035 17.4807C49.7642 17.6201 49.5751 17.6984 49.378 17.6984Z" fill="#020D19"/>
<path d="M49.378 28.9875H15.5411C15.344 28.9875 15.1549 28.9092 15.0155 28.7698C14.8762 28.6304 14.7979 28.4413 14.7979 28.2442C14.7979 28.0471 14.8762 27.8581 15.0155 27.7187C15.1549 27.5793 15.344 27.501 15.5411 27.501H49.378C49.5751 27.501 49.7642 27.5793 49.9035 27.7187C50.0429 27.8581 50.1212 28.0471 50.1212 28.2442C50.1212 28.4413 50.0429 28.6304 49.9035 28.7698C49.7642 28.9092 49.5751 28.9875 49.378 28.9875Z" fill="#020D19"/>
</svg>
