<svg width="51" height="51" viewBox="0 0 51 51" fill="none" xmlns="http://www.w3.org/2000/svg">
<g clip-path="url(#clip0_184_2382)">
<path d="M34.2618 33.3643C39.5824 25.0153 38.9136 26.0569 39.0669 25.8393C41.004 23.107 42.0278 19.8913 42.0278 16.5396C42.0278 7.65088 34.8148 0.328613 25.9146 0.328613C17.0433 0.328613 9.80127 7.63643 9.80127 16.5396C9.80127 19.8892 10.8466 23.1891 12.8472 25.9581L17.5671 33.3644C12.5207 34.1398 3.94189 36.4509 3.94189 41.5396C3.94189 43.3945 5.15264 46.0381 10.9206 48.098C14.9481 49.5364 20.273 50.3286 25.9146 50.3286C36.4639 50.3286 47.8872 47.3528 47.8872 41.5396C47.8872 36.45 39.3185 34.1414 34.2618 33.3643ZM15.2943 24.3467C15.2782 24.3215 15.2614 24.2969 15.2438 24.2727C13.5791 21.9824 12.731 19.2682 12.731 16.5396C12.731 9.21357 18.63 3.2583 25.9146 3.2583C33.184 3.2583 39.0981 9.21621 39.0981 16.5396C39.0981 19.2726 38.266 21.8947 36.6913 24.1246C36.5502 24.3107 37.2864 23.167 25.9146 41.0111L15.2943 24.3467ZM25.9146 47.3989C14.3917 47.3989 6.87158 44.0119 6.87158 41.5396C6.87158 39.8778 10.7356 37.1455 19.2981 36.0805L24.6792 44.5241C24.9481 44.9462 25.414 45.2017 25.9145 45.2017C26.4149 45.2017 26.8809 44.9461 27.1497 44.5241L32.5307 36.0805C41.0934 37.1455 44.9575 39.8778 44.9575 41.5396C44.9575 43.9909 37.5051 47.3989 25.9146 47.3989Z" fill="#020D19"/>
<path d="M25.9146 9.21533C21.876 9.21533 18.5903 12.501 18.5903 16.5396C18.5903 20.5781 21.876 23.8638 25.9146 23.8638C29.9531 23.8638 33.2388 20.5781 33.2388 16.5396C33.2388 12.501 29.9531 9.21533 25.9146 9.21533ZM25.9146 20.9341C23.4914 20.9341 21.52 18.9627 21.52 16.5396C21.52 14.1164 23.4914 12.145 25.9146 12.145C28.3377 12.145 30.3091 14.1164 30.3091 16.5396C30.3091 18.9627 28.3377 20.9341 25.9146 20.9341Z" fill="#020D19"/>
</g>
<defs>
<clipPath id="clip0_184_2382">
<rect width="50" height="50" fill="white" transform="translate(0.914551 0.328613)"/>
</clipPath>
</defs>
</svg>
