<svg width="72" height="73" viewBox="0 0 72 73" fill="none" xmlns="http://www.w3.org/2000/svg">
<path d="M56.4324 70.0969H15.5676C14.5546 70.097 13.553 69.8825 12.6288 69.4677C11.7046 69.0528 10.8788 68.4469 10.2056 67.6899C9.53243 66.9329 9.02719 66.0419 8.72313 65.0756C8.41908 64.1093 8.3231 63.0896 8.44152 62.0835L13.5866 18.3347C13.6143 18.0977 13.7281 17.8791 13.9064 17.7205C14.0847 17.562 14.3151 17.4744 14.5537 17.4746H57.4463C57.6849 17.4744 57.9153 17.562 58.0936 17.7205C58.2719 17.8791 58.3857 18.0977 58.4134 18.3347L63.5556 62.0806C63.6744 63.0866 63.5788 64.1064 63.2752 65.0729C62.9715 66.0394 62.4666 66.9306 61.7937 67.6879C61.1208 68.4451 60.2951 69.0513 59.3711 69.4666C58.447 69.8818 57.4455 70.0966 56.4324 70.0969ZM15.4187 19.4235L10.3768 62.3131C10.2908 63.0459 10.3609 63.7887 10.5825 64.4925C10.8041 65.1962 11.1722 65.8452 11.6624 66.3966C12.1527 66.948 12.7542 67.3894 13.4272 67.6917C14.1003 67.9941 14.8297 68.1506 15.5676 68.1509H56.4324C57.1705 68.151 57.9003 67.9948 58.5737 67.6926C59.2471 67.3905 59.8489 66.9491 60.3395 66.3977C60.8301 65.8462 61.1984 65.1972 61.4202 64.4932C61.642 63.7892 61.7122 63.0462 61.6262 62.3131L56.5813 19.4235H15.4187Z" fill="#020D19"/>
<path d="M47.915 26.5724C47.6569 26.5724 47.4094 26.4699 47.227 26.2874C47.0445 26.1049 46.942 25.8575 46.942 25.5994V14.8763C46.942 11.9743 45.7892 9.19111 43.7371 7.13908C41.6851 5.08705 38.902 3.93423 35.9999 3.93423C33.0979 3.93423 30.3148 5.08705 28.2627 7.13908C26.2107 9.19111 25.0579 11.9743 25.0579 14.8763V25.5994C25.0579 25.8575 24.9554 26.1049 24.7729 26.2874C24.5904 26.4699 24.343 26.5724 24.0849 26.5724C23.8269 26.5724 23.5794 26.4699 23.3969 26.2874C23.2144 26.1049 23.1119 25.8575 23.1119 25.5994V14.8763C23.1119 11.4582 24.4698 8.18006 26.8867 5.76309C29.3037 3.34612 32.5818 1.98828 35.9999 1.98828C39.418 1.98828 42.6962 3.34612 45.1131 5.76309C47.5301 8.18006 48.8879 11.4582 48.8879 14.8763V25.5994C48.8879 25.8575 48.7854 26.1049 48.603 26.2874C48.4205 26.4699 48.173 26.5724 47.915 26.5724Z" fill="#020D19"/>
<path d="M47.9151 33.0145C47.1002 33.0147 46.3036 32.7732 45.626 32.3207C44.9484 31.8681 44.4202 31.2247 44.1083 30.4719C43.7964 29.7191 43.7147 28.8907 43.8737 28.0915C44.0326 27.2923 44.425 26.5582 45.0012 25.982C45.5773 25.4058 46.3115 25.0134 47.1107 24.8545C47.9099 24.6956 48.7383 24.7772 49.4911 25.0892C50.2439 25.4011 50.8872 25.9292 51.3398 26.6069C51.7924 27.2845 52.0339 28.0811 52.0337 28.8959C52.0324 29.9879 51.5981 31.0347 50.826 31.8068C50.0539 32.5789 49.007 33.0132 47.9151 33.0145ZM47.9151 26.7223C47.4852 26.7221 47.0648 26.8494 46.7072 27.0882C46.3497 27.3269 46.0709 27.6663 45.9062 28.0634C45.7416 28.4606 45.6984 28.8977 45.7821 29.3194C45.8659 29.7411 46.0729 30.1285 46.3768 30.4326C46.6807 30.7367 47.068 30.9438 47.4897 31.0277C47.9114 31.1117 48.3485 31.0687 48.7457 30.9042C49.1429 30.7397 49.4825 30.4611 49.7214 30.1036C49.9602 29.7462 50.0877 29.3259 50.0877 28.8959C50.0872 28.3198 49.8582 27.7674 49.4509 27.3599C49.0436 26.9524 48.4912 26.7231 47.9151 26.7223Z" fill="#020D19"/>
<path d="M24.085 33.0145C23.2702 33.0145 22.4737 32.7729 21.7962 32.3202C21.1187 31.8675 20.5907 31.224 20.2789 30.4712C19.9672 29.7184 19.8857 28.8901 20.0447 28.0909C20.2037 27.2918 20.5962 26.5577 21.1724 25.9816C21.7486 25.4055 22.4827 25.0133 23.2819 24.8544C24.0811 24.6956 24.9095 24.7773 25.6622 25.0893C26.4149 25.4012 27.0582 25.9294 27.5108 26.607C27.9633 27.2845 28.2048 28.0811 28.2046 28.8959C28.2033 29.988 27.7688 31.035 26.9965 31.8071C26.2242 32.5793 25.1771 33.0135 24.085 33.0145ZM24.085 26.7223C23.6551 26.7223 23.2349 26.8498 22.8774 27.0886C22.52 27.3275 22.2414 27.6669 22.0769 28.0641C21.9123 28.4613 21.8693 28.8983 21.9532 29.32C22.037 29.7416 22.2441 30.1289 22.548 30.4329C22.852 30.7369 23.2393 30.9439 23.661 31.0278C24.0826 31.1117 24.5197 31.0686 24.9168 30.9041C25.314 30.7396 25.6535 30.461 25.8923 30.1035C26.1312 29.7461 26.2586 29.3258 26.2586 28.8959C26.2584 28.3195 26.0293 27.7668 25.6217 27.3592C25.2141 26.9517 24.6614 26.7226 24.085 26.7223Z" fill="#020D19"/>
<path d="M36 60.2837C35.8065 60.2834 35.6175 60.2255 35.4571 60.1173C35.0679 59.8546 25.8646 53.5896 25.8646 46.8489C25.8638 45.6745 26.2019 44.5249 26.8385 43.538C27.475 42.5511 28.3829 41.7689 29.4531 41.2853C30.5233 40.8018 31.7103 40.6374 32.8716 40.8119C34.0329 40.9864 35.1192 41.4924 36 42.2691C36.8808 41.4924 37.9671 40.9864 39.1284 40.8119C40.2898 40.6374 41.4768 40.8018 42.547 41.2853C43.6172 41.7689 44.525 42.5511 45.1616 43.538C45.7981 44.5249 46.1363 45.6745 46.1355 46.8489C46.1355 53.5896 36.9341 59.8546 36.5429 60.1173C36.3825 60.2255 36.1935 60.2834 36 60.2837ZM31.968 42.6904C30.8656 42.6917 29.8087 43.1303 29.0293 43.9099C28.2499 44.6895 27.8115 45.7465 27.8105 46.8489C27.8105 51.7137 34.0911 56.708 36 58.1149C37.909 56.708 44.1895 51.7108 44.1895 46.8489C44.1905 45.9841 43.9216 45.1406 43.4202 44.436C42.9188 43.7314 42.21 43.2008 41.3927 42.9184C40.5754 42.6359 39.6902 42.6155 38.8608 42.8602C38.0313 43.1049 37.2989 43.6023 36.7658 44.2832C36.6711 44.3937 36.5537 44.4824 36.4215 44.5433C36.2893 44.6041 36.1455 44.6356 36 44.6356C35.8545 44.6356 35.7107 44.6041 35.5785 44.5433C35.4464 44.4824 35.3289 44.3937 35.2343 44.2832C34.8474 43.7861 34.3519 43.3842 33.7858 43.1082C33.2197 42.8321 32.5979 42.6892 31.968 42.6904Z" fill="#020D19"/>
</svg>
