<svg width="55" height="56" viewBox="0 0 55 56" fill="none" xmlns="http://www.w3.org/2000/svg">
<path fill-rule="evenodd" clip-rule="evenodd" d="M48.1231 52.692H6.61603C6.21728 52.692 5.8804 52.395 5.8309 51.999L2.19815 23.1666C2.1679 22.9425 2.24078 22.7143 2.38928 22.5424C2.53778 22.3705 2.75503 22.2756 2.98328 22.2756H52.0873C52.3155 22.2756 52.5328 22.3746 52.684 22.5465C52.8353 22.7184 52.9013 22.9494 52.8724 23.1735L48.9096 52.0086C48.856 52.3978 48.5205 52.692 48.1231 52.692ZM7.31315 51.108H47.4343L51.1798 23.8638H3.88115L7.31315 51.108Z" fill="#020D19"/>
<path fill-rule="evenodd" clip-rule="evenodd" d="M52.0874 20.9062H2.98341C2.54478 20.9062 2.19141 20.5528 2.19141 20.1142V18.3721C2.19141 16.8142 3.45916 15.5437 5.01978 15.5437H50.051C51.6089 15.5437 52.8794 16.8115 52.8794 18.3721V20.1142C52.8794 20.5528 52.526 20.9062 52.0874 20.9062ZM3.77541 19.3222H51.2954V18.3721C51.2954 17.686 50.7372 17.1277 50.051 17.1277H5.01978C4.33366 17.1277 3.77541 17.686 3.77541 18.3721V19.3222Z" fill="#020D19"/>
<path fill-rule="evenodd" clip-rule="evenodd" d="M35.6302 13.0592H19.4409C19.0023 13.0592 18.6489 12.7058 18.6489 12.2672V6.54444C18.6489 6.10582 19.0023 5.75244 19.4409 5.75244H35.6343C36.0729 5.75244 36.4263 6.10582 36.4263 6.54444V12.2672C36.4222 12.7031 36.0688 13.0592 35.6302 13.0592ZM20.2329 11.4752H34.8423V7.33644H20.2329V11.4752Z" fill="#020D19"/>
<path fill-rule="evenodd" clip-rule="evenodd" d="M48.3351 17.1277H6.73585C6.29722 17.1277 5.94385 16.7743 5.94385 16.3357V14.2993C5.94385 12.7414 7.2116 11.4709 8.77222 11.4709H46.3028C47.8607 11.4709 49.1312 12.7387 49.1312 14.2993V16.3357C49.1271 16.7743 48.7737 17.1277 48.3351 17.1277ZM7.52785 15.5437H47.5431V14.2993C47.5431 13.6132 46.9848 13.0549 46.2987 13.0549H8.77085C8.08472 13.0549 7.52647 13.6132 7.52647 14.2993L7.52785 15.5437Z" fill="#020D19"/>
<path fill-rule="evenodd" clip-rule="evenodd" d="M27.5354 45.4514C27.3236 45.4514 27.1229 45.3689 26.9744 45.2204L20.1736 38.4197C19.1905 37.4365 18.646 36.1262 18.646 34.7333C18.646 33.3404 19.1877 32.03 20.1736 31.0469C21.1567 30.0638 22.4671 29.5193 23.86 29.5193C25.246 29.5193 26.5522 30.0569 27.5367 31.0345C28.5199 30.0583 29.8234 29.5193 31.2135 29.5193C32.6064 29.5193 33.9167 30.061 34.8999 31.0469C36.9321 33.0792 36.9321 36.386 34.8999 38.4197L28.0991 45.2204C27.9479 45.3662 27.7457 45.4514 27.5354 45.4514ZM23.8586 31.1033C22.9277 31.1033 22.001 31.4567 21.2915 32.1662C19.8752 33.5824 19.8752 35.8814 21.2915 37.2977L27.5312 43.5374L33.771 37.2977C35.1872 35.8814 35.1872 33.5824 33.771 32.1662C32.3547 30.7499 30.0557 30.7499 28.6395 32.1662L28.0881 32.7175C27.7774 33.0283 27.2769 33.0283 26.9689 32.7175L26.4175 32.1662C25.7176 31.4567 24.7895 31.1033 23.8586 31.1033Z" fill="#020D19"/>
<path fill-rule="evenodd" clip-rule="evenodd" d="M38.2744 13.0591H16.7969C16.3583 13.0591 16.0049 12.7057 16.0049 12.2671V3.90162C16.0049 3.46299 16.3583 3.10962 16.7969 3.10962H38.273C38.7116 3.10962 39.065 3.46299 39.065 3.90162V12.2671C39.065 12.703 38.7089 13.0591 38.2744 13.0591ZM17.5889 11.4751H37.4824V4.69362H17.5889V11.4751Z" fill="#020D19"/>
</svg>
