<svg width="55" height="56" viewBox="0 0 55 56" fill="none" xmlns="http://www.w3.org/2000/svg">
<path fill-rule="evenodd" clip-rule="evenodd" d="M13.5355 27.5505C13.3966 27.5505 13.255 27.5147 13.1257 27.4377C11.704 26.5825 10.8254 25.521 10.516 24.2835C10.4266 23.9232 10.4142 23.4777 10.3867 22.5977C10.3606 21.7067 10.373 21.0935 10.3799 20.6411C10.3936 19.9385 10.3936 19.7405 10.2836 19.4724C10.1544 19.185 9.13823 17.9145 8.02035 16.7072C7.72335 16.3869 7.7426 15.885 8.06298 15.588C8.38335 15.291 8.88523 15.3102 9.18223 15.6306C9.27435 15.7296 11.4235 18.0589 11.7535 18.8811C11.9845 19.4586 11.9776 19.8904 11.9611 20.67C11.9542 21.1017 11.9419 21.6999 11.9639 22.551C11.9831 23.2206 11.9969 23.7032 12.0464 23.8971C12.2512 24.7125 12.8851 25.4454 13.9342 26.0779C14.311 26.302 14.4292 26.7901 14.2051 27.1641C14.0662 27.4116 13.8022 27.5505 13.5355 27.5505Z" fill="#020D19"/>
<path fill-rule="evenodd" clip-rule="evenodd" d="M24.4652 13.6892C24.2837 13.6892 24.105 13.63 23.9565 13.5049C22.6695 12.4228 21.4182 12.1918 20.5932 12.0364C20.3127 11.9842 20.068 11.9402 19.8645 11.8687C18.9996 11.5689 18.3657 11.2747 16.3596 9.1324C16.0598 8.81203 16.0763 8.31015 16.3953 8.01315C16.7157 7.7134 17.2176 7.7299 17.5146 8.0489C19.3598 10.0124 19.7888 10.1637 20.3856 10.3727C20.4777 10.4057 20.673 10.4414 20.8806 10.4785C21.8115 10.6504 23.3652 10.9378 24.9753 12.2908C25.3081 12.5713 25.3521 13.0732 25.0716 13.4059C24.9135 13.5943 24.6893 13.6892 24.4652 13.6892Z" fill="#020D19"/>
<path fill-rule="evenodd" clip-rule="evenodd" d="M6.73037 18.6665C6.71662 18.6665 6.70424 18.6665 6.69462 18.6665C6.48287 18.6569 6.28899 18.5648 6.14737 18.4094L3.41524 15.4064C3.12099 15.0833 3.14437 14.5814 3.46749 14.2872C3.79062 13.9929 4.29249 14.0163 4.58674 14.3394L6.78399 16.7553L17.74 6.78655L15.5427 4.37067C15.2485 4.04755 15.2719 3.54567 15.595 3.25142C15.9181 2.95717 16.42 2.98055 16.7142 3.30367L19.4464 6.30667C19.7406 6.6298 19.7172 7.13167 19.3941 7.42592L7.26387 18.4617C7.11674 18.5937 6.92562 18.6665 6.73037 18.6665Z" fill="#020D19"/>
<path fill-rule="evenodd" clip-rule="evenodd" d="M7.71396 42.9807C7.58471 42.9807 7.45684 42.9505 7.33447 42.8845C6.95222 42.6727 6.80922 42.1942 7.02097 41.8092L12.7162 31.3909C13.0036 30.8532 13.3693 30.3651 13.808 29.9416L21.3416 22.6981C21.6578 22.3942 22.157 22.4039 22.4608 22.7215C22.7647 23.0377 22.7551 23.5369 22.4375 23.8407L14.9038 31.0842C14.5835 31.3909 14.3167 31.747 14.1091 32.1375C14.1063 32.1402 14.1063 32.1444 14.1022 32.1471L8.40284 42.5724C8.26534 42.8322 7.99446 42.9807 7.71396 42.9807Z" fill="#020D19"/>
<path fill-rule="evenodd" clip-rule="evenodd" d="M13.2221 48.9302C12.9155 48.9302 12.6213 48.7487 12.4934 48.4489C12.3215 48.0461 12.5099 47.5813 12.9086 47.4094C15.1499 46.4524 16.8824 46.6834 18.41 46.8883C19.1553 46.9873 19.862 47.0836 20.5358 47.0107C22.7303 46.7797 26.671 45.5945 27.617 44.335C27.7916 44.104 27.9993 43.5952 27.8618 43.1566C27.7531 42.8101 27.419 42.5433 26.8718 42.3673C26.4565 42.2326 26.2283 41.7871 26.3603 41.3705C26.495 40.9552 26.9405 40.727 27.3571 40.859C28.6799 41.2852 29.1818 42.0827 29.3701 42.6767C29.6933 43.6928 29.311 44.7199 28.8848 45.2864C28.244 46.1417 26.9405 46.9103 25.0073 47.5772C23.6048 48.0626 21.9149 48.4586 20.7035 48.5837C19.8428 48.6758 19.0109 48.5644 18.2051 48.4544C16.8164 48.2702 15.3768 48.0777 13.5356 48.8642C13.4325 48.9068 13.328 48.9302 13.2221 48.9302Z" fill="#020D19"/>
<path fill-rule="evenodd" clip-rule="evenodd" d="M18.587 33.4437C18.3863 33.4437 18.1814 33.368 18.026 33.2127C17.7153 32.9019 17.7153 32.4014 18.026 32.0934L27.4118 22.7077C27.7225 22.3969 28.223 22.3969 28.531 22.7077C28.8418 23.0184 28.8418 23.5189 28.531 23.8269L19.1453 33.2127C18.9927 33.368 18.7892 33.4437 18.587 33.4437Z" fill="#020D19"/>
<path fill-rule="evenodd" clip-rule="evenodd" d="M22.3629 36.5196C22.1622 36.5196 21.9573 36.444 21.8019 36.2886C21.4912 35.9778 21.4912 35.4773 21.8019 35.1693L31.2963 25.675C31.607 25.3642 32.1075 25.3642 32.4155 25.675C32.7263 25.9857 32.7263 26.4862 32.4155 26.7942L22.9212 36.2886C22.7685 36.4426 22.5678 36.5196 22.3629 36.5196Z" fill="#020D19"/>
<path fill-rule="evenodd" clip-rule="evenodd" d="M23.0397 41.9411C22.8389 41.9411 22.634 41.8654 22.4787 41.7101C22.1679 41.3993 22.1679 40.8988 22.4787 40.5908L33.0813 29.9882C33.392 29.6774 33.8925 29.6774 34.2005 29.9882C34.5113 30.2989 34.5113 30.7994 34.2005 31.1074L23.5979 41.7101C23.4425 41.8654 23.2404 41.9411 23.0397 41.9411Z" fill="#020D19"/>
<path fill-rule="evenodd" clip-rule="evenodd" d="M12.133 53.7344C11.9185 53.7344 11.7068 53.6492 11.5528 53.4801C11.2558 53.1597 11.275 52.6578 11.5954 52.3608L13.9948 50.1402L6.08164 41.5739L3.68501 43.7918C3.36464 44.0888 2.86276 44.0696 2.56576 43.7492C2.26876 43.4288 2.28801 42.9269 2.60839 42.6299L5.58801 39.8717C5.74339 39.7301 5.94826 39.6544 6.15589 39.6599C6.36764 39.6668 6.56564 39.7589 6.70726 39.9143L15.6929 49.6424C15.9899 49.9628 15.9706 50.4647 15.6503 50.7617L12.6706 53.5199C12.5194 53.6657 12.3269 53.7344 12.133 53.7344Z" fill="#020D19"/>
<path fill-rule="evenodd" clip-rule="evenodd" d="M28.0624 14.1677C27.9235 14.1677 27.7819 14.132 27.6526 14.055C27.2759 13.8309 27.1576 13.3427 27.3817 12.9687C28.237 11.547 29.2985 10.6684 30.536 10.359C30.8962 10.2696 31.3417 10.2572 32.2217 10.2297C33.1127 10.2036 33.726 10.216 34.1784 10.2229C34.881 10.2366 35.079 10.2366 35.3471 10.1266C35.6345 9.99737 36.905 8.98125 38.1122 7.86337C38.4326 7.56637 38.9345 7.58562 39.2315 7.906C39.5285 8.22637 39.5092 8.72825 39.1889 9.02525C39.0899 9.11737 36.7606 11.2665 35.9383 11.5965C35.3609 11.8275 34.9291 11.8206 34.1495 11.8041C33.7177 11.7972 33.1196 11.7849 32.2685 11.8069C31.5988 11.8261 31.1162 11.8399 30.9224 11.8894C30.107 12.0942 29.3741 12.7281 28.7416 13.7772C28.5931 14.033 28.3319 14.1677 28.0624 14.1677Z" fill="#020D19"/>
<path fill-rule="evenodd" clip-rule="evenodd" d="M41.9222 25.0976C41.7407 25.0976 41.5619 25.0385 41.4134 24.9134C41.0807 24.6329 41.0367 24.131 41.3172 23.7983C42.3993 22.5113 42.6303 21.26 42.7857 20.435C42.8379 20.1545 42.8819 19.9098 42.9534 19.7063C43.2532 18.8414 43.5474 18.2075 45.6897 16.2014C46.01 15.9016 46.5119 15.9181 46.8089 16.2371C47.1087 16.5575 47.0922 17.0594 46.7732 17.3564C44.8097 19.1975 44.6584 19.6306 44.4494 20.2274C44.4164 20.3195 44.3807 20.5148 44.3435 20.7224C44.1717 21.6533 43.8843 23.207 42.5313 24.8171C42.3704 25.0028 42.1463 25.0976 41.9222 25.0976Z" fill="#020D19"/>
<path fill-rule="evenodd" clip-rule="evenodd" d="M47.9765 19.4917C47.762 19.4917 47.5475 19.4064 47.3894 19.2345L36.3537 7.10704C36.212 6.95166 36.1392 6.74679 36.1488 6.53641C36.1584 6.32604 36.2505 6.13079 36.4059 5.98916L39.4089 3.25704C39.732 2.96279 40.2339 2.98616 40.5282 3.30929C40.8224 3.63241 40.799 4.13429 40.4759 4.42854L38.06 6.62441L48.0288 17.5804L50.4447 15.3832C50.7678 15.0889 51.2697 15.1123 51.5639 15.4354C51.8582 15.7585 51.8348 16.2604 51.5117 16.5547L48.5087 19.2868C48.3602 19.4215 48.169 19.4917 47.9765 19.4917Z" fill="#020D19"/>
<path fill-rule="evenodd" clip-rule="evenodd" d="M47.2504 39.0277C47.0524 39.0277 46.8516 38.952 46.6962 38.8035C46.6 38.7114 44.334 36.4908 43.9641 35.6878C43.7029 35.124 43.6905 34.6909 43.6644 33.9085C43.6506 33.4768 43.6314 32.8828 43.5654 32.0303C43.5131 31.3634 43.4732 30.8822 43.4169 30.6869C43.1721 29.8853 42.4997 29.1827 41.4204 28.6052C41.034 28.4003 40.8896 27.919 41.0931 27.5327C41.2966 27.1463 41.7792 27.0019 42.1656 27.2054C43.6314 27.9878 44.5609 29.0039 44.9307 30.2222C45.0394 30.5783 45.0724 31.021 45.1452 31.8983C45.214 32.7865 45.2346 33.4025 45.2511 33.8522C45.2745 34.5548 45.2841 34.7528 45.4065 35.0168C45.5522 35.2973 46.6302 36.5155 47.8059 37.6637C48.1194 37.9703 48.1262 38.4722 47.8196 38.7829C47.6601 38.9452 47.4552 39.0277 47.2504 39.0277Z" fill="#020D19"/>
<path fill-rule="evenodd" clip-rule="evenodd" d="M39.3179 47.0163C39.1199 47.0163 38.9219 46.9435 38.7706 46.795C36.8305 44.9277 36.3919 44.7985 35.7841 44.6197C35.692 44.5936 35.494 44.5675 35.2822 44.5372C34.3445 44.4121 32.777 44.2045 31.1009 42.934C30.7516 42.67 30.6856 42.1722 30.9496 41.8257C31.2136 41.4765 31.7114 41.4105 32.0579 41.6745C33.4012 42.6906 34.658 42.8597 35.4899 42.9683C35.7731 43.0041 36.0179 43.0371 36.2255 43.1003C37.1027 43.3575 37.7504 43.6187 39.8651 45.6551C40.1786 45.959 40.1882 46.4608 39.8844 46.7743C39.7331 46.9338 39.5255 47.0163 39.3179 47.0163Z" fill="#020D19"/>
<path fill-rule="evenodd" clip-rule="evenodd" d="M40.3714 51.719C40.1706 51.719 39.9685 51.6434 39.8131 51.488L36.9325 48.6266C36.784 48.4781 36.6987 48.2774 36.6987 48.0684C36.6987 47.8566 36.7812 47.6559 36.9297 47.5074L48.4825 35.8721C48.7891 35.5614 49.291 35.5586 49.6017 35.8694L52.4824 38.7308C52.7931 39.0374 52.7959 39.5393 52.4851 39.85C52.1785 40.1608 51.6766 40.1635 51.3659 39.8528L49.0462 37.5496L38.6114 48.0601L40.931 50.3633C41.2417 50.6699 41.2445 51.1718 40.9337 51.4825C40.777 51.6393 40.5721 51.719 40.3714 51.719Z" fill="#020D19"/>
</svg>
