<svg width="72" height="73" viewBox="0 0 72 73" fill="none" xmlns="http://www.w3.org/2000/svg">
<path d="M36 70.2704C35.7419 70.2704 35.4944 70.1679 35.312 69.9854C35.1295 69.8029 35.027 69.5554 35.027 69.2974V38.0358C35.0271 37.8358 35.0888 37.6407 35.2037 37.4771C35.3186 37.3134 35.4811 37.1892 35.6691 37.1212L61.3362 27.8487C61.5789 27.761 61.8465 27.7733 62.0801 27.8828C62.3138 27.9924 62.4943 28.1903 62.5821 28.433C62.6698 28.6757 62.6575 28.9433 62.548 29.177C62.4384 29.4106 62.2405 29.5912 61.9978 29.6789L36.9729 38.7188V67.9644L60.694 60.384V41.5385C60.694 41.2804 60.7965 41.0329 60.979 40.8505C61.1614 40.668 61.4089 40.5655 61.667 40.5655C61.925 40.5655 62.1725 40.668 62.355 40.8505C62.5374 41.0329 62.6399 41.2804 62.6399 41.5385V61.0952C62.6399 61.3013 62.5743 61.5021 62.4528 61.6686C62.3313 61.8351 62.16 61.9586 61.9637 62.0215L36.2967 70.2246C36.2007 70.2547 36.1006 70.2701 36 70.2704Z" fill="#020D19"/>
<path d="M42.3556 49.4781C42.1885 49.4779 42.0244 49.4348 41.8788 49.3528C41.7333 49.2709 41.6113 49.1528 41.5246 49.0101L35.1692 38.5409C35.0943 38.4177 35.0477 38.2795 35.0327 38.1362C35.0178 37.9929 35.0348 37.848 35.0827 37.7121C35.1305 37.5762 35.208 37.4526 35.3094 37.3502C35.4109 37.2479 35.5338 37.1694 35.6693 37.1203L61.3392 27.8576C61.5504 27.7814 61.7814 27.7805 61.9932 27.8552C62.2049 27.9298 62.3843 28.0754 62.501 28.2672L68.8574 38.7374C68.9323 38.8606 68.9788 38.9989 68.9937 39.1422C69.0086 39.2856 68.9915 39.4305 68.9435 39.5664C68.8956 39.7024 68.818 39.826 68.7165 39.9283C68.6149 40.0305 68.4919 40.109 68.3563 40.1579L42.6864 49.4206C42.5802 49.4587 42.4683 49.4781 42.3556 49.4781ZM37.4489 38.5516L42.7749 47.3239L66.5767 38.7345L61.2507 29.9612L37.4489 38.5516Z" fill="#020D19"/>
<path d="M29.6446 49.4781C29.5318 49.4781 29.4199 49.4587 29.3138 49.4206L3.64384 40.1579C3.50826 40.109 3.38524 40.0305 3.28369 39.9283C3.18214 39.826 3.10458 39.7024 3.05663 39.5664C3.00868 39.4305 2.99153 39.2856 3.00643 39.1422C3.02132 38.9989 3.06789 38.8606 3.14276 38.7374L9.49919 28.2672C9.61584 28.0754 9.79524 27.9298 10.007 27.8552C10.2187 27.7805 10.4498 27.7814 10.6609 27.8576L36.3309 37.1203C36.4664 37.1694 36.5893 37.2479 36.6907 37.3502C36.7922 37.4526 36.8696 37.5762 36.9175 37.7121C36.9653 37.848 36.9824 37.9929 36.9674 38.1362C36.9525 38.2795 36.9059 38.4177 36.831 38.5409L30.4755 49.0101C30.3888 49.1528 30.2669 49.2709 30.1213 49.3528C29.9758 49.4348 29.8116 49.4779 29.6446 49.4781ZM5.42341 38.7306L29.2252 47.32L34.5513 38.5516L10.7495 29.9573L5.42341 38.7306Z" fill="#020D19"/>
<path d="M36.0001 70.2704C35.901 70.2697 35.8027 70.2542 35.7082 70.2246L10.0411 62.0215C9.84393 61.9595 9.67161 61.8363 9.54915 61.6697C9.42669 61.5032 9.36045 61.3019 9.36005 61.0952V41.5385C9.36005 41.2804 9.46256 41.0329 9.64503 40.8505C9.8275 40.668 10.075 40.5655 10.333 40.5655C10.5911 40.5655 10.8386 40.668 11.021 40.8505C11.2035 41.0329 11.306 41.2804 11.306 41.5385V60.384L35.0271 67.9644V38.7188L10.0022 29.6779C9.88205 29.6345 9.77161 29.5678 9.67721 29.4817C9.58281 29.3955 9.5063 29.2917 9.45205 29.176C9.39779 29.0603 9.36686 28.935 9.36101 28.8074C9.35515 28.6797 9.3745 28.5522 9.41794 28.432C9.46139 28.3119 9.52807 28.2014 9.6142 28.107C9.70032 28.0126 9.80419 27.9361 9.91988 27.8819C10.1535 27.7723 10.4211 27.76 10.6638 27.8478L36.3309 37.1212C36.5189 37.1891 36.6814 37.3134 36.7963 37.4771C36.9112 37.6407 36.9729 37.8358 36.973 38.0358V69.2974C36.973 69.5554 36.8705 69.8029 36.688 69.9854C36.5056 70.1678 36.2581 70.2704 36.0001 70.2704Z" fill="#020D19"/>
<path d="M10.3329 29.7412C10.1038 29.7413 9.88199 29.6606 9.70655 29.5132C9.53111 29.3658 9.4133 29.1613 9.37389 28.9356C9.33447 28.7099 9.37596 28.4775 9.49106 28.2794C9.60617 28.0813 9.78749 27.9302 10.0031 27.8526L26.8044 21.793C27.0472 21.7055 27.3148 21.718 27.5484 21.8279C27.782 21.9377 27.9623 22.1359 28.0498 22.3787C28.1373 22.6215 28.1247 22.8891 28.0149 23.1227C27.905 23.3563 27.7069 23.5366 27.4641 23.6241L10.6628 29.6838C10.557 29.7218 10.4454 29.7412 10.3329 29.7412Z" fill="#020D19"/>
<path d="M61.667 29.7412C61.5546 29.7412 61.443 29.7218 61.3372 29.6838L44.5359 23.6241C44.2931 23.5366 44.095 23.3563 43.9851 23.1227C43.8753 22.8891 43.8627 22.6215 43.9502 22.3787C44.0377 22.1359 44.218 21.9377 44.4516 21.8279C44.6851 21.718 44.9528 21.7055 45.1956 21.793L61.9969 27.8487C62.2125 27.9263 62.3938 28.0774 62.5089 28.2755C62.624 28.4736 62.6655 28.706 62.6261 28.9317C62.5867 29.1574 62.4689 29.362 62.2934 29.5093C62.118 29.6567 61.8962 29.7374 61.667 29.7373V29.7412Z" fill="#020D19"/>
<path d="M36 32.1346C35.7872 32.1361 35.5797 32.0677 35.4094 31.94C34.8023 31.4769 20.5551 20.4901 20.5551 11.2896C20.5533 9.49986 21.0782 7.74914 22.0645 6.25564C23.0508 4.76214 24.4547 3.59189 26.1014 2.89074C27.7482 2.18958 29.5648 1.98853 31.325 2.31262C33.0852 2.63671 34.711 3.47162 36 4.71331C37.2884 3.47215 38.9136 2.63754 40.6729 2.31345C42.4323 1.98935 44.2482 2.19011 45.8942 2.8907C47.5403 3.59129 48.9439 4.76075 49.9301 6.25337C50.9162 7.74599 51.4414 9.49579 51.4401 11.2848C51.4401 20.4852 37.1978 31.472 36.5916 31.9351C36.4217 32.0648 36.2138 32.1349 36 32.1346ZM29.6757 4.10812C27.7737 4.11095 25.9504 4.86812 24.6059 6.21353C23.2614 7.55894 22.5055 9.38272 22.5039 11.2848C22.5039 18.5441 33.3282 27.7514 36 29.9191C38.6757 27.7514 49.4961 18.5441 49.4961 11.2848C49.498 9.80249 49.0403 8.35609 48.186 7.14474C47.3318 5.93339 46.123 5.01667 44.7261 4.52081C43.3292 4.02495 41.813 3.97435 40.3861 4.37596C38.9593 4.77758 37.6921 5.61166 36.7589 6.76336C36.6675 6.87642 36.5518 6.96754 36.4205 7.03001C36.2891 7.09248 36.1455 7.12471 36 7.12433C35.8554 7.12436 35.7126 7.09216 35.582 7.03005C35.4514 6.96794 35.3363 6.8775 35.245 6.76531C34.5738 5.93492 33.7252 5.26528 32.7615 4.80549C31.7978 4.3457 30.7435 4.10742 29.6757 4.10812Z" fill="#020D19"/>
</svg>
