<svg width="72" height="72" viewBox="0 0 72 72" fill="none" xmlns="http://www.w3.org/2000/svg">
<path d="M55.6395 67.4419C55.4257 67.4418 55.2179 67.3713 55.0482 67.2414C54.8785 67.1114 54.7563 66.9292 54.7005 66.7228L52.2097 57.5195C52.1643 57.3516 52.1647 57.1746 52.2109 57.0069C52.2571 56.8392 52.3474 56.6869 52.4724 56.566L62.9971 46.3887C64.3356 45.0919 65.2087 43.3898 65.4811 41.5462L67.9807 24.2905C67.1779 24.2265 66.3773 24.4379 65.7107 24.8897C65.0441 25.3416 64.5513 26.0071 64.3135 26.7765L60.1871 39.9787C60.1316 40.1564 60.0262 40.3145 59.8836 40.4341L50.3222 48.4465C50.2246 48.5312 50.1111 48.5957 49.9884 48.636C49.8656 48.6764 49.736 48.6919 49.6072 48.6817C49.4784 48.6715 49.3529 48.6357 49.2381 48.5764C49.1233 48.5171 49.0214 48.4356 48.9384 48.3365C48.8554 48.2375 48.793 48.1229 48.7548 47.9994C48.7166 47.876 48.7034 47.7462 48.7159 47.6175C48.7284 47.4889 48.7664 47.3641 48.8277 47.2503C48.889 47.1366 48.9723 47.0361 49.0729 46.9549L58.4134 39.1254L62.4561 26.1956C62.8418 24.9558 63.6538 23.8925 64.7483 23.1939C65.8427 22.4953 67.1491 22.2065 68.436 22.3786L69.2144 22.4818C69.342 22.4987 69.465 22.5408 69.5763 22.6057C69.6875 22.6705 69.7848 22.7568 69.8625 22.8595C69.9401 22.9622 69.9966 23.0794 70.0287 23.2041C70.0607 23.3288 70.0677 23.4586 70.0492 23.5861L67.4017 41.8225C67.0691 44.0928 65.9962 46.1898 64.3495 47.7878L54.2384 57.5652L56.5794 66.214C56.647 66.4626 56.6134 66.7279 56.4857 66.9517C56.358 67.1755 56.1467 67.3396 55.8983 67.4078C55.8138 67.4303 55.7268 67.4418 55.6395 67.4419Z" fill="#020D19"/>
<path d="M43.2331 67.4409C42.975 67.4409 42.7276 67.3384 42.5451 67.1559C42.3626 66.9734 42.2601 66.7259 42.2601 66.4679V60.1076C41.111 59.0093 40.2465 57.6478 39.7411 56.1407C39.0176 53.8796 39.0347 51.4466 39.7901 49.1959C40.5454 46.9451 41.9994 44.9943 43.9404 43.6273L51.48 38.1962C52.7544 37.282 54.3174 36.8614 55.8786 37.0126C57.4397 37.1638 58.8929 37.8765 59.9682 39.0184C60.0557 39.1116 60.1239 39.2211 60.1691 39.3407C60.2142 39.4603 60.2353 39.5876 60.2313 39.7153C60.2272 39.8431 60.198 39.9688 60.1454 40.0853C60.0927 40.2017 60.0176 40.3067 59.9244 40.3942C59.8312 40.4816 59.7217 40.5499 59.6021 40.595C59.4825 40.6401 59.3552 40.6613 59.2275 40.6572C59.0997 40.6531 58.974 40.6239 58.8575 40.5713C58.7411 40.5186 58.6361 40.4436 58.5486 40.3504C57.7973 39.5512 56.7811 39.0522 55.6892 38.9464C54.5974 38.8407 53.5043 39.1352 52.6135 39.7753L45.0778 45.2104C43.4742 46.3316 42.2703 47.9354 41.6415 49.7883C41.0127 51.6413 40.9918 53.6466 41.5819 55.5122C42.0249 56.8395 42.8151 58.024 43.8704 58.9429C43.9757 59.0342 44.0601 59.147 44.118 59.2737C44.176 59.4005 44.206 59.5382 44.2061 59.6775V66.4679C44.2061 66.7259 44.1035 66.9734 43.9211 67.1559C43.7386 67.3384 43.4911 67.4409 43.2331 67.4409Z" fill="#020D19"/>
<path d="M55.4332 38.758C55.3308 38.7578 55.229 38.7417 55.1316 38.7103C55.0099 38.6707 54.8973 38.6075 54.8001 38.5244C54.7029 38.4412 54.623 38.3397 54.5651 38.2257C54.5072 38.1116 54.4723 37.9873 54.4625 37.8597C54.4527 37.7322 54.4681 37.604 54.5079 37.4824L57.3548 28.7636C57.7745 27.4691 58.6782 26.3869 59.8771 25.7431C61.0759 25.0992 62.4772 24.9436 63.7881 25.3086C64.0369 25.3773 64.2481 25.5421 64.3754 25.7666C64.5027 25.9912 64.5355 26.257 64.4668 26.5058C64.398 26.7546 64.2332 26.9658 64.0087 27.0931C63.7842 27.2204 63.5183 27.2532 63.2695 27.1845C62.4413 26.9548 61.5564 27.0537 60.7993 27.4605C60.0421 27.8672 59.4712 28.5505 59.2054 29.3678L56.3585 38.0876C56.2947 38.2826 56.1708 38.4525 56.0046 38.5729C55.8384 38.6933 55.6384 38.7581 55.4332 38.758Z" fill="#020D19"/>
<path d="M16.3605 67.4415C16.2744 67.441 16.1888 67.4296 16.1056 67.4074C15.8571 67.3392 15.6459 67.1752 15.5182 66.9513C15.3905 66.7275 15.3568 66.4622 15.4245 66.2136L17.7655 57.5648L7.65045 47.7874C6.00361 46.1892 4.93065 44.0918 4.59823 41.8212L1.95564 23.5867C1.93714 23.4592 1.94411 23.3294 1.97616 23.2047C2.00821 23.08 2.0647 22.9628 2.14236 22.8601C2.22001 22.7574 2.31728 22.6711 2.42853 22.6063C2.53978 22.5414 2.6628 22.4993 2.79045 22.4823L3.56883 22.3792C4.85555 22.2059 6.16205 22.4942 7.25643 23.1928C8.3508 23.8914 9.16226 24.9551 9.54678 26.1952L13.5895 39.125L22.93 46.9546C23.0305 47.0358 23.1139 47.1362 23.1752 47.2499C23.2365 47.3637 23.2745 47.4885 23.287 47.6172C23.2995 47.7458 23.2863 47.8756 23.2481 47.999C23.2099 48.1225 23.1475 48.2371 23.0645 48.3362C22.9815 48.4352 22.8796 48.5168 22.7648 48.576C22.65 48.6353 22.5245 48.6711 22.3957 48.6813C22.2668 48.6916 22.1373 48.676 22.0145 48.6357C21.8918 48.5953 21.7783 48.5308 21.6807 48.4461L12.1193 40.4337C11.9766 40.3141 11.8713 40.156 11.8157 39.9783L7.68645 26.7761C7.44804 26.0082 6.95619 25.3439 6.29131 24.8919C5.62644 24.4398 4.82786 24.2266 4.02613 24.2872L6.52375 41.5458C6.79418 43.3898 7.66562 45.093 9.00288 46.3912L19.5275 56.5656C19.6526 56.6865 19.7429 56.8388 19.7891 57.0065C19.8353 57.1742 19.8357 57.3512 19.7902 57.5191L17.2994 66.7224C17.2436 66.9288 17.1214 67.111 16.9517 67.241C16.782 67.371 16.5743 67.4414 16.3605 67.4415Z" fill="#020D19"/>
<path d="M28.7669 67.4412C28.5088 67.4412 28.2613 67.3387 28.0789 67.1562C27.8964 66.9737 27.7939 66.7263 27.7939 66.4682V59.6778C27.794 59.5385 27.824 59.4008 27.8819 59.2741C27.9398 59.1473 28.0243 59.0345 28.1296 58.9432C29.1848 58.0244 29.975 56.8398 30.418 55.5125C31.0081 53.6469 30.9872 51.6416 30.3584 49.7887C29.7296 47.9357 28.5258 46.3319 26.9221 45.2107L19.3825 39.7796C18.4917 39.1395 17.3986 38.8449 16.3068 38.9507C15.215 39.0564 14.1988 39.5554 13.4474 40.3546C13.2708 40.5428 13.0266 40.6532 12.7686 40.6614C12.5106 40.6696 12.2599 40.575 12.0716 40.3984C11.8834 40.2217 11.773 39.9776 11.7648 39.7196C11.7566 39.4615 11.8512 39.2108 12.0278 39.0226C13.103 37.8806 14.5562 37.1677 16.1175 37.0165C17.6787 36.8653 19.2417 37.286 20.516 38.2004L28.0556 43.6316C29.9966 44.9978 31.4508 46.9477 32.2068 49.1977C32.9628 51.4476 32.981 53.8801 32.2589 56.1411C31.7529 57.6467 30.8884 59.0068 29.7398 60.104V66.4643C29.7403 66.5924 29.7156 66.7194 29.6669 66.8379C29.6182 66.9564 29.5466 67.0641 29.4562 67.1548C29.3658 67.2456 29.2584 67.3176 29.1401 67.3668C29.0218 67.4159 28.895 67.4412 28.7669 67.4412Z" fill="#020D19"/>
<path d="M16.5668 38.7593C16.3616 38.7594 16.1616 38.6946 15.9954 38.5742C15.8292 38.4538 15.7053 38.2839 15.6415 38.0889L12.7946 29.3691C12.5286 28.5519 11.9576 27.8688 11.2006 27.4621C10.4435 27.0554 9.55872 26.9564 8.73049 27.1858C8.48173 27.2545 8.21584 27.2217 7.99132 27.0944C7.76679 26.9671 7.60202 26.7559 7.53325 26.5071C7.46448 26.2584 7.49734 25.9925 7.62461 25.7679C7.75188 25.5434 7.96314 25.3786 8.21189 25.3099C9.52281 24.9456 10.9238 25.1016 12.1224 25.7454C13.3211 26.3891 14.2249 27.4709 14.6452 28.7649L17.4921 37.4837C17.5319 37.6053 17.5473 37.7335 17.5375 37.861C17.5277 37.9886 17.4928 38.1129 17.4349 38.227C17.377 38.341 17.2971 38.4425 17.1999 38.5257C17.1027 38.6089 16.9901 38.672 16.8684 38.7116C16.771 38.743 16.6692 38.7591 16.5668 38.7593Z" fill="#020D19"/>
<path d="M36 40.7816C35.8066 40.7817 35.6176 40.7241 35.4571 40.6162C34.7108 40.1142 17.1749 28.1768 17.1749 15.5281C17.1737 13.346 17.8237 11.2131 19.0417 9.40255C20.2597 7.59197 21.9904 6.18605 24.012 5.36476C26.0337 4.54346 28.2545 4.34415 30.3901 4.79233C32.5258 5.24052 34.4791 6.31581 36 7.88057C37.5209 6.31581 39.4742 5.24052 41.6099 4.79233C43.7455 4.34415 45.9663 4.54346 47.988 5.36476C50.0097 6.18605 51.7403 7.59197 52.9583 9.40255C54.1763 11.2131 54.8263 13.346 54.8251 15.5281C54.8251 28.1768 37.2892 40.1142 36.5429 40.6162C36.3824 40.7241 36.1934 40.7817 36 40.7816ZM28.1452 6.50479C25.7527 6.5071 23.4588 7.45849 21.7669 9.15017C20.0751 10.8418 19.1234 13.1356 19.1209 15.5281C19.1209 25.9779 33.0509 36.5074 36 38.6197C38.9491 36.5054 52.8791 25.9642 52.8791 15.5281C52.8805 13.6515 52.2963 11.8212 51.2079 10.2924C50.1196 8.76354 48.5813 7.61242 46.8076 6.99947C45.0338 6.38652 43.1131 6.3423 41.313 6.87295C39.5129 7.40361 37.9233 8.48271 36.7657 9.95981C36.671 10.0702 36.5535 10.1588 36.4214 10.2196C36.2892 10.2803 36.1455 10.3118 36 10.3118C35.8545 10.3118 35.7108 10.2803 35.5786 10.2196C35.4465 10.1588 35.329 10.0702 35.2343 9.95981C34.3943 8.88155 33.3188 8.00967 32.0901 7.41084C30.8614 6.81201 29.512 6.50209 28.1452 6.50479Z" fill="#020D19"/>
</svg>
