<svg width="55" height="56" viewBox="0 0 55 56" fill="none" xmlns="http://www.w3.org/2000/svg">
<path d="M8.65491 50.497H3.22923C2.76751 50.4974 2.32453 50.3145 1.99769 49.9883C1.67085 49.6622 1.48692 49.2196 1.48633 48.7579V29.5175C1.48672 29.0562 1.67016 28.6139 1.99638 28.2876C2.32259 27.9614 2.76492 27.778 3.22626 27.7776H8.65194C9.11315 27.7782 9.55528 27.9617 9.88134 28.2879C10.2074 28.6141 10.3907 29.0563 10.3911 29.5175V48.7579C10.3905 49.2184 10.2075 49.66 9.88213 49.986C9.55674 50.3119 9.11547 50.4957 8.65491 50.497ZM3.22626 29.2641C3.15904 29.2641 3.09458 29.2908 3.04705 29.3383C2.99952 29.3858 2.97281 29.4503 2.97281 29.5175V48.7579C2.97301 48.8249 2.9998 48.8892 3.04731 48.9366C3.09482 48.984 3.15917 49.0106 3.22626 49.0106H8.65194C8.7189 49.0104 8.78306 48.9837 8.83041 48.9363C8.87776 48.889 8.90444 48.8248 8.90464 48.7579V29.5175C8.90464 29.4504 8.87804 29.3861 8.83067 29.3386C8.7833 29.2911 8.71903 29.2643 8.65194 29.2641H3.22626Z" fill="#020D19"/>
<path d="M27.4072 51.6097C25.4556 51.61 23.5193 51.2648 21.688 50.59L17.6395 49.0983C15.1546 48.1813 12.5266 47.7128 9.87784 47.7144H9.65486C9.45774 47.7144 9.2687 47.6361 9.12931 47.4967C8.98993 47.3573 8.91162 47.1683 8.91162 46.9711C8.91162 46.774 8.98993 46.585 9.12931 46.4456C9.2687 46.3062 9.45774 46.2279 9.65486 46.2279H9.87784C12.7018 46.2263 15.5037 46.7258 18.1531 47.7032L22.2023 49.1949C24.4793 50.0335 26.925 50.3101 29.3318 50.0012C31.7385 49.6924 34.0352 48.8072 36.0266 47.4208L51.715 36.4951C50.8896 35.5336 49.774 34.8664 48.5364 34.5942C47.2987 34.3219 46.0061 34.4593 44.8534 34.9856L33.2736 40.227C33.1847 40.2673 33.0886 40.2897 32.991 40.2929C32.8934 40.2961 32.7961 40.28 32.7047 40.2456C32.6133 40.2112 32.5295 40.1591 32.4583 40.0923C32.387 40.0256 32.3295 39.9454 32.2892 39.8564C32.2489 39.7675 32.2265 39.6714 32.2233 39.5738C32.2201 39.4762 32.2362 39.3789 32.2706 39.2875C32.305 39.1961 32.3571 39.1123 32.4238 39.0411C32.4906 38.9698 32.5708 38.9123 32.6597 38.872L44.2372 33.6314C45.8247 32.9069 47.6187 32.7727 49.2964 33.253C50.974 33.7333 52.4252 34.7965 53.3888 36.2513C53.4968 36.4133 53.537 36.6111 53.5007 36.8023C53.4645 36.9936 53.3546 37.1629 53.1948 37.2741L36.8724 48.6412C34.0947 50.5744 30.7915 51.6103 27.4072 51.6097Z" fill="#020D19"/>
<path d="M31.5759 40.6283H18.9623C18.7652 40.6283 18.5761 40.55 18.4368 40.4106C18.2974 40.2712 18.2191 40.0822 18.2191 39.885C18.2191 39.6879 18.2974 39.4989 18.4368 39.3595C18.5761 39.2201 18.7652 39.1418 18.9623 39.1418H31.5759C32.1887 39.1418 32.7765 38.8983 33.2098 38.465C33.6432 38.0316 33.8866 37.4439 33.8866 36.831C33.8866 36.2182 33.6432 35.6305 33.2098 35.1971C32.7765 34.7638 32.1887 34.5203 31.5759 34.5203H24.3724C23.4317 34.5208 22.4987 34.3519 21.6179 34.0216L17.4335 32.4519C16.7206 32.1838 15.9653 32.0466 15.2037 32.0468H9.65096C9.45384 32.0468 9.26479 31.9685 9.12541 31.8291C8.98602 31.6897 8.90771 31.5007 8.90771 31.3035C8.90771 31.1064 8.98602 30.9174 9.12541 30.778C9.26479 30.6386 9.45384 30.5603 9.65096 30.5603H15.2008C16.1415 30.5597 17.0746 30.7289 17.9552 31.0598L22.1404 32.6295C22.8533 32.8971 23.6087 33.0341 24.3701 33.0338H31.5737C32.5807 33.0338 33.5466 33.4339 34.2587 34.146C34.9708 34.8581 35.3709 35.824 35.3709 36.831C35.3709 37.8381 34.9708 38.804 34.2587 39.5161C33.5466 40.2282 32.5807 40.6283 31.5737 40.6283H31.5759Z" fill="#020D19"/>
<path d="M45.7543 34.6399C45.6134 34.64 45.4754 34.6 45.3564 34.5247C45.2374 34.4493 45.1422 34.3417 45.082 34.2144C45.0218 34.087 44.999 33.9452 45.0163 33.8054C45.0336 33.6656 45.0903 33.5336 45.1797 33.4247C47.0124 31.195 48.2485 28.5361 48.7719 25.6976C49.2953 22.8592 49.0889 19.9343 48.172 17.1975C47.0399 13.7934 44.8649 10.832 41.9554 8.73319C39.046 6.63436 35.5498 5.50458 31.9623 5.50401C28.3748 5.50343 24.8782 6.63209 21.9681 8.72998C19.058 10.8279 16.8821 13.7886 15.7488 17.1923C14.5715 20.6991 14.5715 24.4945 15.7488 28.0013C16.0933 29.0593 16.5485 30.0779 17.1067 31.0404C17.1584 31.1248 17.1927 31.2187 17.2076 31.3166C17.2225 31.4145 17.2177 31.5143 17.1935 31.6103C17.1693 31.7063 17.1262 31.7965 17.0666 31.8756C17.0071 31.9547 16.9324 32.0211 16.8468 32.0709C16.7612 32.1207 16.6666 32.1529 16.5684 32.1656C16.4703 32.1784 16.3705 32.1713 16.2751 32.145C16.1797 32.1187 16.0905 32.0735 16.0127 32.0122C15.935 31.951 15.8703 31.8748 15.8224 31.7881C15.211 30.7383 14.7128 29.6267 14.3359 28.4718C13.056 24.6587 13.056 20.532 14.3359 16.7189C15.5685 13.0201 17.9338 9.80309 21.0966 7.52359C24.2595 5.24409 28.0595 4.01774 31.9582 4.01831C35.8569 4.01889 39.6566 5.24636 42.8187 7.52679C45.9809 9.80723 48.3453 13.025 49.5768 16.7241C50.5702 19.7002 50.793 22.8797 50.2244 25.9653C49.6558 29.051 48.3142 31.9421 46.3251 34.3687C46.2557 34.453 46.1686 34.5211 46.0699 34.568C45.9713 34.6149 45.8635 34.6394 45.7543 34.6399Z" fill="#020D19"/>
<path d="M35.7123 39.0474C35.5713 39.0472 35.4332 39.007 35.3142 38.9313C35.1952 38.8556 35.1002 38.7476 35.0403 38.62C34.9804 38.4923 34.958 38.3503 34.9758 38.2104C34.9936 38.0705 35.0508 37.9385 35.1407 37.8299C36.8145 35.8098 38.1286 32.2742 38.7462 28.1314C39.2804 24.4632 39.2804 20.7371 38.7462 17.0689C37.7399 10.2593 34.949 5.5048 31.9597 5.5048C28.9703 5.5048 26.1795 10.2616 25.1731 17.0667C24.639 20.7351 24.639 24.4615 25.1731 28.1299C25.4298 29.9679 25.8685 31.776 26.4827 33.5273C26.5185 33.6198 26.5354 33.7185 26.5324 33.8176C26.5295 33.9167 26.5067 34.0142 26.4655 34.1044C26.4243 34.1946 26.3655 34.2756 26.2925 34.3427C26.2195 34.4098 26.1338 34.4616 26.0404 34.4951C25.9471 34.5285 25.848 34.543 25.749 34.5376C25.65 34.5322 25.5531 34.507 25.464 34.4636C25.3748 34.4202 25.2953 34.3593 25.23 34.2847C25.1647 34.2101 25.1151 34.1231 25.0839 34.029C24.4361 32.186 23.9732 30.2831 23.7022 28.3484C23.1468 24.5348 23.1468 20.661 23.7022 16.8474C24.855 9.05527 28.0948 4.01831 31.9597 4.01831C35.8245 4.01831 39.0643 9.05527 40.2164 16.8497C40.4985 18.7532 40.6378 20.6751 40.6333 22.5994C40.6378 24.5247 40.4984 26.4476 40.2164 28.3521C39.5474 32.8197 38.1546 36.5233 36.2853 38.7783C36.2155 38.8626 36.128 38.9304 36.0289 38.9769C35.9298 39.0234 35.8217 39.0475 35.7123 39.0474Z" fill="#020D19"/>
<path d="M31.9596 34.5433C31.7624 34.5433 31.5734 34.465 31.434 34.3256C31.2946 34.1862 31.2163 33.9972 31.2163 33.8001V4.76155C31.2163 4.56443 31.2946 4.37539 31.434 4.236C31.5734 4.09662 31.7624 4.01831 31.9596 4.01831C32.1567 4.01831 32.3457 4.09662 32.4851 4.236C32.6245 4.37539 32.7028 4.56443 32.7028 4.76155V33.8001C32.7028 33.9972 32.6245 34.1862 32.4851 34.3256C32.3457 34.465 32.1567 34.5433 31.9596 34.5433Z" fill="#020D19"/>
<path d="M48.878 17.6984H15.0411C14.844 17.6984 14.6549 17.6201 14.5155 17.4807C14.3762 17.3413 14.2979 17.1523 14.2979 16.9552C14.2979 16.758 14.3762 16.569 14.5155 16.4296C14.6549 16.2902 14.844 16.2119 15.0411 16.2119H48.878C49.0751 16.2119 49.2642 16.2902 49.4035 16.4296C49.5429 16.569 49.6212 16.758 49.6212 16.9552C49.6212 17.1523 49.5429 17.3413 49.4035 17.4807C49.2642 17.6201 49.0751 17.6984 48.878 17.6984Z" fill="#020D19"/>
<path d="M48.878 28.9875H15.0411C14.844 28.9875 14.6549 28.9092 14.5155 28.7698C14.3762 28.6304 14.2979 28.4413 14.2979 28.2442C14.2979 28.0471 14.3762 27.8581 14.5155 27.7187C14.6549 27.5793 14.844 27.501 15.0411 27.501H48.878C49.0751 27.501 49.2642 27.5793 49.4035 27.7187C49.5429 27.8581 49.6212 28.0471 49.6212 28.2442C49.6212 28.4413 49.5429 28.6304 49.4035 28.7698C49.2642 28.9092 49.0751 28.9875 48.878 28.9875Z" fill="#020D19"/>
</svg>
