<svg width="56" height="56" viewBox="0 0 56 56" fill="none" xmlns="http://www.w3.org/2000/svg">
<path d="M9.15491 50.7536H3.72923C3.26751 50.754 2.82453 50.571 2.49769 50.2449C2.17085 49.9188 1.98692 49.4762 1.98633 49.0145V29.7741C1.98672 29.3128 2.17016 28.8704 2.49638 28.5442C2.82259 28.218 3.26492 28.0346 3.72626 28.0342H9.15194C9.61315 28.0348 10.0553 28.2183 10.3813 28.5445C10.7074 28.8707 10.8907 29.3129 10.8911 29.7741V49.0145C10.8905 49.475 10.7075 49.9166 10.3821 50.2425C10.0567 50.5685 9.61547 50.7523 9.15491 50.7536ZM3.72626 29.5207C3.65904 29.5207 3.59458 29.5474 3.54705 29.5949C3.49952 29.6424 3.47281 29.7069 3.47281 29.7741V49.0145C3.47301 49.0815 3.4998 49.1458 3.54731 49.1932C3.59482 49.2406 3.65917 49.2672 3.72626 49.2672H9.15194C9.2189 49.267 9.28306 49.2403 9.33041 49.1929C9.37776 49.1456 9.40444 49.0814 9.40464 49.0145V29.7741C9.40464 29.707 9.37804 29.6427 9.33067 29.5952C9.2833 29.5477 9.21903 29.5209 9.15194 29.5207H3.72626Z" fill="#020D19"/>
<path d="M27.9077 51.8663C25.9561 51.8666 24.0198 51.5214 22.1885 50.8466L18.14 49.3549C15.6551 48.4379 13.0271 47.9694 10.3783 47.971H10.1554C9.95823 47.971 9.76919 47.8927 9.6298 47.7533C9.49042 47.6139 9.41211 47.4249 9.41211 47.2277C9.41211 47.0306 9.49042 46.8416 9.6298 46.7022C9.76919 46.5628 9.95823 46.4845 10.1554 46.4845H10.3783C13.2023 46.4829 16.0042 46.9824 18.6536 47.9598L22.7028 49.4515C24.9798 50.2901 27.4255 50.5667 29.8323 50.2578C32.239 49.949 34.5357 49.0638 36.5271 47.6774L52.2155 36.7517C51.3901 35.7902 50.2745 35.123 49.0368 34.8508C47.7992 34.5785 46.5066 34.7159 45.3539 35.2422L33.7741 40.4835C33.6852 40.5239 33.5891 40.5463 33.4915 40.5494C33.3939 40.5526 33.2966 40.5366 33.2052 40.5022C33.1138 40.4678 33.03 40.4157 32.9587 40.3489C32.8875 40.2822 32.83 40.202 32.7897 40.113C32.7494 40.0241 32.727 39.928 32.7238 39.8304C32.7206 39.7328 32.7367 39.6355 32.7711 39.5441C32.8055 39.4527 32.8576 39.3689 32.9243 39.2977C32.9911 39.2264 33.0713 39.1689 33.1602 39.1286L44.7377 33.888C46.3252 33.1635 48.1192 33.0293 49.7969 33.5096C51.4745 33.9898 52.9257 35.0531 53.8893 36.5079C53.9973 36.6699 54.0375 36.8677 54.0012 37.0589C53.9649 37.2502 53.8551 37.4195 53.6953 37.5306L37.3729 48.8978C34.5952 50.831 31.2919 51.8669 27.9077 51.8663Z" fill="#020D19"/>
<path d="M32.0764 40.8849H19.4628C19.2657 40.8849 19.0766 40.8066 18.9372 40.6672C18.7979 40.5278 18.7196 40.3387 18.7196 40.1416C18.7196 39.9445 18.7979 39.7555 18.9372 39.6161C19.0766 39.4767 19.2657 39.3984 19.4628 39.3984H32.0764C32.6892 39.3984 33.277 39.1549 33.7103 38.7216C34.1437 38.2882 34.3871 37.7005 34.3871 37.0876C34.3871 36.4748 34.1437 35.887 33.7103 35.4537C33.277 35.0203 32.6892 34.7769 32.0764 34.7769H24.8729C23.9322 34.7774 22.9992 34.6085 22.1184 34.2782L17.9339 32.7084C17.2211 32.4404 16.4658 32.3032 15.7042 32.3034H10.1514C9.95433 32.3034 9.76528 32.2251 9.62589 32.0857C9.48651 31.9463 9.4082 31.7573 9.4082 31.5601C9.4082 31.363 9.48651 31.174 9.62589 31.0346C9.76528 30.8952 9.95433 30.8169 10.1514 30.8169H15.7012C16.642 30.8163 17.5751 30.9855 18.4557 31.3164L22.6409 32.8861C23.3538 33.1537 24.1091 33.2907 24.8706 33.2904H32.0741C33.0812 33.2904 34.0471 33.6905 34.7592 34.4026C35.4713 35.1147 35.8714 36.0806 35.8714 37.0876C35.8714 38.0947 35.4713 39.0606 34.7592 39.7727C34.0471 40.4848 33.0812 40.8849 32.0741 40.8849H32.0764Z" fill="#020D19"/>
<path d="M46.2533 34.8965C46.1124 34.8966 45.9744 34.8566 45.8554 34.7813C45.7364 34.7059 45.6412 34.5983 45.581 34.471C45.5208 34.3436 45.498 34.2018 45.5153 34.062C45.5326 33.9222 45.5893 33.7902 45.6788 33.6813C47.5114 31.4515 48.7475 28.7926 49.2709 25.9542C49.7943 23.1158 49.5879 20.1909 48.6711 17.4541C47.5389 14.05 45.3639 11.0886 42.4545 8.98978C39.545 6.89096 36.0488 5.76117 32.4613 5.7606C28.8739 5.76002 25.3772 6.88868 22.4671 8.98657C19.557 11.0845 17.3811 14.0451 16.2478 17.4489C15.0705 20.9557 15.0705 24.7511 16.2478 28.2579C16.5923 29.3158 17.0475 30.3345 17.6057 31.297C17.6574 31.3814 17.6917 31.4753 17.7066 31.5732C17.7216 31.6711 17.7168 31.7709 17.6926 31.8669C17.6683 31.9629 17.6252 32.0531 17.5657 32.1322C17.5061 32.2113 17.4314 32.2777 17.3458 32.3275C17.2603 32.3773 17.1656 32.4095 17.0675 32.4222C16.9693 32.4349 16.8696 32.4279 16.7741 32.4016C16.6787 32.3753 16.5895 32.3301 16.5118 32.2688C16.434 32.2075 16.3693 32.1313 16.3214 32.0447C15.7101 30.9949 15.2118 29.8832 14.8349 28.7284C13.555 24.9153 13.555 20.7885 14.8349 16.9754C16.0675 13.2767 18.4328 10.0597 21.5957 7.78018C24.7585 5.50068 28.5585 4.27433 32.4572 4.2749C36.3559 4.27548 40.1556 5.50295 43.3178 7.78339C46.48 10.0638 48.8443 13.2816 50.0758 16.9806C51.0693 19.9568 51.2921 23.1363 50.7234 26.2219C50.1548 29.3076 48.8132 32.1987 46.8241 34.6252C46.7547 34.7096 46.6676 34.7777 46.569 34.8246C46.4703 34.8715 46.3625 34.896 46.2533 34.8965Z" fill="#020D19"/>
<path d="M36.2118 39.304C36.0708 39.3038 35.9327 39.2635 35.8137 39.1879C35.6947 39.1122 35.5997 39.0042 35.5398 38.8766C35.4799 38.7489 35.4575 38.6068 35.4753 38.467C35.4931 38.3271 35.5503 38.1951 35.6403 38.0865C37.314 36.0664 38.6281 32.5308 39.2457 28.3879C39.7799 24.7198 39.7799 20.9936 39.2457 17.3255C38.2394 10.5159 35.4485 5.76139 32.4592 5.76139C29.4699 5.76139 26.679 10.5181 25.6726 17.3233C25.1385 20.9917 25.1385 24.7181 25.6726 28.3865C25.9293 30.2245 26.368 32.0326 26.9822 33.7839C27.018 33.8764 27.0349 33.9751 27.032 34.0742C27.029 34.1733 27.0062 34.2708 26.965 34.361C26.9238 34.4512 26.865 34.5322 26.792 34.5993C26.719 34.6664 26.6333 34.7182 26.54 34.7517C26.4466 34.7851 26.3475 34.7996 26.2485 34.7942C26.1495 34.7888 26.0526 34.7636 25.9635 34.7202C25.8743 34.6768 25.7948 34.6159 25.7295 34.5413C25.6643 34.4667 25.6146 34.3797 25.5834 34.2856C24.9356 32.4426 24.4727 30.5396 24.2017 28.605C23.6463 24.7914 23.6463 20.9176 24.2017 17.104C25.3545 9.31186 28.5943 4.2749 32.4592 4.2749C36.324 4.2749 39.5638 9.31186 40.7159 17.1063C40.998 19.0098 41.1373 20.9317 41.1328 22.856C41.1373 24.7813 40.9979 26.7042 40.7159 28.6087C40.0469 33.0763 38.6541 36.7799 36.7849 39.0349C36.715 39.1192 36.6275 39.187 36.5284 39.2335C36.4294 39.28 36.3212 39.3041 36.2118 39.304Z" fill="#020D19"/>
<path d="M32.46 34.7999C32.2629 34.7999 32.0739 34.7216 31.9345 34.5822C31.7951 34.4428 31.7168 34.2538 31.7168 34.0567V5.01815C31.7168 4.82103 31.7951 4.63198 31.9345 4.49259C32.0739 4.35321 32.2629 4.2749 32.46 4.2749C32.6572 4.2749 32.8462 4.35321 32.9856 4.49259C33.125 4.63198 33.2033 4.82103 33.2033 5.01815V34.0567C33.2033 34.2538 33.125 34.4428 32.9856 34.5822C32.8462 34.7216 32.6572 34.7999 32.46 34.7999Z" fill="#020D19"/>
<path d="M49.377 17.955H15.5401C15.343 17.955 15.154 17.8767 15.0146 17.7373C14.8752 17.5979 14.7969 17.4089 14.7969 17.2117C14.7969 17.0146 14.8752 16.8256 15.0146 16.6862C15.154 16.5468 15.343 16.4685 15.5401 16.4685H49.377C49.5741 16.4685 49.7632 16.5468 49.9026 16.6862C50.042 16.8256 50.1203 17.0146 50.1203 17.2117C50.1203 17.4089 50.042 17.5979 49.9026 17.7373C49.7632 17.8767 49.5741 17.955 49.377 17.955Z" fill="#020D19"/>
<path d="M49.377 29.2441H15.5401C15.343 29.2441 15.154 29.1657 15.0146 29.0264C14.8752 28.887 14.7969 28.6979 14.7969 28.5008C14.7969 28.3037 14.8752 28.1146 15.0146 27.9753C15.154 27.8359 15.343 27.7576 15.5401 27.7576H49.377C49.5741 27.7576 49.7632 27.8359 49.9026 27.9753C50.042 28.1146 50.1203 28.3037 50.1203 28.5008C50.1203 28.6979 50.042 28.887 49.9026 29.0264C49.7632 29.1657 49.5741 29.2441 49.377 29.2441Z" fill="#020D19"/>
</svg>
