<svg width="62" height="61" viewBox="0 0 62 61" fill="none" xmlns="http://www.w3.org/2000/svg">
<path d="M26.2875 56.4143C25.9519 56.4139 25.6229 56.3231 25.3362 56.1516L17.8349 51.6922C17.4172 51.4433 17.1169 51.0417 16.9998 50.5754C16.8827 50.1091 16.9583 49.6161 17.21 49.2046L17.3106 49.0424C18.5172 46.9948 19.2188 44.6973 19.359 42.3346C19.392 41.9256 19.4528 41.5193 19.5412 41.1184C20.0313 39.0937 21.1658 37.2759 22.7795 35.9296C24.3931 34.5834 26.4016 33.7791 28.5123 33.6338L36.8067 32.9738C37.9656 32.8848 39.1247 33.1427 40.1319 33.7136C41.1391 34.2844 41.9472 35.1416 42.45 36.1724L52.3708 27.4003C53.2787 26.5921 54.45 26.1291 55.674 26.0946C56.898 26.0601 58.0943 26.4564 59.0478 27.2122L59.3874 27.4781C59.4733 27.5456 59.5447 27.6294 59.5972 27.7245C59.6497 27.8196 59.6823 27.924 59.6932 28.0317C59.704 28.1394 59.6928 28.2481 59.6603 28.3515C59.6277 28.4548 59.5745 28.5507 59.5036 28.6335L46.9739 43.3141C45.8806 44.5897 44.3962 45.4821 42.7435 45.8576L36.4687 47.27C34.4842 47.7172 32.6578 48.6796 31.1798 50.0568C29.7017 51.4341 28.626 53.1758 28.0647 55.1008C27.9877 55.3689 27.8484 55.6157 27.6579 55.8219C27.4674 56.028 27.2308 56.1878 26.9667 56.2886C26.7503 56.372 26.5199 56.4146 26.2875 56.4143ZM37.2741 34.5776C37.1644 34.5776 37.0548 34.5816 36.9444 34.5905L28.65 35.2513C26.8917 35.3666 25.2167 36.0311 23.8691 37.1479C22.5214 38.2648 21.5715 39.7757 21.1577 41.4605C21.0846 41.79 21.0344 42.1241 21.0077 42.4603C20.8485 45.0758 20.0672 47.6181 18.7268 49.8824L18.6262 50.0446C18.6002 50.0879 18.5926 50.1395 18.6051 50.1883C18.6176 50.237 18.6492 50.2789 18.693 50.3049L26.1943 54.7643C26.2197 54.7796 26.2484 54.7888 26.278 54.7914C26.3076 54.7939 26.3375 54.7897 26.3652 54.779C26.3929 54.7683 26.4177 54.7515 26.4377 54.7298C26.4577 54.7081 26.4723 54.6822 26.4804 54.6541C27.1224 52.4507 28.3531 50.4569 30.0444 48.8802C31.7357 47.3035 33.8257 46.2015 36.0969 45.6889L42.3717 44.2757C43.6747 43.9797 44.8449 43.2761 45.7069 42.2705L57.6827 28.2435C57.0368 27.8442 56.276 27.6634 55.516 27.7287C54.7561 27.794 54.0386 28.1017 53.4729 28.6051L42.6404 38.1881C42.534 38.2851 42.4035 38.3531 42.2621 38.3851H42.2415L42.2002 38.3916L31.165 40.0805C31.058 40.0968 30.9488 40.0922 30.8436 40.067C30.7384 40.0418 30.6393 39.9964 30.5519 39.9335C30.4645 39.8706 30.3906 39.7914 30.3343 39.7004C30.2781 39.6094 30.2406 39.5084 30.224 39.4031C30.2075 39.2979 30.2122 39.1904 30.2378 39.0869C30.2635 38.9835 30.3096 38.886 30.3735 38.8C30.4375 38.7141 30.518 38.6414 30.6105 38.586C30.7031 38.5307 30.8058 38.4939 30.9128 38.4776L40.9959 36.937C40.6698 36.2349 40.1459 35.6395 39.4862 35.2213C38.8266 34.8031 38.0589 34.5797 37.2741 34.5776Z" fill="white"/>
<path d="M40.0282 35.2279C39.8608 35.228 39.6974 35.178 39.5596 35.0845C39.4219 34.991 39.3163 34.8584 39.257 34.7045C39.1977 34.5506 39.1874 34.3825 39.2275 34.2227C39.2677 34.0629 39.3563 33.9189 39.4816 33.8098L47.4776 26.8547C48.3767 26.066 49.5535 25.6539 50.757 25.7064C51.9606 25.7588 53.0957 26.2715 53.9205 27.1352C53.9949 27.2126 54.0531 27.3036 54.0918 27.4031C54.1305 27.5026 54.1488 27.6085 54.1458 27.715C54.1429 27.8215 54.1186 27.9263 54.0744 28.0235C54.0302 28.1208 53.967 28.2085 53.8884 28.2817C53.8097 28.3549 53.7172 28.4122 53.616 28.4502C53.5149 28.4882 53.4071 28.5063 53.2989 28.5033C53.1907 28.5004 53.0841 28.4765 52.9852 28.4331C52.8864 28.3896 52.7972 28.3274 52.7228 28.2501C52.1911 27.6934 51.4594 27.3629 50.6837 27.3291C49.9079 27.2954 49.1494 27.5609 48.5698 28.0693L40.5714 35.022C40.4218 35.1533 40.2287 35.2265 40.0282 35.2279Z" fill="white"/>
<path d="M32.1632 29.4274C30.3088 29.4362 28.4783 29.015 26.8202 28.1979C25.1622 27.3809 23.7232 26.191 22.62 24.7247C22.4889 24.5527 22.4325 24.3365 22.4634 24.1236C22.4944 23.9107 22.61 23.7186 22.7849 23.5896C22.9598 23.4606 23.1796 23.4052 23.3961 23.4356C23.6125 23.466 23.8078 23.5797 23.9389 23.7518C24.8893 25.0158 26.1293 26.0417 27.5582 26.7461C28.9872 27.4505 30.5649 27.8136 32.1632 27.8058C34.1966 27.8061 36.1845 27.2133 37.8753 26.1023C39.5661 24.9913 40.884 23.4121 41.6623 21.5643C42.4405 19.7165 42.6442 17.6832 42.2475 15.7216C41.8508 13.76 40.8716 11.9581 39.4338 10.5439C37.9959 9.1297 36.1639 8.16669 34.1695 7.77668C32.1752 7.38666 30.108 7.58716 28.2295 8.35281C26.351 9.11846 24.7455 10.4149 23.6162 12.0781C22.4868 13.7413 21.8842 15.6966 21.8847 17.6966C21.8855 18.1597 21.9161 18.6222 21.9762 19.0815C21.9908 19.1875 21.9838 19.2954 21.9558 19.3988C21.9278 19.5021 21.8792 19.5991 21.8129 19.6839C21.7467 19.7688 21.664 19.8399 21.5696 19.8931C21.4752 19.9464 21.3711 19.9807 21.2632 19.9942C21.1553 20.0077 21.0457 20 20.9408 19.9717C20.8359 19.9433 20.7377 19.8948 20.652 19.8289C20.5662 19.7631 20.4946 19.6812 20.4412 19.588C20.3878 19.4948 20.3536 19.3921 20.3408 19.2858C20.2721 18.7588 20.2372 18.228 20.2361 17.6966C20.2356 15.3758 20.9348 13.107 22.2454 11.1771C23.5559 9.24727 25.4188 7.74301 27.5986 6.85463C29.7784 5.96624 32.177 5.73363 34.4912 6.18622C36.8053 6.6388 38.9311 7.75625 40.5995 9.39724C42.268 11.0382 43.4042 13.129 43.8645 15.4052C44.3248 17.6814 44.0885 20.0408 43.1854 22.1849C42.2824 24.3289 40.7532 26.1615 38.7912 27.4506C36.8293 28.7398 34.5227 29.4277 32.1632 29.4274Z" fill="white"/>
<path d="M32.1015 18.444C31.4685 18.4443 30.8483 18.2688 30.3122 17.9376C29.7762 17.6065 29.346 17.1333 29.0714 16.5723C28.7967 16.0114 28.6886 15.3855 28.7596 14.7668C28.8306 14.1482 29.0777 13.5617 29.4725 13.0751C29.8673 12.5884 30.3939 12.2213 30.9914 12.016C31.589 11.8107 32.2334 11.7755 32.8504 11.9145C33.4674 12.0535 34.032 12.361 34.4792 12.8017C34.9264 13.2423 35.238 13.7982 35.3781 14.4054C35.4049 14.5102 35.4101 14.6192 35.3934 14.726C35.3767 14.8328 35.3385 14.9352 35.281 15.0273C35.2235 15.1194 35.1478 15.1992 35.0585 15.2621C34.9692 15.325 34.868 15.3697 34.7609 15.3936C34.6537 15.4175 34.5428 15.4201 34.4347 15.4012C34.3265 15.3823 34.2232 15.3424 34.131 15.2837C34.0388 15.225 33.9594 15.1488 33.8975 15.0595C33.8356 14.9702 33.7925 14.8697 33.7707 14.7638C33.699 14.4547 33.5401 14.1719 33.3123 13.9477C33.0845 13.7235 32.7969 13.5672 32.4828 13.4966C32.1686 13.426 31.8406 13.4441 31.5364 13.5487C31.2322 13.6533 30.9642 13.8402 30.7632 14.088C30.5622 14.3357 30.4364 14.6343 30.4002 14.9492C30.364 15.2642 30.4189 15.5828 30.5586 15.8684C30.6983 16.1541 30.9172 16.3951 31.1899 16.5639C31.4627 16.7326 31.7784 16.8222 32.1006 16.8224C32.3193 16.8224 32.5289 16.9078 32.6835 17.0599C32.8381 17.2119 32.925 17.4182 32.925 17.6332C32.925 17.8483 32.8381 18.0545 32.6835 18.2065C32.5289 18.3586 32.3193 18.444 32.1006 18.444H32.1015Z" fill="white"/>
<path d="M32.1016 23.4346C31.3619 23.4341 30.643 23.1939 30.056 22.7511C29.4691 22.3084 29.0468 21.6877 28.8545 20.9851C28.7992 20.7778 28.8296 20.5573 28.9391 20.3719C29.0485 20.1865 29.2282 20.0514 29.4388 19.9959C29.6493 19.9405 29.8736 19.9694 30.0626 20.0762C30.2515 20.183 30.3898 20.3591 30.4471 20.5659C30.5301 20.8696 30.6977 21.1444 30.9311 21.3592C31.1646 21.574 31.4544 21.7203 31.768 21.7815C32.0816 21.8428 32.4063 21.8164 32.7054 21.7056C33.0045 21.5947 33.2662 21.4037 33.4607 21.1542C33.6552 20.9047 33.7749 20.6067 33.8062 20.2938C33.8375 19.9808 33.7791 19.6655 33.6377 19.3836C33.4963 19.1016 33.2775 18.8641 33.006 18.6981C32.7345 18.5321 32.4212 18.4441 32.1016 18.444C31.8829 18.444 31.6733 18.3586 31.5187 18.2066C31.3641 18.0545 31.2772 17.8483 31.2772 17.6332C31.2772 17.4182 31.3641 17.212 31.5187 17.0599C31.6733 16.9079 31.8829 16.8224 32.1016 16.8224C32.5474 16.8156 32.9901 16.896 33.4041 17.0591C33.818 17.2221 34.1948 17.4646 34.5125 17.7722C34.8303 18.0799 35.0826 18.4467 35.2549 18.8512C35.4271 19.2557 35.5158 19.6899 35.5158 20.1285C35.5158 20.5671 35.4271 21.0013 35.2549 21.4058C35.0826 21.8103 34.8303 22.1771 34.5125 22.4848C34.1948 22.7925 33.818 23.0349 33.4041 23.198C32.9901 23.361 32.5474 23.4415 32.1016 23.4346Z" fill="white"/>
<path d="M32.0957 13.4545C31.8771 13.4545 31.6674 13.3691 31.5128 13.217C31.3582 13.0649 31.2714 12.8587 31.2714 12.6437V11.4988C31.2714 11.2838 31.3582 11.0775 31.5128 10.9255C31.6674 10.7734 31.8771 10.688 32.0957 10.688C32.3143 10.688 32.524 10.7734 32.6786 10.9255C32.8332 11.0775 32.92 11.2838 32.92 11.4988V12.6437C32.92 12.8587 32.8332 13.0649 32.6786 13.217C32.524 13.3691 32.3143 13.4545 32.0957 13.4545Z" fill="white"/>
<path d="M32.0957 24.7043C31.8771 24.7043 31.6674 24.6189 31.5128 24.4668C31.3582 24.3148 31.2714 24.1085 31.2714 23.8935V22.6165C31.2714 22.4014 31.3582 22.1952 31.5128 22.0431C31.6674 21.8911 31.8771 21.8057 32.0957 21.8057C32.3143 21.8057 32.524 21.8911 32.6786 22.0431C32.8332 22.1952 32.92 22.4014 32.92 22.6165V23.8911C32.9203 23.9978 32.8993 24.1034 32.858 24.2021C32.8167 24.3008 32.756 24.3904 32.6794 24.466C32.6029 24.5415 32.5119 24.6015 32.4117 24.6424C32.3115 24.6833 32.2041 24.7043 32.0957 24.7043Z" fill="white"/>
<path d="M5.48406 28.7908H2.81737C2.59874 28.7908 2.38907 28.7054 2.23448 28.5533C2.07989 28.4013 1.99304 28.195 1.99304 27.98V10.0181C1.99304 9.80305 2.07989 9.59681 2.23448 9.44476C2.38907 9.2927 2.59874 9.20728 2.81737 9.20728H5.48406C6.45988 9.20835 7.39542 9.59011 8.08543 10.2688C8.77545 10.9475 9.16357 11.8677 9.16466 12.8275V25.1713C9.16335 26.131 8.77513 27.051 8.08514 27.7295C7.39515 28.4081 6.45974 28.7897 5.48406 28.7908ZM3.64169 27.1692H5.48406C6.02269 27.1687 6.53915 26.9581 6.92009 26.5836C7.30104 26.209 7.51536 25.7011 7.51602 25.1713V12.8275C7.51536 12.2977 7.30107 11.7897 6.92015 11.415C6.53922 11.0403 6.02276 10.8295 5.48406 10.8289H3.64169V27.1692Z" fill="white"/>
<path d="M8.34029 15.0007C8.13587 15.0009 7.93866 14.9263 7.78695 14.7916C7.63524 14.6568 7.53986 14.4714 7.51931 14.2713C7.49877 14.0713 7.55453 13.8709 7.67577 13.709C7.79702 13.5471 7.97509 13.4353 8.17543 13.3953L23.0578 10.4309C23.272 10.3879 23.4949 10.4304 23.6773 10.549C23.8597 10.6676 23.9868 10.8526 24.0305 11.0634C24.0742 11.2741 24.031 11.4933 23.9104 11.6727C23.7899 11.8522 23.6018 11.9771 23.3875 12.0201L8.50516 14.9844C8.45092 14.9955 8.39567 15.0009 8.34029 15.0007Z" fill="white"/>
<path d="M12.9161 27.8422C11.413 27.8641 9.93727 27.4459 8.67657 26.6406C8.41114 26.4662 8.13169 26.2716 7.85225 26.073C7.67301 25.9483 7.55135 25.7588 7.51395 25.546C7.47656 25.3332 7.52648 25.1145 7.65276 24.9378C7.77869 24.7631 7.96977 24.6445 8.18429 24.6079C8.39881 24.5713 8.61935 24.6197 8.79775 24.7424C9.07142 24.9338 9.33851 25.1195 9.59569 25.2889C12.0093 26.8951 16.126 26.2951 17.7565 24.1027C17.8711 23.9406 17.9395 23.8335 17.9477 23.8222C18.021 23.7026 18.1243 23.6037 18.2478 23.5349C18.3712 23.4662 18.5107 23.43 18.6525 23.4297H23.3652C23.6055 23.4302 23.8433 23.3818 24.0636 23.2874C24.2839 23.1931 24.482 23.0549 24.6453 22.8815C24.8086 22.7081 24.9337 22.5034 25.0126 22.2801C25.0915 22.0569 25.1225 21.82 25.1037 21.5843C25.0524 21.1357 24.8313 20.7226 24.4845 20.4269C24.1376 20.1313 23.6904 19.9748 23.2317 19.9887H18.6509C18.4323 19.9887 18.2226 19.9032 18.068 19.7512C17.9134 19.5991 17.8266 19.3929 17.8266 19.1778C17.8266 18.9628 17.9134 18.7566 18.068 18.6045C18.2226 18.4525 18.4323 18.367 18.6509 18.367H23.23C24.1073 18.3549 24.9568 18.669 25.6088 19.2464C26.2608 19.8238 26.6671 20.622 26.7466 21.4814C26.7839 21.9606 26.7147 22.442 26.5439 22.8923C26.3731 23.3425 26.1047 23.7509 25.7574 24.0889C25.1201 24.7111 24.259 25.0608 23.3611 25.0619H19.0919C18.3481 25.96 17.4043 26.6779 16.3334 27.1599C15.2625 27.642 14.0933 27.8755 12.9161 27.8422Z" fill="white"/>
</svg>
