<svg width="55" height="56" viewBox="0 0 55 56" fill="none" xmlns="http://www.w3.org/2000/svg">
<path fill-rule="evenodd" clip-rule="evenodd" d="M13.5377 27.5505C13.3988 27.5505 13.2572 27.5147 13.1279 27.4377C11.7062 26.5825 10.8276 25.521 10.5182 24.2835C10.4288 23.9232 10.4164 23.4777 10.3889 22.5977C10.3628 21.7067 10.3752 21.0935 10.3821 20.6411C10.3958 19.9385 10.3958 19.7405 10.2858 19.4724C10.1566 19.185 9.14043 17.9145 8.02255 16.7072C7.72555 16.3869 7.7448 15.885 8.06518 15.588C8.38555 15.291 8.88743 15.3102 9.18443 15.6306C9.27655 15.7296 11.4257 18.0589 11.7557 18.8811C11.9867 19.4586 11.9798 19.8904 11.9633 20.67C11.9564 21.1017 11.9441 21.6999 11.9661 22.551C11.9853 23.2206 11.9991 23.7032 12.0486 23.8971C12.2534 24.7125 12.8873 25.4454 13.9364 26.0779C14.3132 26.302 14.4314 26.7901 14.2073 27.1641C14.0684 27.4116 13.8044 27.5505 13.5377 27.5505Z" fill="#020D19"/>
<path fill-rule="evenodd" clip-rule="evenodd" d="M24.4675 13.6892C24.286 13.6892 24.1073 13.63 23.9588 13.5049C22.6718 12.4228 21.4205 12.1918 20.5955 12.0364C20.315 11.9842 20.0703 11.9402 19.8668 11.8687C19.0019 11.5689 18.368 11.2747 16.3619 9.1324C16.0622 8.81203 16.0787 8.31015 16.3977 8.01315C16.718 7.7134 17.2199 7.7299 17.5169 8.0489C19.3622 10.0124 19.7912 10.1637 20.3879 10.3727C20.48 10.4057 20.6753 10.4414 20.8829 10.4785C21.8138 10.6504 23.3675 10.9378 24.9777 12.2908C25.3104 12.5713 25.3544 13.0732 25.0739 13.4059C24.9158 13.5943 24.6917 13.6892 24.4675 13.6892Z" fill="#020D19"/>
<path fill-rule="evenodd" clip-rule="evenodd" d="M6.73281 18.6665C6.71906 18.6665 6.70668 18.6665 6.69706 18.6665C6.48531 18.6569 6.29143 18.5648 6.14981 18.4094L3.41768 15.4064C3.12343 15.0833 3.14681 14.5814 3.46993 14.2872C3.79306 13.9929 4.29493 14.0163 4.58918 14.3394L6.78643 16.7553L17.7424 6.78655L15.5452 4.37067C15.2509 4.04755 15.2743 3.54567 15.5974 3.25142C15.9206 2.95717 16.4224 2.98055 16.7167 3.30367L19.4488 6.30667C19.7431 6.6298 19.7197 7.13167 19.3966 7.42592L7.26631 18.4617C7.11918 18.5937 6.92806 18.6665 6.73281 18.6665Z" fill="#020D19"/>
<path fill-rule="evenodd" clip-rule="evenodd" d="M7.71592 42.9807C7.58667 42.9807 7.45879 42.9505 7.33642 42.8845C6.95417 42.6727 6.81117 42.1942 7.02292 41.8092L12.7182 31.3909C13.0055 30.8532 13.3713 30.3651 13.8099 29.9416L21.3435 22.6981C21.6598 22.3942 22.1589 22.4039 22.4628 22.7215C22.7667 23.0377 22.757 23.5369 22.4394 23.8407L14.9058 31.0842C14.5854 31.3909 14.3187 31.747 14.111 32.1375C14.1083 32.1402 14.1083 32.1444 14.1042 32.1471L8.40479 42.5724C8.26729 42.8322 7.99642 42.9807 7.71592 42.9807Z" fill="#020D19"/>
<path fill-rule="evenodd" clip-rule="evenodd" d="M13.2242 48.9302C12.9176 48.9302 12.6233 48.7487 12.4955 48.4489C12.3236 48.0461 12.512 47.5813 12.9107 47.4094C15.152 46.4524 16.8845 46.6834 18.4121 46.8883C19.1573 46.9873 19.8641 47.0836 20.5378 47.0107C22.7323 46.7797 26.6731 45.5945 27.6191 44.335C27.7937 44.104 28.0013 43.5952 27.8638 43.1566C27.7552 42.8101 27.4211 42.5433 26.8738 42.3673C26.4586 42.2326 26.2303 41.7871 26.3623 41.3705C26.4971 40.9552 26.9426 40.727 27.3592 40.859C28.682 41.2852 29.1838 42.0827 29.3722 42.6767C29.6953 43.6928 29.3131 44.7199 28.8868 45.2864C28.2461 46.1417 26.9426 46.9103 25.0093 47.5772C23.6068 48.0626 21.917 48.4586 20.7056 48.5837C19.8448 48.6758 19.013 48.5644 18.2072 48.4544C16.8185 48.2702 15.3788 48.0777 13.5377 48.8642C13.4346 48.9068 13.3301 48.9302 13.2242 48.9302Z" fill="#020D19"/>
<path fill-rule="evenodd" clip-rule="evenodd" d="M18.5895 33.4437C18.3887 33.4437 18.1838 33.368 18.0285 33.2127C17.7177 32.9019 17.7177 32.4014 18.0285 32.0934L27.4142 22.7077C27.725 22.3969 28.2255 22.3969 28.5335 22.7077C28.8442 23.0184 28.8442 23.5189 28.5335 23.8269L19.1477 33.2127C18.9951 33.368 18.7916 33.4437 18.5895 33.4437Z" fill="#020D19"/>
<path fill-rule="evenodd" clip-rule="evenodd" d="M22.3652 36.5196C22.1645 36.5196 21.9596 36.444 21.8042 36.2886C21.4935 35.9778 21.4935 35.4773 21.8042 35.1693L31.2986 25.675C31.6094 25.3642 32.1099 25.3642 32.4179 25.675C32.7286 25.9857 32.7286 26.4862 32.4179 26.7942L22.9235 36.2886C22.7709 36.4426 22.5701 36.5196 22.3652 36.5196Z" fill="#020D19"/>
<path fill-rule="evenodd" clip-rule="evenodd" d="M23.0417 41.9411C22.841 41.9411 22.6361 41.8654 22.4807 41.7101C22.17 41.3993 22.17 40.8988 22.4807 40.5908L33.0834 29.9882C33.3941 29.6774 33.8946 29.6774 34.2026 29.9882C34.5134 30.2989 34.5134 30.7994 34.2026 31.1074L23.6 41.7101C23.4446 41.8654 23.2425 41.9411 23.0417 41.9411Z" fill="#020D19"/>
<path fill-rule="evenodd" clip-rule="evenodd" d="M12.1352 53.7344C11.9207 53.7344 11.709 53.6492 11.555 53.4801C11.258 53.1597 11.2772 52.6578 11.5976 52.3608L13.997 50.1402L6.08384 41.5739L3.68721 43.7918C3.36684 44.0888 2.86496 44.0696 2.56796 43.7492C2.27096 43.4288 2.29021 42.9269 2.61059 42.6299L5.59021 39.8717C5.74559 39.7301 5.95046 39.6544 6.15809 39.6599C6.36984 39.6668 6.56784 39.7589 6.70946 39.9143L15.6951 49.6424C15.9921 49.9628 15.9728 50.4647 15.6525 50.7617L12.6728 53.5199C12.5216 53.6657 12.3291 53.7344 12.1352 53.7344Z" fill="#020D19"/>
<path fill-rule="evenodd" clip-rule="evenodd" d="M28.0645 14.1677C27.9257 14.1677 27.784 14.132 27.6548 14.055C27.278 13.8309 27.1598 13.3427 27.3839 12.9687C28.2392 11.547 29.3007 10.6684 30.5382 10.359C30.8984 10.2696 31.3439 10.2572 32.2239 10.2297C33.1149 10.2036 33.7282 10.216 34.1805 10.2229C34.8832 10.2366 35.0812 10.2366 35.3493 10.1266C35.6367 9.99737 36.9072 8.98125 38.1144 7.86337C38.4348 7.56637 38.9367 7.58562 39.2337 7.906C39.5307 8.22637 39.5114 8.72825 39.191 9.02525C39.092 9.11737 36.7628 11.2665 35.9405 11.5965C35.363 11.8275 34.9313 11.8206 34.1517 11.8041C33.7199 11.7972 33.1218 11.7849 32.2707 11.8069C31.601 11.8261 31.1184 11.8399 30.9245 11.8894C30.1092 12.0942 29.3763 12.7281 28.7438 13.7772C28.5953 14.033 28.334 14.1677 28.0645 14.1677Z" fill="#020D19"/>
<path fill-rule="evenodd" clip-rule="evenodd" d="M41.9245 25.0976C41.743 25.0976 41.5642 25.0385 41.4157 24.9134C41.083 24.6329 41.039 24.131 41.3195 23.7983C42.4016 22.5113 42.6326 21.26 42.788 20.435C42.8402 20.1545 42.8842 19.9098 42.9557 19.7063C43.2555 18.8414 43.5497 18.2075 45.692 16.2014C46.0124 15.9016 46.5142 15.9181 46.8112 16.2371C47.111 16.5575 47.0945 17.0594 46.7755 17.3564C44.812 19.1975 44.6607 19.6306 44.4517 20.2274C44.4187 20.3195 44.383 20.5148 44.3459 20.7224C44.174 21.6533 43.8866 23.207 42.5336 24.8171C42.3727 25.0028 42.1486 25.0976 41.9245 25.0976Z" fill="#020D19"/>
<path fill-rule="evenodd" clip-rule="evenodd" d="M47.9786 19.4917C47.7641 19.4917 47.5496 19.4064 47.3915 19.2345L36.3557 7.10704C36.2141 6.95166 36.1412 6.74679 36.1509 6.53641C36.1605 6.32604 36.2526 6.13079 36.408 5.98916L39.411 3.25704C39.7341 2.96279 40.236 2.98616 40.5302 3.30929C40.8245 3.63241 40.8011 4.13429 40.478 4.42854L38.0621 6.62441L48.0309 17.5804L50.4467 15.3832C50.7699 15.0889 51.2717 15.1123 51.566 15.4354C51.8602 15.7585 51.8369 16.2604 51.5137 16.5547L48.5107 19.2868C48.3622 19.4215 48.1711 19.4917 47.9786 19.4917Z" fill="#020D19"/>
<path fill-rule="evenodd" clip-rule="evenodd" d="M47.2527 39.0277C47.0547 39.0277 46.8539 38.952 46.6985 38.8035C46.6023 38.7114 44.3363 36.4908 43.9664 35.6878C43.7052 35.124 43.6928 34.6909 43.6667 33.9085C43.6529 33.4768 43.6337 32.8828 43.5677 32.0303C43.5154 31.3634 43.4756 30.8822 43.4192 30.6869C43.1744 29.8853 42.502 29.1827 41.4227 28.6052C41.0363 28.4003 40.8919 27.919 41.0954 27.5327C41.2989 27.1463 41.7815 27.0019 42.1679 27.2054C43.6337 27.9878 44.5632 29.0039 44.933 30.2222C45.0417 30.5783 45.0747 31.021 45.1475 31.8983C45.2163 32.7865 45.2369 33.4025 45.2534 33.8522C45.2768 34.5548 45.2864 34.7528 45.4088 35.0168C45.5546 35.2973 46.6325 36.5155 47.8082 37.6637C48.1217 37.9703 48.1285 38.4722 47.8219 38.7829C47.6624 38.9452 47.4576 39.0277 47.2527 39.0277Z" fill="#020D19"/>
<path fill-rule="evenodd" clip-rule="evenodd" d="M39.3203 47.0163C39.1223 47.0163 38.9243 46.9435 38.7731 46.795C36.8329 44.9277 36.3943 44.7985 35.7866 44.6197C35.6944 44.5936 35.4964 44.5675 35.2847 44.5372C34.3469 44.4121 32.7794 44.2045 31.1033 42.934C30.7541 42.67 30.6881 42.1722 30.9521 41.8257C31.2161 41.4765 31.7138 41.4105 32.0603 41.6745C33.4037 42.6906 34.6604 42.8597 35.4923 42.9683C35.7756 43.0041 36.0203 43.0371 36.2279 43.1003C37.1052 43.3575 37.7528 43.6187 39.8676 45.6551C40.1811 45.959 40.1907 46.4608 39.8868 46.7743C39.7356 46.9338 39.5279 47.0163 39.3203 47.0163Z" fill="#020D19"/>
<path fill-rule="evenodd" clip-rule="evenodd" d="M40.3736 51.719C40.1728 51.719 39.9707 51.6434 39.8153 51.488L36.9347 48.6266C36.7862 48.4781 36.7009 48.2774 36.7009 48.0684C36.7009 47.8566 36.7834 47.6559 36.9319 47.5074L48.4847 35.8721C48.7913 35.5614 49.2932 35.5586 49.6039 35.8694L52.4846 38.7308C52.7953 39.0374 52.7981 39.5393 52.4873 39.85C52.1807 40.1608 51.6788 40.1635 51.3681 39.8528L49.0484 37.5496L38.6136 48.0601L40.9332 50.3633C41.2439 50.6699 41.2467 51.1718 40.9359 51.4825C40.7792 51.6393 40.5743 51.719 40.3736 51.719Z" fill="#020D19"/>
</svg>
