<svg width="56" height="56" viewBox="0 0 56 56" fill="none" xmlns="http://www.w3.org/2000/svg">
<path d="M53.2701 53.5551H2.72957C2.53245 53.5551 2.3434 53.4768 2.20402 53.3374C2.06463 53.198 1.98633 53.009 1.98633 52.8118V23.0821C1.98633 22.885 2.06463 22.6959 2.20402 22.5566C2.3434 22.4172 2.53245 22.3389 2.72957 22.3389C2.92669 22.3389 3.11574 22.4172 3.25512 22.5566C3.39451 22.6959 3.47281 22.885 3.47281 23.0821V52.0686H52.5269V23.0821C52.5269 22.885 52.6052 22.6959 52.7446 22.5566C52.8839 22.4172 53.073 22.3389 53.2701 22.3389C53.4672 22.3389 53.6563 22.4172 53.7957 22.5566C53.935 22.6959 54.0134 22.885 54.0134 23.0821V52.8118C54.0134 53.009 53.935 53.198 53.7957 53.3374C53.6563 53.4768 53.4672 53.5551 53.2701 53.5551Z" fill="#020D19"/>
<path d="M37.3657 10.7294C37.1933 10.7295 37.0262 10.6696 36.893 10.56L28.0009 3.23752L19.1087 10.56C19.0334 10.622 18.9465 10.6687 18.8531 10.6972C18.7598 10.7257 18.6617 10.7355 18.5645 10.7261C18.4673 10.7168 18.373 10.6883 18.2868 10.6425C18.2006 10.5966 18.1243 10.5342 18.0622 10.4589C18.0001 10.3835 17.9535 10.2967 17.925 10.2033C17.8965 10.1099 17.8866 10.0119 17.896 9.9147C17.9054 9.81752 17.9338 9.72315 17.9797 9.63696C18.0256 9.55077 18.0879 9.47446 18.1633 9.41239L27.5282 1.69752C27.6613 1.58782 27.8284 1.52783 28.0009 1.52783C28.1733 1.52783 28.3405 1.58782 28.4736 1.69752L37.8384 9.41239C37.9567 9.50973 38.0419 9.64121 38.0826 9.78886C38.1232 9.93651 38.1173 10.0931 38.0656 10.2373C38.0138 10.3814 37.9188 10.506 37.7936 10.5941C37.6683 10.6822 37.5189 10.7295 37.3657 10.7294Z" fill="#020D19"/>
<path d="M53.2699 23.8254C53.0974 23.8255 52.9303 23.7655 52.7972 23.6559L44.3391 16.6903C44.1869 16.5649 44.0908 16.3842 44.0718 16.1879C44.0528 15.9917 44.1126 15.7959 44.238 15.6438C44.3634 15.4916 44.5441 15.3954 44.7403 15.3765C44.9366 15.3575 45.1323 15.4173 45.2845 15.5427L53.7426 22.5069C53.8614 22.6041 53.9472 22.7357 53.9882 22.8836C54.0292 23.0315 54.0234 23.1885 53.9716 23.333C53.9198 23.4775 53.8246 23.6024 53.6989 23.6906C53.5733 23.7787 53.4234 23.8258 53.2699 23.8254Z" fill="#020D19"/>
<path d="M2.72985 23.8254C2.57671 23.8255 2.42729 23.7782 2.30202 23.6901C2.17675 23.602 2.08176 23.4774 2.03002 23.3332C1.97829 23.1891 1.97234 23.0325 2.013 22.8849C2.05365 22.7372 2.13892 22.6057 2.25715 22.5084L10.7153 15.5442C10.868 15.4263 11.0606 15.3725 11.2523 15.3941C11.444 15.4156 11.6198 15.5109 11.7426 15.6597C11.8654 15.8085 11.9255 15.9992 11.9102 16.1916C11.8949 16.3839 11.8054 16.5627 11.6607 16.6903L3.20255 23.6545C3.06962 23.7646 2.90249 23.8251 2.72985 23.8254Z" fill="#020D19"/>
<path d="M27.9997 40.6969C25.7628 40.6995 23.5874 39.965 21.8099 38.6069L2.27824 23.6722C2.12905 23.55 2.03317 23.3747 2.01086 23.1831C1.98854 22.9916 2.04153 22.7989 2.15864 22.6457C2.27575 22.4925 2.44781 22.3909 2.63848 22.3622C2.82916 22.3335 3.02352 22.38 3.18054 22.4919L22.713 37.4311C24.2321 38.5893 26.0894 39.2165 27.9997 39.2165C29.9099 39.2165 31.7673 38.5893 33.2863 37.4311L52.8188 22.4919C52.8959 22.4288 52.985 22.3818 53.0806 22.3537C53.1763 22.3257 53.2766 22.3172 53.3757 22.3287C53.4747 22.3403 53.5704 22.3716 53.657 22.4209C53.7437 22.4702 53.8196 22.5364 53.8801 22.6156C53.9407 22.6948 53.9846 22.7853 54.0095 22.8819C54.0343 22.9785 54.0394 23.079 54.0246 23.1776C54.0098 23.2762 53.9753 23.3708 53.9231 23.4557C53.871 23.5407 53.8023 23.6143 53.7211 23.6722L34.1894 38.6114C32.4114 39.9678 30.236 40.7008 27.9997 40.6969Z" fill="#020D19"/>
<path d="M53.2694 53.5549H2.72889C2.57358 53.5547 2.42223 53.506 2.29607 53.4154C2.16992 53.3248 2.07531 53.197 2.02554 53.0499C1.97576 52.9027 1.97332 52.7437 2.01855 52.5952C2.06379 52.4466 2.15443 52.3159 2.27774 52.2215L21.7128 37.3566C21.7901 37.2947 21.8789 37.2489 21.9742 37.2218C22.0694 37.1946 22.1691 37.1868 22.2674 37.1988C22.3657 37.2108 22.4606 37.2422 22.5465 37.2914C22.6325 37.3405 22.7077 37.4063 22.7679 37.485C22.8281 37.5636 22.8719 37.6535 22.8969 37.7493C22.9218 37.8451 22.9274 37.9449 22.9132 38.0429C22.8991 38.1409 22.8655 38.2351 22.8144 38.3199C22.7633 38.4048 22.6958 38.4785 22.6158 38.5369L4.92443 52.0684H51.0739L33.3847 38.5369C33.3047 38.4785 33.2372 38.4048 33.1862 38.3199C33.1351 38.2351 33.1015 38.1409 33.0873 38.0429C33.0732 37.9449 33.0787 37.8451 33.1037 37.7493C33.1286 37.6535 33.1725 37.5636 33.2326 37.485C33.2928 37.4063 33.3681 37.3405 33.454 37.2914C33.54 37.2422 33.6349 37.2108 33.7332 37.1988C33.8315 37.1868 33.9312 37.1946 34.0264 37.2218C34.1216 37.2489 34.2105 37.2947 34.2877 37.3566L53.7228 52.2215C53.8463 52.316 53.937 52.4469 53.9822 52.5957C54.0273 52.7445 54.0247 52.9037 53.9747 53.0509C53.9246 53.1981 53.8296 53.3259 53.7031 53.4164C53.5766 53.5068 53.4249 53.5552 53.2694 53.5549Z" fill="#020D19"/>
<path d="M44.8129 30.2916C44.6158 30.2916 44.4267 30.2133 44.2873 30.0739C44.1479 29.9345 44.0696 29.7454 44.0696 29.5483V10.7294H11.9318V29.5483C11.9318 29.7454 11.8535 29.9345 11.7141 30.0739C11.5747 30.2133 11.3857 30.2916 11.1886 30.2916C10.9914 30.2916 10.8024 30.2133 10.663 30.0739C10.5236 29.9345 10.4453 29.7454 10.4453 29.5483V9.98616C10.4453 9.78904 10.5236 9.6 10.663 9.46061C10.8024 9.32123 10.9914 9.24292 11.1886 9.24292H44.8129C45.01 9.24292 45.199 9.32123 45.3384 9.46061C45.4778 9.6 45.5561 9.78904 45.5561 9.98616V29.5483C45.5561 29.7454 45.4778 29.9345 45.3384 30.0739C45.199 30.2133 45.01 30.2916 44.8129 30.2916Z" fill="#020D19"/>
<path d="M28.0003 22.9437C27.4819 22.9439 26.9752 22.7903 26.5441 22.5024C26.113 22.2145 25.777 21.8052 25.5785 21.3263C25.3801 20.8474 25.3281 20.3204 25.4292 19.812C25.5303 19.3036 25.7799 18.8365 26.1465 18.47C26.513 18.1034 26.9801 17.8538 27.4885 17.7527C27.9969 17.6516 28.5239 17.7036 29.0028 17.902C29.4817 18.1005 29.891 18.4365 30.1789 18.8676C30.4668 19.2986 30.6204 19.8054 30.6203 20.3238C30.6203 20.5209 30.542 20.71 30.4026 20.8494C30.2632 20.9888 30.0741 21.0671 29.877 21.0671C29.6799 21.0671 29.4908 20.9888 29.3515 20.8494C29.2121 20.71 29.1338 20.5209 29.1338 20.3238C29.1338 20.0996 29.0673 19.8805 28.9428 19.6941C28.8182 19.5077 28.6412 19.3624 28.4341 19.2766C28.227 19.1909 27.9991 19.1684 27.7792 19.2121C27.5593 19.2559 27.3574 19.3638 27.1989 19.5223C27.0403 19.6809 26.9324 19.8828 26.8887 20.1027C26.8449 20.3226 26.8674 20.5505 26.9532 20.7576C27.0389 20.9647 27.1842 21.1417 27.3706 21.2662C27.557 21.3908 27.7762 21.4573 28.0003 21.4573C28.1974 21.4573 28.3865 21.5356 28.5259 21.6749C28.6653 21.8143 28.7436 22.0034 28.7436 22.2005C28.7436 22.3976 28.6653 22.5867 28.5259 22.7261C28.3865 22.8654 28.1974 22.9437 28.0003 22.9437Z" fill="#020D19"/>
<path d="M28.0008 26.6979C27.3061 26.6971 26.64 26.4207 26.1488 25.9294C25.6576 25.4381 25.3814 24.7719 25.3809 24.0772C25.3809 23.8801 25.4592 23.691 25.5986 23.5517C25.7379 23.4123 25.927 23.334 26.1241 23.334C26.3212 23.334 26.5103 23.4123 26.6497 23.5517C26.789 23.691 26.8673 23.8801 26.8673 24.0772C26.8673 24.3014 26.9338 24.5205 27.0584 24.7069C27.1829 24.8933 27.3599 25.0386 27.567 25.1244C27.7742 25.2102 28.002 25.2326 28.2219 25.1889C28.4418 25.1451 28.6437 25.0372 28.8023 24.8787C28.9608 24.7202 29.0687 24.5182 29.1125 24.2983C29.1562 24.0785 29.1337 23.8506 29.048 23.6435C28.9622 23.4363 28.8169 23.2593 28.6305 23.1348C28.4441 23.0102 28.225 22.9438 28.0008 22.9438C27.8037 22.9438 27.6146 22.8655 27.4752 22.7261C27.3359 22.5867 27.2575 22.3976 27.2575 22.2005C27.2575 22.0034 27.3359 21.8144 27.4752 21.675C27.6146 21.5356 27.8037 21.4573 28.0008 21.4573C28.6881 21.4689 29.3433 21.75 29.8253 22.2402C30.3073 22.7303 30.5773 23.3902 30.5773 24.0776C30.5773 24.765 30.3073 25.4249 29.8253 25.915C29.3433 26.4052 28.6881 26.6863 28.0008 26.6979Z" fill="#020D19"/>
<path d="M27.9991 27.5028C27.802 27.5028 27.6129 27.4245 27.4735 27.2851C27.3342 27.1457 27.2559 26.9567 27.2559 26.7596V25.9569C27.2559 25.7597 27.3342 25.5707 27.4735 25.4313C27.6129 25.2919 27.802 25.2136 27.9991 25.2136C28.1962 25.2136 28.3853 25.2919 28.5247 25.4313C28.664 25.5707 28.7423 25.7597 28.7423 25.9569V26.7596C28.7423 26.9567 28.664 27.1457 28.5247 27.2851C28.3853 27.4245 28.1962 27.5028 27.9991 27.5028Z" fill="#020D19"/>
<path d="M27.9991 19.192C27.802 19.192 27.6129 19.1137 27.4735 18.9743C27.3342 18.8349 27.2559 18.6459 27.2559 18.4488V17.6461C27.2559 17.449 27.3342 17.2599 27.4735 17.1205C27.6129 16.9811 27.802 16.9028 27.9991 16.9028C28.1962 16.9028 28.3853 16.9811 28.5247 17.1205C28.664 17.2599 28.7423 17.449 28.7423 17.6461V18.4488C28.7423 18.6459 28.664 18.8349 28.5247 18.9743C28.3853 19.1137 28.1962 19.192 27.9991 19.192Z" fill="#020D19"/>
<path d="M28.0003 30.2372C26.4106 30.2372 24.8567 29.7658 23.5349 28.8826C22.2131 27.9994 21.1829 26.7441 20.5746 25.2754C19.9663 23.8067 19.8072 22.1906 20.1174 20.6315C20.4276 19.0724 21.1931 17.6402 22.3173 16.5162C23.4414 15.3922 24.8736 14.6267 26.4328 14.3167C27.9919 14.0067 29.608 14.1659 31.0766 14.7744C32.5453 15.3828 33.8005 16.4131 34.6836 17.735C35.5666 19.0568 36.0379 20.6108 36.0378 22.2005C36.0352 24.3313 35.1876 26.3741 33.6808 27.8808C32.174 29.3874 30.1311 30.2349 28.0003 30.2372ZM28.0003 15.6496C26.7047 15.6496 25.4381 16.0338 24.3608 16.7536C23.2835 17.4734 22.4439 18.4966 21.948 19.6936C21.4522 20.8906 21.3225 22.2078 21.5753 23.4786C21.828 24.7493 22.4519 25.9166 23.3681 26.8328C24.2843 27.7489 25.4515 28.3728 26.7223 28.6256C27.9931 28.8784 29.3102 28.7486 30.5073 28.2528C31.7043 27.757 32.7274 26.9173 33.4472 25.84C34.1671 24.7627 34.5513 23.4962 34.5513 22.2005C34.5493 20.4637 33.8585 18.7986 32.6304 17.5705C31.4023 16.3424 29.7371 15.6516 28.0003 15.6496Z" fill="#020D19"/>
</svg>
