<svg width="50" height="51" viewBox="0 0 50 51" fill="none" xmlns="http://www.w3.org/2000/svg">
<g clip-path="url(#clip0_162_3499)">
<path d="M48.6027 16.5138C47.5283 15.9235 45.892 16.0422 44.838 17.6991C44.8349 17.7041 44.8318 17.7091 44.8286 17.7142L40.9103 24.127C40.4383 23.8549 39.897 23.7343 39.3464 23.7835C38.6561 23.8453 38.035 24.1692 37.5977 24.6956C37.318 25.0323 36.394 26.1865 35.4158 27.4086C34.4867 28.5691 33.526 29.7693 33.2579 30.0921C32.328 31.2113 31.1419 32.072 29.8861 32.9831C28.1045 34.276 26.156 35.6898 24.9998 37.996C23.8436 35.6898 21.8952 34.276 20.1135 32.9831C18.8578 32.0719 17.6717 31.2112 16.7417 30.0921C16.4737 29.7695 15.5139 28.5703 14.5855 27.4106C13.6065 26.1877 12.6818 25.0324 12.4019 24.6956C11.9645 24.1692 11.3435 23.8453 10.6532 23.7835C10.1022 23.7343 9.56133 23.8551 9.08936 24.127L5.17101 17.7142C5.16798 17.7091 5.16485 17.7041 5.16163 17.6991C4.10773 16.0424 2.4713 15.9232 1.39699 16.5138C0.124336 17.2135 -0.350663 18.7749 0.292305 20.1458C0.29377 20.1489 0.295235 20.152 0.296699 20.1551C0.571211 20.7246 1.23898 22.318 2.01232 24.1631C3.09464 26.7453 4.44152 29.9591 5.58292 32.4697C7.06983 35.7405 7.73672 36.6596 10.3401 39.0259L13.8523 42.2184V42.5166H13.2811C12.7418 42.5166 12.3046 42.9538 12.3046 43.4931V49.3525C12.3046 49.8918 12.7418 50.329 13.2811 50.329H36.7186C37.2579 50.329 37.6952 49.8918 37.6952 49.3525V43.4931C37.6952 42.9538 37.2579 42.5166 36.7186 42.5166H36.1474V42.2184L39.6597 39.0259C42.263 36.6596 42.9299 35.7405 44.4169 32.4697C45.5582 29.9592 46.9051 26.7456 47.9873 24.1635C48.7608 22.3182 49.4287 20.7246 49.7031 20.1551C49.7046 20.152 49.7061 20.1489 49.7075 20.1458C50.3506 18.7749 49.8756 17.2135 48.6027 16.5138ZM15.4858 41.0637L11.6539 37.5806C9.25547 35.4007 8.73389 34.6814 7.36104 31.6614C6.23165 29.1772 4.89103 25.9784 3.81368 23.4081C2.99982 21.4661 2.35646 19.9312 2.05871 19.3124C1.78586 18.7258 2.10548 18.3533 2.338 18.2255C2.72785 18.0112 3.16544 18.2038 3.50968 18.7409L7.86514 25.8691C7.78516 26.3919 7.85088 27.0412 8.16827 27.8434C9.07969 30.1469 10.2096 32.4476 11.2682 34.1558C11.5522 34.6143 12.1541 34.7555 12.6127 34.4715C13.0711 34.1874 13.2125 33.5854 12.9284 33.1269C11.9282 31.5129 10.8552 29.3252 9.98447 27.1248C9.61231 26.1843 9.85947 25.9765 9.95254 25.8982C10.1027 25.7721 10.2896 25.7124 10.4794 25.729C10.6479 25.744 10.7974 25.8205 10.9 25.944C11.1686 26.2672 12.1307 27.469 13.061 28.6314C14.0378 29.8516 14.9603 31.0042 15.2397 31.3404C16.3264 32.6483 17.6686 33.6222 18.9667 34.5641C21.4825 36.3896 23.6565 37.9673 24.0235 41.631V42.5168H15.8056V41.7865C15.8056 41.5112 15.6894 41.2489 15.4858 41.0637ZM14.2578 44.4697H24.0234V48.3759H14.2578V44.4697ZM35.742 48.3759H25.9765V44.4697H35.742V48.3759ZM47.9411 19.3123C47.6435 19.9312 47 21.4663 46.186 23.4085C45.1088 25.9786 43.7681 29.1773 42.6389 31.6613C41.2659 34.6814 40.7444 35.4006 38.3459 37.5805L34.514 41.0636C34.3104 41.2488 34.1944 41.5111 34.1944 41.7863V42.5166H25.9766V41.6303C26.3437 37.9669 28.5177 36.3893 31.0334 34.5639C32.3314 33.6221 33.6737 32.6481 34.7603 31.3403C35.0399 31.0038 35.9631 29.8504 36.9408 28.6291C37.8705 27.4677 38.8317 26.2668 39.1 25.9438C39.2027 25.8203 39.3521 25.7439 39.5206 25.7289C39.71 25.7118 39.8973 25.772 40.0476 25.8982C40.1406 25.9765 40.3877 26.1842 40.0157 27.1247C39.145 29.3252 38.0719 31.513 37.0717 33.1269C36.7876 33.5853 36.929 34.1873 37.3873 34.4715C37.8458 34.7553 38.4477 34.614 38.7319 34.1557C39.7904 32.4476 40.9202 30.1469 41.8318 27.8434C42.1492 27.0411 42.2148 26.3918 42.1348 25.8691L46.4906 18.7406C46.8347 18.2039 47.2722 18.0112 47.662 18.2255C47.8945 18.3531 48.2141 18.7257 47.9411 19.3123Z" fill="#020D19"/>
<path d="M25.0001 18.3667C26.8689 18.3667 28.3894 16.8463 28.3894 14.9775C28.3894 13.1086 26.869 11.5881 25.0001 11.5881C23.1312 11.5881 21.6108 13.1085 21.6108 14.9775C21.6108 16.8464 23.1312 18.3667 25.0001 18.3667ZM25.0001 13.5413C25.792 13.5413 26.4363 14.1855 26.4363 14.9775C26.4363 15.7694 25.792 16.4136 25.0001 16.4136C24.2082 16.4136 23.564 15.7694 23.564 14.9775C23.564 14.1855 24.2082 13.5413 25.0001 13.5413Z" fill="#020D19"/>
<path d="M11.3281 15.9541H11.9962C12.4732 22.3675 17.6098 27.5041 24.0233 27.9812V28.6494C24.0233 29.1887 24.4605 29.6259 24.9999 29.6259C25.5392 29.6259 25.9764 29.1887 25.9764 28.6494V27.9812C32.3899 27.5041 37.5265 22.3675 38.0036 15.9541H38.6717C39.211 15.9541 39.6483 15.5169 39.6483 14.9775C39.6483 14.4382 39.211 14.001 38.6717 14.001H38.0036C37.5265 7.58749 32.3899 2.45087 25.9764 1.97382V1.30566C25.9764 0.766308 25.5391 0.329102 24.9999 0.329102C24.4605 0.329102 24.0233 0.766308 24.0233 1.30566V1.97373C17.6098 2.45087 12.4733 7.58739 11.9962 14.001H11.3281C10.7888 14.001 10.3516 14.4382 10.3516 14.9775C10.3516 15.5169 10.7888 15.9541 11.3281 15.9541ZM13.9558 15.9541H16.8431C17.2893 19.7047 20.2727 22.6881 24.0234 23.1343V26.0216C18.6875 25.5538 14.4236 21.2899 13.9558 15.9541ZM25 8.7159C28.4526 8.7159 31.2615 11.5248 31.2615 14.9774C31.2615 18.4299 28.4526 21.2389 25 21.2389C21.5473 21.2389 18.7384 18.43 18.7384 14.9775C18.7384 11.5249 21.5473 8.7159 25 8.7159ZM25.9765 26.0216V23.1343C29.7271 22.688 32.7105 19.7047 33.1568 15.9541H36.0442C35.5763 21.2899 31.3124 25.5538 25.9765 26.0216ZM36.0442 14.001H33.1568C32.7105 10.2503 29.7271 7.26688 25.9765 6.82059V3.93329C31.3124 4.40116 35.5763 8.66502 36.0442 14.001ZM24.0234 3.93329V6.82059C20.2727 7.26688 17.2893 10.2503 16.8431 14.001H13.9558C14.4236 8.66502 18.6875 4.40116 24.0234 3.93329Z" fill="#020D19"/>
</g>
<defs>
<clipPath id="clip0_162_3499">
<rect width="50" height="50" fill="white" transform="translate(0 0.329102)"/>
</clipPath>
</defs>
</svg>
