<svg width="55" height="56" viewBox="0 0 55 56" fill="none" xmlns="http://www.w3.org/2000/svg">
<path fill-rule="evenodd" clip-rule="evenodd" d="M48.1256 52.692H6.61847C6.21972 52.692 5.88284 52.395 5.83334 51.999L2.20059 23.1666C2.17034 22.9425 2.24322 22.7143 2.39172 22.5424C2.54022 22.3705 2.75747 22.2756 2.98572 22.2756H52.0897C52.318 22.2756 52.5352 22.3746 52.6865 22.5465C52.8377 22.7184 52.9037 22.9494 52.8748 23.1735L48.9121 52.0086C48.8585 52.3978 48.523 52.692 48.1256 52.692ZM7.31559 51.108H47.4367L51.1822 23.8638H3.88359L7.31559 51.108Z" fill="#020D19"/>
<path fill-rule="evenodd" clip-rule="evenodd" d="M52.0898 20.9062H2.98585C2.54722 20.9062 2.19385 20.5528 2.19385 20.1142V18.3721C2.19385 16.8142 3.4616 15.5437 5.02222 15.5437H50.0535C51.6113 15.5437 52.8818 16.8115 52.8818 18.3721V20.1142C52.8818 20.5528 52.5285 20.9062 52.0898 20.9062ZM3.77785 19.3222H51.2978V18.3721C51.2978 17.686 50.7396 17.1277 50.0535 17.1277H5.02222C4.3361 17.1277 3.77785 17.686 3.77785 18.3721V19.3222Z" fill="#020D19"/>
<path fill-rule="evenodd" clip-rule="evenodd" d="M35.6324 13.0592H19.4431C19.0045 13.0592 18.6511 12.7058 18.6511 12.2672V6.54444C18.6511 6.10582 19.0045 5.75244 19.4431 5.75244H35.6365C36.0751 5.75244 36.4285 6.10582 36.4285 6.54444V12.2672C36.4244 12.7031 36.071 13.0592 35.6324 13.0592ZM20.2351 11.4752H34.8445V7.33644H20.2351V11.4752Z" fill="#020D19"/>
<path fill-rule="evenodd" clip-rule="evenodd" d="M48.3375 17.1277H6.73829C6.29966 17.1277 5.94629 16.7743 5.94629 16.3357V14.2993C5.94629 12.7414 7.21404 11.4709 8.77466 11.4709H46.3053C47.8632 11.4709 49.1337 12.7387 49.1337 14.2993V16.3357C49.1295 16.7743 48.7762 17.1277 48.3375 17.1277ZM7.53029 15.5437H47.5455V14.2993C47.5455 13.6132 46.9873 13.0549 46.3012 13.0549H8.77329C8.08716 13.0549 7.52891 13.6132 7.52891 14.2993L7.53029 15.5437Z" fill="#020D19"/>
<path fill-rule="evenodd" clip-rule="evenodd" d="M27.5378 45.4514C27.3261 45.4514 27.1253 45.3689 26.9768 45.2204L20.1761 38.4197C19.1929 37.4365 18.6484 36.1262 18.6484 34.7333C18.6484 33.3404 19.1902 32.03 20.1761 31.0469C21.1592 30.0638 22.4696 29.5193 23.8624 29.5193C25.2484 29.5193 26.5547 30.0569 27.5392 31.0345C28.5223 30.0583 29.8258 29.5193 31.2159 29.5193C32.6088 29.5193 33.9192 30.061 34.9023 31.0469C36.9346 33.0792 36.9346 36.386 34.9023 38.4197L28.1016 45.2204C27.9503 45.3662 27.7482 45.4514 27.5378 45.4514ZM23.8611 31.1033C22.9302 31.1033 22.0034 31.4567 21.2939 32.1662C19.8777 33.5824 19.8777 35.8814 21.2939 37.2977L27.5337 43.5374L33.7734 37.2977C35.1897 35.8814 35.1897 33.5824 33.7734 32.1662C32.3572 30.7499 30.0582 30.7499 28.6419 32.1662L28.0906 32.7175C27.7798 33.0283 27.2793 33.0283 26.9713 32.7175L26.4199 32.1662C25.7201 31.4567 24.7919 31.1033 23.8611 31.1033Z" fill="#020D19"/>
<path fill-rule="evenodd" clip-rule="evenodd" d="M38.2766 13.0591H16.7991C16.3605 13.0591 16.0071 12.7057 16.0071 12.2671V3.90162C16.0071 3.46299 16.3605 3.10962 16.7991 3.10962H38.2752C38.7138 3.10962 39.0672 3.46299 39.0672 3.90162V12.2671C39.0672 12.703 38.7111 13.0591 38.2766 13.0591ZM17.5911 11.4751H37.4846V4.69362H17.5911V11.4751Z" fill="#020D19"/>
</svg>
