<svg width="51" height="51" viewBox="0 0 51 51" fill="none" xmlns="http://www.w3.org/2000/svg">
<circle cx="25.8125" cy="25.8125" r="25" fill="white"/>
<path d="M37.1454 15.3359C35.8126 15.3359 34.7284 16.4202 34.7284 17.7529V18.6972C34.4762 18.6078 34.2051 18.5586 33.9227 18.5586C32.59 18.5586 31.5057 19.6428 31.5057 20.9756V23.5313C31.1771 23.6469 30.8687 23.8354 30.6059 24.097L28.0805 26.5687C28.0784 26.5708 28.0763 26.5728 28.0744 26.5748C27.0968 27.5524 26.333 28.6956 25.804 29.9727C25.8016 29.9786 25.7993 29.9845 25.7969 29.9904C25.2646 28.7311 24.4859 27.5639 23.4968 26.5748L21.0224 24.1005C20.7629 23.8411 20.455 23.6482 20.1191 23.5298V20.9756C20.1191 19.6428 19.0349 18.5586 17.7021 18.5586C17.4197 18.5586 17.1486 18.6078 16.8965 18.6972V17.7529C16.8965 16.4202 15.8122 15.3359 14.4795 15.3359C13.1468 15.3359 12.0625 16.4202 12.0625 17.7529V26.5282C12.0625 27.2581 12.2611 27.9748 12.6366 28.6008L15.3532 33.1286C16.383 34.8449 16.9502 36.8428 16.9502 38.7539C16.9502 39.1988 17.311 39.5596 17.7559 39.5596H25.8125H33.8691C34.314 39.5596 34.6748 39.1988 34.6748 38.7539C34.6748 36.8428 35.2419 34.845 36.2718 33.1286L38.9886 28.6008C39.3641 27.9749 39.5625 27.2581 39.5625 26.5282V17.7529C39.5622 16.4202 38.478 15.3359 37.1454 15.3359ZM16.8963 20.9756C16.8963 20.5313 17.2578 20.1699 17.702 20.1699C18.1463 20.1699 18.5077 20.5313 18.5077 20.9756V23.5298C18.1718 23.6483 17.8639 23.8413 17.6044 24.1005C17.4047 24.3002 17.2475 24.5262 17.1324 24.7676C16.9802 24.6154 16.8963 24.4132 16.8963 24.1978C16.8963 23.8564 16.8963 21.3172 16.8963 20.9756ZM25.0067 37.9481H18.5328C18.3958 36.0022 17.7695 34.0238 16.7349 32.2996L14.0182 27.7718C13.7929 27.3962 13.6738 26.9662 13.6738 26.5282V17.7529C13.6738 17.3087 14.0352 16.9473 14.4795 16.9473C14.9237 16.9473 15.2851 17.3087 15.2851 17.7529C15.2851 18.0297 15.2851 23.9379 15.2851 24.198V24.2C15.2851 24.2006 15.2853 24.2013 15.2853 24.2019C15.2863 24.8461 15.5376 25.4514 15.9931 25.9071L20.3552 30.2692C20.6697 30.5837 21.1799 30.5837 21.4945 30.2692C21.8092 29.9545 21.8092 29.4444 21.4945 29.1298L18.744 26.3792C18.4299 26.0651 18.4299 25.5541 18.744 25.24C19.059 24.925 19.568 24.925 19.8831 25.24L22.3575 27.7145C24.0412 29.3982 25.007 31.6823 25.007 33.981V37.9481H25.0067ZM33.1171 20.9756C33.1171 20.5313 33.4785 20.1699 33.9227 20.1699C34.367 20.1699 34.7284 20.5313 34.7284 20.9756C34.7284 21.3165 34.7284 23.8564 34.7284 24.198C34.7284 24.4132 34.6447 24.6155 34.4925 24.7677L34.4924 24.7679C34.3773 24.5265 34.22 24.3004 34.0203 24.1008C33.7568 23.8373 33.4471 23.6475 33.1171 23.5314V20.9756ZM37.951 26.5282C37.951 26.9661 37.8319 27.3961 37.6067 27.7718L34.89 32.2996C33.8554 34.024 33.2291 36.0023 33.0919 37.9481H26.6182V33.9808C26.6182 31.6148 27.5389 29.3907 29.211 27.7171L31.7357 25.2459C31.7377 25.2439 31.7399 25.2418 31.7418 25.2398C32.0559 24.9256 32.5669 24.9256 32.8809 25.2398C33.196 25.5548 33.196 26.0639 32.8809 26.3789L30.1303 29.1295C29.8157 29.4442 29.8157 29.9542 30.1303 30.2689C30.4449 30.5836 30.955 30.5836 31.2697 30.2689L35.6317 25.9069C36.0872 25.4514 36.3383 24.8462 36.3396 24.2023C36.3396 24.2017 36.3397 24.2009 36.3397 24.2001V24.1978C36.3397 23.9412 36.3397 18.0314 36.3397 17.7528C36.3397 17.3086 36.7011 16.9471 37.1454 16.9471C37.5896 16.9471 37.951 17.3086 37.951 17.7528V26.5282Z" fill="#FF6D00"/>
<path d="M28.6018 12.0625C27.4932 12.0625 26.5306 12.5701 25.813 13.5317C25.0952 12.5701 24.1328 12.0625 23.0242 12.0625C20.9382 12.0625 19.4297 13.7932 19.4297 15.8956C19.4297 18.5838 21.9637 20.2661 25.2853 23.145C25.4367 23.2762 25.6249 23.3419 25.813 23.3419C26.0011 23.3419 26.1893 23.2762 26.3407 23.145C29.6649 20.2641 32.1963 18.5829 32.1963 15.8956C32.1963 13.7918 30.6865 12.0625 28.6018 12.0625ZM25.813 21.4735C22.8824 18.9708 21.041 17.6389 21.041 15.8954C21.041 14.6289 21.8936 13.6737 23.0242 13.6737C24.4945 13.6737 25.016 15.4283 25.0376 15.5037C25.1354 15.8507 25.4516 16.0926 25.8125 16.0926C26.1745 16.0926 26.4917 15.8527 26.5884 15.5038C26.6099 15.4291 27.1311 13.6738 28.6018 13.6738C29.7324 13.6738 30.585 14.6289 30.585 15.8956C30.585 17.6396 28.7419 18.9721 25.813 21.4735Z" fill="#020D19"/>
</svg>
