<svg width="147" height="51" viewBox="0 0 147 51" fill="none" xmlns="http://www.w3.org/2000/svg">
<circle cx="25.8136" cy="25.8145" r="25" fill="#FF6D00"/>
<path d="M37.1465 15.3408C35.8137 15.3408 34.7295 16.4251 34.7295 17.7578V18.7021C34.4773 18.6126 34.2062 18.5635 33.9238 18.5635C32.5911 18.5635 31.5068 19.6477 31.5068 20.9805V23.5362C31.1782 23.6518 30.8698 23.8403 30.607 24.1019L28.0816 26.5736C28.0795 26.5756 28.0774 26.5777 28.0755 26.5797C27.0979 27.5572 26.3341 28.7004 25.8051 29.9775C25.8027 29.9835 25.8004 29.9893 25.798 29.9953C25.2657 28.736 24.487 27.5688 23.4979 26.5797L21.0234 24.1054C20.764 23.846 20.4561 23.653 20.1202 23.5346V20.9805C20.1202 19.6477 19.036 18.5635 17.7032 18.5635C17.4208 18.5635 17.1497 18.6126 16.8976 18.7021V17.7578C16.8976 16.4251 15.8133 15.3408 14.4806 15.3408C13.1479 15.3408 12.0636 16.4251 12.0636 17.7578V26.5331C12.0636 27.263 12.2622 27.9796 12.6377 28.6057L15.3543 33.1335C16.3841 34.8497 16.9513 36.8476 16.9513 38.7588C16.9513 39.2037 17.3121 39.5644 17.757 39.5644H25.8136H33.8702C34.3151 39.5644 34.6759 39.2037 34.6759 38.7588C34.6759 36.8476 35.243 34.8499 36.2729 33.1335L38.9896 28.6057C39.3652 27.9798 39.5636 27.263 39.5636 26.5331V17.7578C39.5633 16.4251 38.4791 15.3408 37.1465 15.3408ZM16.8974 20.9805C16.8974 20.5362 17.2589 20.1748 17.7031 20.1748C18.1474 20.1748 18.5088 20.5362 18.5088 20.9805V23.5346C18.1729 23.6532 17.865 23.8461 17.6055 24.1054C17.4058 24.3051 17.2486 24.5311 17.1335 24.7725C16.9813 24.6203 16.8974 24.4181 16.8974 24.2027C16.8974 23.8613 16.8974 21.3221 16.8974 20.9805ZM25.0078 37.953H18.5339C18.3969 36.007 17.7706 34.0287 16.736 32.3045L14.0193 27.7766C13.794 27.4011 13.6749 26.9711 13.6749 26.5331V17.7578C13.6749 17.3136 14.0363 16.9521 14.4806 16.9521C14.9248 16.9521 15.2862 17.3136 15.2862 17.7578C15.2862 18.0346 15.2862 23.9428 15.2862 24.2029V24.2049C15.2862 24.2055 15.2864 24.2062 15.2864 24.2068C15.2874 24.851 15.5387 25.4563 15.9942 25.912L20.3563 30.274C20.6708 30.5886 21.181 30.5886 21.4956 30.274C21.8103 29.9594 21.8103 29.4493 21.4956 29.1347L18.7451 26.3841C18.431 26.07 18.431 25.559 18.7451 25.2449C19.0601 24.9299 19.5691 24.9299 19.8842 25.2449L22.3586 27.7193C24.0423 29.4031 25.0081 31.6872 25.0081 33.9859V37.953H25.0078ZM33.1182 20.9805C33.1182 20.5362 33.4796 20.1748 33.9238 20.1748C34.3681 20.1748 34.7295 20.5362 34.7295 20.9805C34.7295 21.3214 34.7295 23.8613 34.7295 24.2029C34.7295 24.4181 34.6458 24.6204 34.4936 24.7726L34.4935 24.7727C34.3784 24.5314 34.2211 24.3052 34.0214 24.1057C33.7579 23.8422 33.4482 23.6524 33.1182 23.5363V20.9805ZM37.9521 26.5331C37.9521 26.971 37.833 27.401 37.6077 27.7766L34.8911 32.3045C33.8565 34.0288 33.2302 36.0072 33.093 37.953H26.6193V33.9856C26.6193 31.6197 27.54 29.3956 29.2121 27.722L31.7368 25.2508C31.7388 25.2487 31.741 25.2467 31.7429 25.2447C32.057 24.9305 32.568 24.9305 32.882 25.2447C33.1971 25.5597 33.1971 26.0688 32.882 26.3838L30.1314 29.1344C29.8168 29.4491 29.8168 29.9591 30.1314 30.2738C30.446 30.5885 30.9561 30.5885 31.2708 30.2738L35.6328 25.9117C36.0883 25.4563 36.3394 24.8511 36.3407 24.2072C36.3407 24.2065 36.3408 24.2058 36.3408 24.205V24.2027C36.3408 23.9461 36.3408 18.0363 36.3408 17.7577C36.3408 17.3134 36.7022 16.952 37.1465 16.952C37.5907 16.952 37.9521 17.3134 37.9521 17.7577V26.5331Z" fill="white"/>
<path d="M28.6021 12.0645C27.4934 12.0645 26.5309 12.5721 25.8132 13.5336C25.0955 12.5721 24.1331 12.0645 23.0244 12.0645C20.9385 12.0645 19.4299 13.7952 19.4299 15.8975C19.4299 18.5857 21.9639 20.2681 25.2855 23.147C25.437 23.2782 25.6251 23.3439 25.8132 23.3439C26.0014 23.3439 26.1895 23.2782 26.3409 23.147C29.6651 20.266 32.1965 18.5848 32.1965 15.8975C32.1965 13.7938 30.6867 12.0645 28.6021 12.0645ZM25.8132 21.4754C22.8826 18.9728 21.0413 17.6408 21.0413 15.8974C21.0413 14.6308 21.8938 13.6757 23.0244 13.6757C24.4947 13.6757 25.0162 15.4303 25.0378 15.5056C25.1356 15.8527 25.4518 16.0945 25.8127 16.0945C26.1748 16.0945 26.492 15.8547 26.5887 15.5057C26.6101 15.431 27.1314 13.6758 28.6021 13.6758C29.7327 13.6758 30.5852 14.6308 30.5852 15.8975C30.5852 17.6416 28.7422 18.9741 25.8132 21.4754Z" fill="#020D19"/>
<path d="M62.6886 34.3345V16.6345H66.2636V31.0345H75.2386V34.3345H62.6886ZM83.3015 34.5095C81.9182 34.5095 80.7432 34.2345 79.7765 33.6845C78.8098 33.1345 78.0682 32.3595 77.5515 31.3595C77.0348 30.3428 76.7765 29.1595 76.7765 27.8095C76.7765 26.4428 77.0432 25.2511 77.5765 24.2345C78.1098 23.2011 78.8598 22.3928 79.8265 21.8095C80.8098 21.2261 81.9682 20.9345 83.3015 20.9345C84.3015 20.9345 85.1765 21.1011 85.9265 21.4345C86.6932 21.7678 87.3348 22.2345 87.8515 22.8345C88.3848 23.4345 88.7765 24.1345 89.0265 24.9345C89.2932 25.7178 89.4182 26.5678 89.4015 27.4845C89.4015 27.7178 89.3932 27.9428 89.3765 28.1595C89.3598 28.3761 89.3265 28.5928 89.2765 28.8095H80.2515C80.3015 29.3095 80.4432 29.7678 80.6765 30.1845C80.9098 30.6011 81.2348 30.9345 81.6515 31.1845C82.0848 31.4178 82.6182 31.5345 83.2515 31.5345C83.6682 31.5345 84.0515 31.4928 84.4015 31.4095C84.7515 31.3095 85.0515 31.1595 85.3015 30.9595C85.5515 30.7595 85.7265 30.5261 85.8265 30.2595H89.2765C89.0598 31.2428 88.6515 32.0511 88.0515 32.6845C87.4682 33.3178 86.7598 33.7845 85.9265 34.0845C85.0932 34.3678 84.2182 34.5095 83.3015 34.5095ZM80.3265 26.3595H86.0515C86.0348 25.9095 85.9182 25.4928 85.7015 25.1095C85.5015 24.7095 85.1932 24.3928 84.7765 24.1595C84.3765 23.9095 83.8598 23.7845 83.2265 23.7845C82.5932 23.7845 82.0598 23.9095 81.6265 24.1595C81.2098 24.4095 80.8932 24.7345 80.6765 25.1345C80.4765 25.5178 80.3598 25.9261 80.3265 26.3595ZM91.6564 34.3345V21.1595H94.9314L95.1064 22.6845C95.473 22.2345 95.8897 21.8845 96.3564 21.6345C96.8397 21.3678 97.323 21.1845 97.8064 21.0845C98.3064 20.9845 98.7564 20.9345 99.1564 20.9345C100.423 20.9345 101.406 21.2095 102.106 21.7595C102.823 22.3095 103.331 23.0511 103.631 23.9845C103.948 24.9011 104.106 25.9261 104.106 27.0595V34.3345H100.606V27.5095C100.606 27.1095 100.573 26.7095 100.506 26.3095C100.44 25.9095 100.315 25.5428 100.131 25.2095C99.9647 24.8761 99.723 24.6095 99.4064 24.4095C99.0897 24.2095 98.673 24.1095 98.1564 24.1095C97.4897 24.1095 96.9314 24.2761 96.4814 24.6095C96.0314 24.9428 95.698 25.3928 95.4814 25.9595C95.2647 26.5261 95.1564 27.1511 95.1564 27.8345V34.3345H91.6564ZM106.793 34.3345V21.1595H110.293V34.3345H106.793ZM108.543 19.8345C107.893 19.8345 107.368 19.6428 106.968 19.2595C106.568 18.8595 106.368 18.3511 106.368 17.7345C106.368 17.0845 106.576 16.5595 106.993 16.1595C107.41 15.7595 107.935 15.5595 108.568 15.5595C109.151 15.5595 109.651 15.7595 110.068 16.1595C110.501 16.5428 110.718 17.0595 110.718 17.7095C110.718 18.3428 110.51 18.8595 110.093 19.2595C109.693 19.6428 109.176 19.8345 108.543 19.8345ZM118.443 34.5095C116.959 34.5095 115.859 34.0928 115.143 33.2595C114.443 32.4261 114.093 31.2845 114.093 29.8345V24.2845H112.118V21.1595H114.093V17.6095H117.593V21.1595H121.593V24.2845H117.593V29.1095C117.593 29.5428 117.643 29.9178 117.743 30.2345C117.859 30.5511 118.043 30.8011 118.293 30.9845C118.559 31.1511 118.918 31.2345 119.368 31.2345C119.768 31.2345 120.101 31.1761 120.368 31.0595C120.651 30.9261 120.884 30.7845 121.068 30.6345L122.168 33.3345C121.818 33.6178 121.426 33.8511 120.993 34.0345C120.576 34.2011 120.151 34.3178 119.718 34.3845C119.284 34.4678 118.859 34.5095 118.443 34.5095ZM129.439 40.4095C128.423 40.4095 127.431 40.2761 126.464 40.0095C125.498 39.7428 124.589 39.2928 123.739 38.6595L124.914 35.8595C125.448 36.2595 126.056 36.5761 126.739 36.8095C127.423 37.0595 128.181 37.1845 129.014 37.1845C130.298 37.1845 131.248 36.8845 131.864 36.2845C132.498 35.6845 132.814 34.8178 132.814 33.6845V32.9845C132.531 33.3678 132.173 33.6761 131.739 33.9095C131.323 34.1261 130.873 34.2845 130.389 34.3845C129.906 34.4845 129.423 34.5345 128.939 34.5345C127.673 34.5345 126.656 34.2678 125.889 33.7345C125.123 33.2011 124.564 32.4761 124.214 31.5595C123.881 30.6261 123.714 29.5678 123.714 28.3845V21.1595H127.214V27.6595C127.214 28.0928 127.239 28.5261 127.289 28.9595C127.339 29.3928 127.456 29.7928 127.639 30.1595C127.823 30.5261 128.098 30.8261 128.464 31.0595C128.831 31.2761 129.323 31.3845 129.939 31.3845C130.739 31.3845 131.339 31.1928 131.739 30.8095C132.139 30.4095 132.406 29.9095 132.539 29.3095C132.689 28.7095 132.764 28.0845 132.764 27.4345V21.1595H136.264V32.4345C136.264 33.6345 136.148 34.7261 135.914 35.7095C135.698 36.6928 135.323 37.5345 134.789 38.2345C134.273 38.9345 133.573 39.4678 132.689 39.8345C131.823 40.2178 130.739 40.4095 129.439 40.4095Z" fill="white"/>
<path d="M141.17 34.6595C140.57 34.6595 140.061 34.4761 139.645 34.1095C139.228 33.7428 139.02 33.2178 139.02 32.5345C139.02 31.8345 139.228 31.2845 139.645 30.8845C140.078 30.4845 140.586 30.2845 141.17 30.2845C141.753 30.2845 142.253 30.4845 142.67 30.8845C143.086 31.2678 143.295 31.8095 143.295 32.5095C143.295 33.2095 143.086 33.7428 142.67 34.1095C142.253 34.4761 141.753 34.6595 141.17 34.6595Z" fill="#FF6D00"/>
</svg>
