<svg width="1925" height="1056" viewBox="0 0 1925 1056" fill="none" xmlns="http://www.w3.org/2000/svg">
<path d="M450.546 262.755H429.838V258.692H446.483V240.016H465.159V220.095H482.59V201.418H501.266V183.529H505.329V205.481H486.653V224.158H469.222V244.079H450.546V262.755Z" fill="#020D19" fill-opacity="0.05"/>
<path d="M377.036 898.34L379.191 896.186L370.931 887.926L368.777 890.08L377.036 898.34Z" fill="#FF6D00"/>
<path d="M379.184 890.084L377.029 887.93L368.77 896.189L370.924 898.344L379.184 890.084Z" fill="#FF6D00"/>
<path d="M355.325 898.34L357.479 896.186L349.22 887.926L347.065 890.08L355.325 898.34Z" fill="#FF6D00"/>
<path d="M357.473 890.084L355.318 887.93L347.058 896.189L349.213 898.344L357.473 890.084Z" fill="#FF6D00"/>
<path d="M333.608 898.35L335.763 896.195L327.503 887.936L325.349 890.09L333.608 898.35Z" fill="#FF6D00"/>
<path d="M335.753 890.078L333.599 887.924L325.339 896.183L327.494 898.338L335.753 890.078Z" fill="#FF6D00"/>
<path d="M311.897 898.35L314.052 896.195L305.792 887.936L303.638 890.09L311.897 898.35Z" fill="#FF6D00"/>
<path d="M314.042 890.08L311.888 887.926L303.628 896.185L305.783 898.34L314.042 890.08Z" fill="#FF6D00"/>
<path d="M290.191 898.342L292.345 896.188L284.085 887.928L281.931 890.082L290.191 898.342Z" fill="#FF6D00"/>
<path d="M292.339 890.084L290.185 887.93L281.925 896.189L284.08 898.344L292.339 890.084Z" fill="#FF6D00"/>
<path d="M377.036 876.502L379.191 874.348L370.931 866.088L368.777 868.243L377.036 876.502Z" fill="#FF6D00"/>
<path d="M379.193 868.252L377.039 866.098L368.779 874.357L370.934 876.512L379.193 868.252Z" fill="#FF6D00"/>
<path d="M355.325 876.504L357.479 874.35L349.22 866.09L347.065 868.245L355.325 876.504Z" fill="#FF6D00"/>
<path d="M357.482 868.252L355.327 866.098L347.068 874.357L349.222 876.512L357.482 868.252Z" fill="#FF6D00"/>
<path d="M333.608 876.512L335.763 874.357L327.503 866.098L325.349 868.252L333.608 876.512Z" fill="#FF6D00"/>
<path d="M335.761 868.246L333.607 866.092L325.347 874.351L327.502 876.506L335.761 868.246Z" fill="#FF6D00"/>
<path d="M311.897 876.512L314.052 874.357L305.792 866.098L303.638 868.252L311.897 876.512Z" fill="#FF6D00"/>
<path d="M314.05 868.246L311.896 866.092L303.636 874.351L305.791 876.506L314.05 868.246Z" fill="#FF6D00"/>
<path d="M290.19 876.502L292.345 874.348L284.085 866.088L281.931 868.243L290.19 876.502Z" fill="#FF6D00"/>
<path d="M292.347 868.25L290.193 866.096L281.933 874.355L284.088 876.51L292.347 868.25Z" fill="#FF6D00"/>
<path d="M377.036 856.188L379.191 854.033L370.931 845.774L368.777 847.928L377.036 856.188Z" fill="#FF6D00"/>
<path d="M379.183 847.932L377.029 845.777L368.769 854.037L370.924 856.192L379.183 847.932Z" fill="#FF6D00"/>
<path d="M355.325 856.188L357.479 854.033L349.22 845.774L347.065 847.928L355.325 856.188Z" fill="#FF6D00"/>
<path d="M357.472 847.932L355.318 845.777L347.058 854.037L349.213 856.192L357.472 847.932Z" fill="#FF6D00"/>
<path d="M333.609 856.198L335.763 854.043L327.504 845.783L325.349 847.938L333.609 856.198Z" fill="#FF6D00"/>
<path d="M335.752 847.928L333.597 845.773L325.338 854.033L327.492 856.188L335.752 847.928Z" fill="#FF6D00"/>
<path d="M311.898 856.198L314.052 854.043L305.793 845.783L303.638 847.938L311.898 856.198Z" fill="#FF6D00"/>
<path d="M314.041 847.928L311.887 845.773L303.627 854.033L305.782 856.188L314.041 847.928Z" fill="#FF6D00"/>
<path d="M290.19 856.188L292.345 854.033L284.085 845.774L281.931 847.928L290.19 856.188Z" fill="#FF6D00"/>
<path d="M292.339 847.932L290.184 845.777L281.925 854.037L284.079 856.192L292.339 847.932Z" fill="#FF6D00"/>
<path d="M1625.92 224.954H1568.01C1560.56 224.954 1554.49 218.889 1554.49 211.433C1554.49 203.976 1560.56 197.91 1568.01 197.91H1625.92C1633.38 197.91 1639.44 203.976 1639.44 211.433C1639.44 218.889 1633.38 224.954 1625.92 224.954ZM1568.01 200.409C1561.93 200.409 1556.99 205.354 1556.99 211.432C1556.99 217.51 1561.93 222.453 1568.01 222.453H1625.92C1632 222.453 1636.94 217.51 1636.94 211.432C1636.94 205.354 1632 200.409 1625.92 200.409H1568.01Z" fill="#020D19" fill-opacity="0.05"/>
<path d="M1569.19 206.357C1569.44 206.357 1570.73 206.341 1570.94 206.357C1573.72 206.445 1576.07 208.027 1576.07 211.076C1576.07 214.967 1573.82 216.402 1570.45 216.433C1569.86 216.433 1569.13 216.447 1568.48 216.388C1568.02 216.359 1567.7 215.974 1567.7 215.454L1567.73 211.888L1567.68 207.376C1567.68 206.535 1568.42 206.357 1569.19 206.357ZM1569.35 207.865V214.597C1569.35 214.953 1569.59 214.937 1570.34 214.937C1572.74 214.937 1574.44 214.005 1574.44 211.238C1574.44 208.857 1572.65 207.836 1570.67 207.836C1570.46 207.836 1569.69 207.836 1569.35 207.865Z" fill="#020D19" fill-opacity="0.05"/>
<path d="M1587.76 211.3C1587.76 214.23 1585.69 216.581 1582.85 216.581C1580.4 216.581 1578.01 214.702 1578.01 211.653C1578.01 208.325 1580.48 206.255 1582.89 206.284C1585.49 206.284 1587.76 208.339 1587.76 211.3ZM1582.76 207.792C1581.08 207.792 1579.65 209.345 1579.65 211.507C1579.65 213.638 1581.13 215.028 1582.93 215.028C1584.73 215.028 1586.13 213.282 1586.12 211.329C1586.1 209.183 1584.5 207.792 1582.76 207.792Z" fill="#020D19" fill-opacity="0.05"/>
<path d="M1591.04 216.493C1590.54 216.493 1590.2 216.286 1590.18 215.753C1590.18 215.501 1590.18 214.851 1590.2 212.054C1590.21 210.693 1590.2 210.115 1590.2 208.74C1590.2 208.326 1590.18 207.705 1590.2 207.113C1590.2 206.64 1590.7 206.373 1591.19 206.373C1591.68 206.373 1591.94 206.699 1592.24 207.113L1595.69 211.98L1596.87 213.668C1596.86 212.898 1596.84 211.715 1596.84 210.664L1596.81 207.408C1596.8 206.758 1596.97 206.373 1597.66 206.373C1598.2 206.373 1598.44 206.713 1598.44 207.32C1598.44 208.947 1598.42 210.664 1598.42 212.275C1598.44 213.076 1598.45 213.859 1598.45 215.693C1598.45 216.183 1598.01 216.478 1597.48 216.478C1597.02 216.478 1596.81 216.226 1596.47 215.753C1595.37 214.155 1593.28 211.165 1591.77 209.021C1591.77 210.619 1591.81 214.052 1591.82 215.576C1591.82 216.212 1591.54 216.493 1591.04 216.493Z" fill="#020D19" fill-opacity="0.05"/>
<path d="M1600.83 214.88C1601.53 213.298 1602.17 211.788 1602.3 211.478C1602.56 210.796 1603.1 209.525 1604.12 206.935C1604.26 206.566 1604.65 206.359 1605.03 206.359C1605.61 206.359 1605.88 206.566 1606.03 206.964C1606.48 208.044 1607.31 210.249 1607.98 211.905C1608.04 212.038 1608.13 212.218 1608.19 212.364C1608.73 213.741 1609.06 214.524 1609.4 215.294C1609.47 215.456 1609.53 215.62 1609.53 215.827C1609.53 216.138 1609.15 216.507 1608.63 216.507C1608.19 216.507 1607.99 216.345 1607.82 215.931C1607.36 214.761 1607.08 214.036 1607.05 213.904C1606.53 213.888 1605.55 213.888 1604.49 213.888H1603.04C1602.9 214.201 1602.55 215.191 1602.3 215.812C1602.14 216.212 1601.97 216.494 1601.53 216.494C1601.08 216.494 1600.58 216.287 1600.58 215.724C1600.58 215.456 1600.67 215.22 1600.83 214.88ZM1603.5 212.587C1604.21 212.587 1605.35 212.587 1606.56 212.556C1606.28 211.773 1605.36 209.212 1605.07 208.355C1604.69 209.45 1604.01 211.21 1603.5 212.587Z" fill="#020D19" fill-opacity="0.05"/>
<path d="M1617.08 206.371C1617.56 206.371 1617.82 206.594 1617.82 207.053C1617.82 207.571 1617.61 207.852 1617.03 207.852H1614.58V208.59C1614.58 210.057 1614.59 211.447 1614.64 215.619C1614.64 216.211 1614.33 216.492 1613.75 216.492C1613.26 216.492 1612.96 216.285 1612.98 215.678L1613.01 210.233C1613.01 209.376 1612.99 208.723 1612.98 207.852C1612.4 207.866 1611.65 207.866 1610.4 207.866C1609.92 207.866 1609.71 207.571 1609.71 207.112C1609.71 206.727 1609.92 206.401 1610.43 206.387C1610.82 206.387 1611.34 206.401 1613.88 206.401C1614.4 206.4 1616.42 206.371 1617.08 206.371Z" fill="#020D19" fill-opacity="0.05"/>
<path d="M1621 206.388C1621.16 206.388 1621.43 206.388 1621.65 206.402C1623.5 206.402 1624.58 206.373 1625.3 206.373C1625.86 206.373 1626.1 206.654 1626.1 207.039C1626.12 207.336 1626.03 207.689 1625.64 207.777C1624.99 207.808 1623.44 207.793 1622.22 207.793H1621.57V209.213L1621.56 210.604V210.797H1622.15C1622.59 210.797 1623.98 210.768 1624.55 210.752C1625.11 210.752 1625.46 210.842 1625.45 211.463C1625.45 211.861 1625.27 212.158 1624.68 212.158C1624.03 212.158 1622.12 212.174 1621.53 212.174C1621.51 212.469 1621.51 212.809 1621.51 213.121C1621.51 213.726 1621.5 214.392 1621.5 215C1622.21 215.014 1623.36 215 1624.87 214.984C1625.17 214.968 1625.36 214.955 1625.6 214.955C1626.06 214.955 1626.25 215.236 1626.25 215.68C1626.25 216.078 1626.1 216.45 1625.42 216.463C1624.43 216.494 1623.21 216.463 1621.44 216.463C1620.23 216.463 1619.92 216.346 1619.87 215.531V214.984C1619.87 214.91 1619.93 213.089 1619.93 210.738C1619.93 209.539 1619.95 208.355 1619.95 207.142C1619.97 206.579 1620.39 206.388 1621 206.388Z" fill="#020D19" fill-opacity="0.05"/>
<path d="M1639.44 242.123C1639.44 239.533 1637.33 237.426 1634.74 237.426C1633.43 237.426 1632.24 237.971 1631.39 238.844C1630.41 237.594 1628.91 236.776 1627.2 236.776C1625.55 236.776 1624.09 237.548 1623.1 238.729C1622.12 237.547 1620.66 236.776 1619.01 236.776C1617.96 236.776 1616.98 237.09 1616.16 237.616V226.262C1616.16 221.893 1613.19 218.119 1608.95 217.088C1608.94 217.086 1608.63 217.014 1608.31 217.014C1606.75 217.014 1605.47 218.287 1605.46 219.858V248.637L1604.3 245.838C1602.56 241.619 1598.18 239.162 1593.62 239.871C1593.57 239.881 1593.27 239.945 1593.04 240.043C1591.55 240.66 1590.84 242.373 1591.45 243.869L1597.59 258.701L1602.15 269.7C1603.09 271.725 1604.36 273.565 1605.93 275.165C1609.64 278.954 1614.6 281.04 1619.89 281.04C1630.67 281.04 1639.44 272.27 1639.44 261.49V242.129C1639.44 242.127 1639.44 242.125 1639.44 242.123ZM1619.89 278.54C1615.27 278.54 1610.95 276.72 1607.71 273.417C1606.34 272.021 1605.24 270.417 1604.44 268.696L1599.9 257.744L1593.76 242.918C1593.67 242.697 1593.78 242.443 1593.99 242.354C1594.03 242.34 1594.07 242.331 1594.07 242.331C1597.44 241.819 1600.69 243.651 1601.99 246.796L1605.56 255.403C1605.82 256.04 1606.55 256.342 1607.19 256.079C1607.67 255.88 1607.96 255.417 1607.96 254.927L1607.96 254.925V219.865C1607.96 219.672 1608.12 219.5 1608.36 219.519C1611.48 220.277 1613.66 223.05 1613.66 226.263V248.96C1613.66 249.649 1614.22 250.21 1614.91 250.21C1615.6 250.21 1616.16 249.649 1616.16 248.96V242.126V242.124C1616.16 240.554 1617.43 239.276 1619.01 239.276C1620.58 239.276 1621.85 240.553 1621.85 242.124V248.96C1621.85 249.649 1622.41 250.21 1623.1 250.21C1623.79 250.21 1624.35 249.649 1624.35 248.96V242.124C1624.35 240.554 1625.63 239.276 1627.2 239.276C1628.77 239.276 1630.05 240.553 1630.05 242.124V248.96C1630.05 249.649 1630.61 250.21 1631.3 250.21C1631.99 250.21 1632.55 249.649 1632.55 248.96V242.124C1632.55 240.913 1633.53 239.927 1634.74 239.927C1635.96 239.927 1636.94 240.911 1636.94 242.122V242.124V261.491C1636.94 270.892 1629.29 278.54 1619.89 278.54Z" fill="#020D19" fill-opacity="0.05"/>
<path d="M68.0477 157.507C59.9329 157.507 53.3318 150.906 53.3318 142.792C53.3318 134.679 59.9318 128.078 68.0477 128.078C76.1603 128.078 82.7603 134.679 82.7603 142.792C82.7603 150.906 76.1613 157.507 68.0477 157.507ZM68.0477 130.758C61.4111 130.758 56.0117 136.157 56.0117 142.792C56.0117 149.427 61.4101 154.827 68.0477 154.827C74.682 154.827 80.0804 149.427 80.0804 142.792C80.0804 136.157 74.6831 130.758 68.0477 130.758Z" fill="#020D19" fill-opacity="0.05"/>
<path d="M68.0477 152.371C67.307 152.371 66.7077 151.772 66.7077 151.031C66.7077 150.292 67.307 149.691 68.0477 149.691C71.8521 149.691 74.9468 146.596 74.9468 142.792C74.9468 142.051 75.5471 141.452 76.2868 141.452C77.0275 141.452 77.6267 142.051 77.6267 142.792C77.6267 148.075 73.3292 152.371 68.0477 152.371ZM59.8075 144.132C59.0679 144.132 58.4676 143.531 58.4676 142.792C58.4676 137.509 62.7662 133.213 68.0488 133.213C68.7874 133.213 69.3887 133.812 69.3887 134.553C69.3887 135.291 68.7874 135.893 68.0488 135.893C64.2433 135.893 61.1475 138.988 61.1475 142.792C61.1475 143.532 60.5472 144.132 59.8075 144.132Z" fill="#020D19" fill-opacity="0.05"/>
<path d="M110.378 114.067L63.688 90.5494C61.2976 89.3327 58.4719 89.3285 56.06 90.5451L15.9708 110.912V109.994C15.9708 109.255 15.3694 108.654 14.6308 108.654H2.06639C1.32567 108.654 0.72644 109.255 0.72644 109.994V141.902C0.72644 142.64 1.32567 143.242 2.06639 143.242H14.6308C15.3694 143.242 15.9708 142.64 15.9708 141.902V138.563L27.4547 138.571L47.3149 158.431C48.1596 159.269 49.267 159.688 50.3743 159.688C51.4859 159.688 52.5975 159.264 53.4412 158.421C53.707 158.157 53.93 157.836 54.0447 157.665C58.0624 151.062 57.0505 142.631 51.5802 137.157L41.1393 126.716L68.8667 112.632L72.8897 114.675V124.421C72.8897 131.224 77.5035 137.096 84.0992 138.702C84.1871 138.724 84.5945 138.807 84.9815 138.807C87.1511 138.807 88.9241 137.042 88.9306 134.866V125.56L89.846 126.018C91.7509 126.974 93.8155 127.438 95.8672 127.438C99.1228 127.438 102.341 126.256 104.856 124.017C107.393 123.325 109.734 121.902 111.52 119.794C111.552 119.76 111.614 119.689 111.642 119.653C111.784 119.469 111.914 119.266 112.028 119.042C112.969 117.158 112.263 115.02 110.378 114.067ZM13.2898 140.561H3.40527V111.334H13.2898V140.561ZM86.2507 134.862C86.2485 135.559 85.6793 136.127 84.9815 136.127C84.8732 136.127 84.7456 136.1 84.7456 136.1C79.3408 134.787 75.5686 129.985 75.5686 124.421V113.853C75.5686 113.348 75.2856 112.888 74.8354 112.66L69.4723 109.934C69.0907 109.739 68.6405 109.739 68.2589 109.934L38.2772 125.163C37.8945 125.358 37.6287 125.724 37.5601 126.147C37.4925 126.572 37.6319 127.001 37.9363 127.305L49.684 139.052C54.2762 143.648 55.1274 150.727 51.7818 156.225C51.7753 156.236 51.6671 156.405 51.547 156.524C50.8995 157.17 49.848 157.172 49.2037 156.533L28.9554 136.285C28.7046 136.034 28.3637 135.891 28.0089 135.891L15.9687 135.883V113.92L57.2681 92.9377C58.9157 92.1048 60.8377 92.1091 62.4724 92.9399L83.3821 103.561C85.1487 104.558 86.2475 106.432 86.2485 108.464V134.862H86.2507ZM91.0445 123.624L88.9295 122.565V119.907L95.2444 123.071C96.4632 123.682 97.7378 124.072 99.0252 124.294C96.43 125.078 93.5657 124.883 91.0445 123.624ZM109.634 117.836C109.602 117.899 109.564 117.957 109.527 118.001C106.296 121.816 100.918 122.917 96.4439 120.675L88.9295 116.91V108.448C88.9295 107.661 88.8084 106.888 88.5929 106.149L109.172 116.46C109.85 116.802 109.842 117.419 109.634 117.836Z" fill="#020D19" fill-opacity="0.05"/>
<path d="M69.1326 192.604C66.6478 192.095 65.9296 191.649 65.9296 190.615C65.9296 189.552 67.2738 188.654 68.8646 188.654C70.4554 188.654 71.8018 189.552 71.8018 190.615C71.8018 191.356 72.401 191.955 73.1417 191.955C73.8803 191.955 74.4817 191.356 74.4817 190.615C74.4817 188.44 72.654 186.622 70.2046 186.123V184.91C70.2046 184.172 69.6043 183.57 68.8646 183.57C68.125 183.57 67.5247 184.172 67.5247 184.91V186.123C65.0774 186.623 63.2497 188.44 63.2497 190.615C63.2497 194.134 66.7271 194.846 68.5956 195.23C71.1125 195.745 71.8018 196.172 71.8018 197.217C71.8018 198.279 70.4554 199.177 68.8646 199.177C67.2738 199.177 65.9296 198.279 65.9296 197.217C65.9296 196.477 65.3293 195.877 64.5896 195.877C63.85 195.877 63.2497 196.477 63.2497 197.217C63.2497 199.392 65.0774 201.211 67.5247 201.708V202.922C67.5247 203.661 68.125 204.262 68.8646 204.262C69.6043 204.262 70.2046 203.661 70.2046 202.922V201.708C72.654 201.209 74.4817 199.392 74.4817 197.217C74.4817 193.699 71.0021 192.986 69.1326 192.604Z" fill="#020D19" fill-opacity="0.05"/>
<path d="M82.4731 173.24H55.2571C54.5174 173.24 53.9171 172.639 53.9171 171.9C53.9171 171.16 54.5174 170.561 55.2571 170.561H82.4731C83.2138 170.561 83.813 171.16 83.813 171.9C83.813 172.639 83.2149 173.24 82.4731 173.24Z" fill="#020D19" fill-opacity="0.05"/>
<path d="M100.51 177.247C100.51 176.972 100.427 176.717 100.286 176.506L95.6593 166.015C95.446 165.527 94.9636 165.215 94.433 165.215H43.2972C42.7666 165.215 42.2853 165.527 42.072 166.012L37.3553 176.706C37.3543 176.711 37.3532 176.715 37.3521 176.717C37.3468 176.73 37.3457 176.744 37.3403 176.757C37.2846 176.897 37.2589 177.044 37.2524 177.19C37.2524 177.211 37.2417 177.227 37.2417 177.247V210.584C37.2417 211.325 37.841 211.924 38.5817 211.924H99.1496C99.8903 211.924 100.49 211.325 100.49 210.584V177.349C100.493 177.313 100.51 177.282 100.51 177.247ZM44.172 167.894H93.5593L97.0936 175.907H40.6366L44.172 167.894ZM39.9216 209.245V195.257H50.1921C50.9317 195.257 51.532 194.655 51.532 193.917C51.532 193.176 50.9317 192.577 50.1921 192.577H39.9216V178.586H97.8096V192.577H87.5381C86.7985 192.577 86.1982 193.176 86.1982 193.917C86.1982 194.655 86.7985 195.257 87.5381 195.257H97.8096V209.245H39.9216Z" fill="#020D19" fill-opacity="0.05"/>
<path d="M1897.89 959.967C1891.66 959.967 1886.27 963.595 1883.72 968.853H1867.58C1863.46 968.853 1859.73 970.523 1857.03 973.224L1850.53 969.968C1846.66 968.027 1842.23 968.423 1838.83 970.617L1838.84 970.629C1835.15 970.371 1831.5 971.854 1829.06 974.699C1826.36 975.435 1823.88 976.963 1822.01 979.17C1822 979.186 1821.98 979.199 1821.97 979.213C1821.87 979.352 1821.77 979.502 1821.69 979.666C1821.01 981.023 1821.45 982.611 1822.9 983.352L1863.83 1004.14C1864.77 1004.62 1865.83 1004.89 1866.95 1004.89C1868.07 1004.89 1869.13 1004.62 1870.06 1004.15L1910.88 983.407L1910.89 959.978C1906.77 959.973 1898 959.967 1897.89 959.967Z" fill="#F8F8F8"/>
<path d="M1923.09 958.039H1910.89V989.026H1923.09V958.039Z" fill="#F8F8F8"/>
<path d="M1923.09 956.789H1910.88C1910.19 956.789 1909.63 957.35 1909.63 958.039V958.727C1906.4 958.723 1898.01 958.717 1897.89 958.717C1891.69 958.717 1885.91 962.181 1882.96 967.603H1867.58C1863.48 967.603 1859.69 969.136 1856.8 971.712L1851.09 968.849C1847.1 966.853 1842.32 967.072 1838.51 969.369C1834.7 969.224 1831.01 970.75 1828.42 973.558C1825.63 974.38 1823.05 976.003 1821.06 978.361C1821.04 978.375 1821 978.433 1820.99 978.447C1820.82 978.656 1820.68 978.877 1820.57 979.105C1819.55 981.132 1820.31 983.435 1822.34 984.462C1822.34 984.464 1822.34 984.464 1822.34 984.464L1863.27 1005.26C1864.43 1005.85 1865.67 1006.14 1866.95 1006.14C1868.23 1006.14 1869.47 1005.85 1870.63 1005.26L1909.64 985.443V989.027C1909.64 989.716 1910.2 990.277 1910.89 990.277H1923.09C1923.78 990.277 1924.34 989.716 1924.34 989.027V958.04C1924.34 957.35 1923.78 956.789 1923.09 956.789ZM1839.62 974.57C1837.61 973.562 1835.46 973.033 1833.33 972.951C1835.06 972.093 1837.01 971.697 1838.97 971.881C1840.28 972 1841.54 972.361 1842.73 972.955L1852.54 977.867C1852.27 978.539 1852.04 979.226 1851.87 979.945C1851.85 980.015 1851.79 980.322 1851.77 980.654L1839.62 974.57ZM1849.97 971.085L1855 973.605C1854.49 974.236 1854.03 974.908 1853.62 975.615L1843.85 970.72C1843.52 970.556 1843.18 970.41 1842.85 970.275C1845.22 969.722 1847.75 969.97 1849.97 971.085ZM1869.5 1003.03C1867.89 1003.84 1866 1003.84 1864.4 1003.03L1823.47 982.235C1822.55 981.766 1822.47 980.887 1822.8 980.225C1822.85 980.135 1822.9 980.053 1822.96 979.975C1826.8 975.446 1833.19 974.143 1838.5 976.803L1854.05 984.594C1854.09 984.614 1854.14 984.623 1854.18 984.639C1854.71 984.885 1855.29 985.034 1855.91 985.036H1883.72C1884.41 985.036 1884.97 984.477 1884.97 983.786C1884.97 983.097 1884.41 982.536 1883.72 982.536H1855.92C1855 982.532 1854.26 981.786 1854.26 980.87C1854.26 980.767 1854.28 980.581 1854.29 980.542C1854.91 978.017 1856.2 975.814 1857.94 974.083C1857.94 974.079 1857.95 974.073 1857.95 974.069C1860.44 971.594 1863.86 970.102 1867.58 970.102H1883.72C1884.2 970.102 1884.64 969.829 1884.85 969.397C1887.25 964.428 1892.37 961.217 1897.89 961.217C1898.01 961.217 1906.41 961.223 1909.64 961.227V982.637L1869.5 1003.03ZM1921.84 987.777H1912.13V959.29H1921.84V987.777Z" fill="#020D19" fill-opacity="0.05"/>
<path d="M1888.62 941.791C1888.62 951.311 1880.91 959.027 1871.38 959.027C1861.86 959.027 1854.15 951.31 1854.15 941.791C1854.15 932.27 1861.86 924.551 1871.38 924.551C1880.91 924.551 1888.62 932.27 1888.62 941.791Z" fill="#F8F8F8"/>
<path d="M1871.38 960.277C1861.19 960.277 1852.9 951.984 1852.9 941.791C1852.9 931.596 1861.19 923.301 1871.38 923.301C1881.58 923.301 1889.87 931.596 1889.87 941.791C1889.87 951.984 1881.58 960.277 1871.38 960.277ZM1871.38 925.8C1862.57 925.8 1855.4 932.972 1855.4 941.79C1855.4 950.604 1862.57 957.776 1871.38 957.776C1880.2 957.776 1887.37 950.604 1887.37 941.79C1887.37 932.972 1880.2 925.8 1871.38 925.8Z" fill="#020D19" fill-opacity="0.05"/>
<path d="M1871.38 955.727C1870.69 955.727 1870.13 955.168 1870.13 954.477C1870.13 953.787 1870.69 953.227 1871.38 953.227C1877.69 953.227 1882.82 948.096 1882.82 941.791C1882.82 941.1 1883.38 940.541 1884.07 940.541C1884.76 940.541 1885.32 941.1 1885.32 941.791C1885.32 949.475 1879.07 955.727 1871.38 955.727ZM1858.7 943.041C1858.01 943.041 1857.45 942.48 1857.45 941.791C1857.45 934.103 1863.7 927.852 1871.38 927.852C1872.07 927.852 1872.63 928.411 1872.63 929.102C1872.63 929.791 1872.07 930.352 1871.38 930.352C1865.08 930.352 1859.95 935.483 1859.95 941.791C1859.95 942.481 1859.39 943.041 1858.7 943.041Z" fill="#020D19" fill-opacity="0.05"/>
<path d="M1871.63 940.567C1869.56 940.141 1869.22 939.801 1869.22 939.155C1869.22 938.499 1870.11 937.768 1871.38 937.768C1872.66 937.768 1873.55 938.498 1873.55 939.155C1873.55 939.846 1874.11 940.405 1874.8 940.405C1875.49 940.405 1876.05 939.846 1876.05 939.155C1876.05 937.376 1874.6 935.887 1872.63 935.428V934.598C1872.63 933.907 1872.07 933.348 1871.38 933.348C1870.69 933.348 1870.13 933.907 1870.13 934.598V935.428C1868.17 935.887 1866.72 937.375 1866.72 939.155C1866.72 942.114 1869.59 942.7 1871.13 943.016C1873.21 943.44 1873.55 943.778 1873.55 944.426C1873.55 945.08 1872.66 945.811 1871.38 945.811C1870.11 945.811 1869.22 945.081 1869.22 944.426C1869.22 943.735 1868.66 943.176 1867.97 943.176C1867.28 943.176 1866.72 943.735 1866.72 944.426C1866.72 946.205 1868.17 947.694 1870.13 948.151V948.981C1870.13 949.672 1870.69 950.231 1871.38 950.231C1872.07 950.231 1872.63 949.672 1872.63 948.981V948.151C1874.6 947.694 1876.05 946.206 1876.05 944.426C1876.05 941.467 1873.18 940.881 1871.63 940.567Z" fill="#020D19" fill-opacity="0.05"/>
</svg>
